%TF.GenerationSoftware,KiCad,Pcbnew,8.0.2*%
%TF.CreationDate,2024-05-14T20:53:51+07:00*%
%TF.ProjectId,HW.ACIM-PSU,48572e41-4349-44d2-9d50-53552e6b6963,0.0*%
%TF.SameCoordinates,Original*%
%TF.FileFunction,Drillmap*%
%TF.FilePolarity,Positive*%
%FSLAX45Y45*%
G04 Gerber Fmt 4.5, Leading zero omitted, Abs format (unit mm)*
G04 Created by KiCad (PCBNEW 8.0.2) date 2024-05-14 20:53:51*
%MOMM*%
%LPD*%
G01*
G04 APERTURE LIST*
%ADD10C,0.100000*%
%ADD11C,0.200000*%
%ADD12C,0.250000*%
%ADD13C,0.500000*%
G04 APERTURE END LIST*
D10*
X2311700Y-23588410D02*
G75*
G02*
X2086700Y-23363410I0J225000D01*
G01*
X2311700Y-23588420D02*
X11361700Y-23588420D01*
X11361700Y-6948410D02*
G75*
G02*
X11586700Y-7173410I0J-225000D01*
G01*
X11361700Y-6948410D02*
X2311700Y-6948410D01*
X2086700Y-7173410D02*
G75*
G02*
X2311700Y-6948410I225000J0D01*
G01*
X11586700Y-23363410D02*
X11586700Y-7173410D01*
X11586700Y-23363420D02*
G75*
G02*
X11361700Y-23588420I-225000J0D01*
G01*
X2086700Y-7173410D02*
X2086700Y-23363410D01*
D11*
D12*
X2186700Y-7048410D02*
X2436700Y-7298410D01*
X2436700Y-7048410D02*
X2186700Y-7298410D01*
X2186700Y-15143400D02*
X2436700Y-15393400D01*
X2436700Y-15143400D02*
X2186700Y-15393400D01*
X2186700Y-23238410D02*
X2436700Y-23488410D01*
X2436700Y-23238410D02*
X2186700Y-23488410D01*
X6711700Y-7048410D02*
X6961700Y-7298410D01*
X6961700Y-7048410D02*
X6711700Y-7298410D01*
X11236700Y-7048410D02*
X11486700Y-7298410D01*
X11486700Y-7048410D02*
X11236700Y-7298410D01*
X11236700Y-16098390D02*
X11486700Y-16348390D01*
X11486700Y-16098390D02*
X11236700Y-16348390D01*
X11236700Y-23238410D02*
X11486700Y-23488410D01*
X11486700Y-23238410D02*
X11236700Y-23488410D01*
D13*
X8116710Y-14083920D02*
G75*
G02*
X7616710Y-14083920I-250000J0D01*
G01*
X7616710Y-14083920D02*
G75*
G02*
X8116710Y-14083920I250000J0D01*
G01*
X10266710Y-14083920D02*
G75*
G02*
X9766710Y-14083920I-250000J0D01*
G01*
X9766710Y-14083920D02*
G75*
G02*
X10266710Y-14083920I250000J0D01*
G01*
D11*
X2342477Y-23904904D02*
X2342477Y-23704904D01*
X2342477Y-23704904D02*
X2390096Y-23704904D01*
X2390096Y-23704904D02*
X2418667Y-23714428D01*
X2418667Y-23714428D02*
X2437715Y-23733475D01*
X2437715Y-23733475D02*
X2447239Y-23752523D01*
X2447239Y-23752523D02*
X2456763Y-23790618D01*
X2456763Y-23790618D02*
X2456763Y-23819189D01*
X2456763Y-23819189D02*
X2447239Y-23857285D01*
X2447239Y-23857285D02*
X2437715Y-23876332D01*
X2437715Y-23876332D02*
X2418667Y-23895380D01*
X2418667Y-23895380D02*
X2390096Y-23904904D01*
X2390096Y-23904904D02*
X2342477Y-23904904D01*
X2542477Y-23904904D02*
X2542477Y-23771570D01*
X2542477Y-23809666D02*
X2552001Y-23790618D01*
X2552001Y-23790618D02*
X2561524Y-23781094D01*
X2561524Y-23781094D02*
X2580572Y-23771570D01*
X2580572Y-23771570D02*
X2599620Y-23771570D01*
X2666286Y-23904904D02*
X2666286Y-23771570D01*
X2666286Y-23704904D02*
X2656763Y-23714428D01*
X2656763Y-23714428D02*
X2666286Y-23723951D01*
X2666286Y-23723951D02*
X2675810Y-23714428D01*
X2675810Y-23714428D02*
X2666286Y-23704904D01*
X2666286Y-23704904D02*
X2666286Y-23723951D01*
X2790096Y-23904904D02*
X2771048Y-23895380D01*
X2771048Y-23895380D02*
X2761524Y-23876332D01*
X2761524Y-23876332D02*
X2761524Y-23704904D01*
X2894858Y-23904904D02*
X2875810Y-23895380D01*
X2875810Y-23895380D02*
X2866286Y-23876332D01*
X2866286Y-23876332D02*
X2866286Y-23704904D01*
X3123429Y-23904904D02*
X3123429Y-23704904D01*
X3123429Y-23704904D02*
X3190096Y-23847761D01*
X3190096Y-23847761D02*
X3256762Y-23704904D01*
X3256762Y-23704904D02*
X3256762Y-23904904D01*
X3437715Y-23904904D02*
X3437715Y-23800142D01*
X3437715Y-23800142D02*
X3428191Y-23781094D01*
X3428191Y-23781094D02*
X3409143Y-23771570D01*
X3409143Y-23771570D02*
X3371048Y-23771570D01*
X3371048Y-23771570D02*
X3352001Y-23781094D01*
X3437715Y-23895380D02*
X3418667Y-23904904D01*
X3418667Y-23904904D02*
X3371048Y-23904904D01*
X3371048Y-23904904D02*
X3352001Y-23895380D01*
X3352001Y-23895380D02*
X3342477Y-23876332D01*
X3342477Y-23876332D02*
X3342477Y-23857285D01*
X3342477Y-23857285D02*
X3352001Y-23838237D01*
X3352001Y-23838237D02*
X3371048Y-23828713D01*
X3371048Y-23828713D02*
X3418667Y-23828713D01*
X3418667Y-23828713D02*
X3437715Y-23819189D01*
X3532953Y-23771570D02*
X3532953Y-23971570D01*
X3532953Y-23781094D02*
X3552001Y-23771570D01*
X3552001Y-23771570D02*
X3590096Y-23771570D01*
X3590096Y-23771570D02*
X3609143Y-23781094D01*
X3609143Y-23781094D02*
X3618667Y-23790618D01*
X3618667Y-23790618D02*
X3628191Y-23809666D01*
X3628191Y-23809666D02*
X3628191Y-23866808D01*
X3628191Y-23866808D02*
X3618667Y-23885856D01*
X3618667Y-23885856D02*
X3609143Y-23895380D01*
X3609143Y-23895380D02*
X3590096Y-23904904D01*
X3590096Y-23904904D02*
X3552001Y-23904904D01*
X3552001Y-23904904D02*
X3532953Y-23895380D01*
X3713905Y-23885856D02*
X3723429Y-23895380D01*
X3723429Y-23895380D02*
X3713905Y-23904904D01*
X3713905Y-23904904D02*
X3704382Y-23895380D01*
X3704382Y-23895380D02*
X3713905Y-23885856D01*
X3713905Y-23885856D02*
X3713905Y-23904904D01*
X3713905Y-23781094D02*
X3723429Y-23790618D01*
X3723429Y-23790618D02*
X3713905Y-23800142D01*
X3713905Y-23800142D02*
X3704382Y-23790618D01*
X3704382Y-23790618D02*
X3713905Y-23781094D01*
X3713905Y-23781094D02*
X3713905Y-23800142D01*
X1881700Y-24133420D02*
X2081700Y-24333420D01*
X2081700Y-24133420D02*
X1881700Y-24333420D01*
X2332953Y-24143951D02*
X2342477Y-24134428D01*
X2342477Y-24134428D02*
X2361524Y-24124904D01*
X2361524Y-24124904D02*
X2409144Y-24124904D01*
X2409144Y-24124904D02*
X2428191Y-24134428D01*
X2428191Y-24134428D02*
X2437715Y-24143951D01*
X2437715Y-24143951D02*
X2447239Y-24162999D01*
X2447239Y-24162999D02*
X2447239Y-24182047D01*
X2447239Y-24182047D02*
X2437715Y-24210618D01*
X2437715Y-24210618D02*
X2323429Y-24324904D01*
X2323429Y-24324904D02*
X2447239Y-24324904D01*
X2532953Y-24305856D02*
X2542477Y-24315380D01*
X2542477Y-24315380D02*
X2532953Y-24324904D01*
X2532953Y-24324904D02*
X2523429Y-24315380D01*
X2523429Y-24315380D02*
X2532953Y-24305856D01*
X2532953Y-24305856D02*
X2532953Y-24324904D01*
X2723429Y-24124904D02*
X2628191Y-24124904D01*
X2628191Y-24124904D02*
X2618667Y-24220142D01*
X2618667Y-24220142D02*
X2628191Y-24210618D01*
X2628191Y-24210618D02*
X2647239Y-24201094D01*
X2647239Y-24201094D02*
X2694858Y-24201094D01*
X2694858Y-24201094D02*
X2713905Y-24210618D01*
X2713905Y-24210618D02*
X2723429Y-24220142D01*
X2723429Y-24220142D02*
X2732953Y-24239189D01*
X2732953Y-24239189D02*
X2732953Y-24286808D01*
X2732953Y-24286808D02*
X2723429Y-24305856D01*
X2723429Y-24305856D02*
X2713905Y-24315380D01*
X2713905Y-24315380D02*
X2694858Y-24324904D01*
X2694858Y-24324904D02*
X2647239Y-24324904D01*
X2647239Y-24324904D02*
X2628191Y-24315380D01*
X2628191Y-24315380D02*
X2618667Y-24305856D01*
X2856762Y-24124904D02*
X2875810Y-24124904D01*
X2875810Y-24124904D02*
X2894858Y-24134428D01*
X2894858Y-24134428D02*
X2904382Y-24143951D01*
X2904382Y-24143951D02*
X2913905Y-24162999D01*
X2913905Y-24162999D02*
X2923429Y-24201094D01*
X2923429Y-24201094D02*
X2923429Y-24248713D01*
X2923429Y-24248713D02*
X2913905Y-24286808D01*
X2913905Y-24286808D02*
X2904382Y-24305856D01*
X2904382Y-24305856D02*
X2894858Y-24315380D01*
X2894858Y-24315380D02*
X2875810Y-24324904D01*
X2875810Y-24324904D02*
X2856762Y-24324904D01*
X2856762Y-24324904D02*
X2837715Y-24315380D01*
X2837715Y-24315380D02*
X2828191Y-24305856D01*
X2828191Y-24305856D02*
X2818667Y-24286808D01*
X2818667Y-24286808D02*
X2809143Y-24248713D01*
X2809143Y-24248713D02*
X2809143Y-24201094D01*
X2809143Y-24201094D02*
X2818667Y-24162999D01*
X2818667Y-24162999D02*
X2828191Y-24143951D01*
X2828191Y-24143951D02*
X2837715Y-24134428D01*
X2837715Y-24134428D02*
X2856762Y-24124904D01*
X3047239Y-24124904D02*
X3066286Y-24124904D01*
X3066286Y-24124904D02*
X3085334Y-24134428D01*
X3085334Y-24134428D02*
X3094858Y-24143951D01*
X3094858Y-24143951D02*
X3104382Y-24162999D01*
X3104382Y-24162999D02*
X3113905Y-24201094D01*
X3113905Y-24201094D02*
X3113905Y-24248713D01*
X3113905Y-24248713D02*
X3104382Y-24286808D01*
X3104382Y-24286808D02*
X3094858Y-24305856D01*
X3094858Y-24305856D02*
X3085334Y-24315380D01*
X3085334Y-24315380D02*
X3066286Y-24324904D01*
X3066286Y-24324904D02*
X3047239Y-24324904D01*
X3047239Y-24324904D02*
X3028191Y-24315380D01*
X3028191Y-24315380D02*
X3018667Y-24305856D01*
X3018667Y-24305856D02*
X3009143Y-24286808D01*
X3009143Y-24286808D02*
X2999620Y-24248713D01*
X2999620Y-24248713D02*
X2999620Y-24201094D01*
X2999620Y-24201094D02*
X3009143Y-24162999D01*
X3009143Y-24162999D02*
X3018667Y-24143951D01*
X3018667Y-24143951D02*
X3028191Y-24134428D01*
X3028191Y-24134428D02*
X3047239Y-24124904D01*
X3199620Y-24324904D02*
X3199620Y-24191570D01*
X3199620Y-24210618D02*
X3209143Y-24201094D01*
X3209143Y-24201094D02*
X3228191Y-24191570D01*
X3228191Y-24191570D02*
X3256763Y-24191570D01*
X3256763Y-24191570D02*
X3275810Y-24201094D01*
X3275810Y-24201094D02*
X3285334Y-24220142D01*
X3285334Y-24220142D02*
X3285334Y-24324904D01*
X3285334Y-24220142D02*
X3294858Y-24201094D01*
X3294858Y-24201094D02*
X3313905Y-24191570D01*
X3313905Y-24191570D02*
X3342477Y-24191570D01*
X3342477Y-24191570D02*
X3361524Y-24201094D01*
X3361524Y-24201094D02*
X3371048Y-24220142D01*
X3371048Y-24220142D02*
X3371048Y-24324904D01*
X3466286Y-24324904D02*
X3466286Y-24191570D01*
X3466286Y-24210618D02*
X3475810Y-24201094D01*
X3475810Y-24201094D02*
X3494858Y-24191570D01*
X3494858Y-24191570D02*
X3523429Y-24191570D01*
X3523429Y-24191570D02*
X3542477Y-24201094D01*
X3542477Y-24201094D02*
X3552001Y-24220142D01*
X3552001Y-24220142D02*
X3552001Y-24324904D01*
X3552001Y-24220142D02*
X3561524Y-24201094D01*
X3561524Y-24201094D02*
X3580572Y-24191570D01*
X3580572Y-24191570D02*
X3609143Y-24191570D01*
X3609143Y-24191570D02*
X3628191Y-24201094D01*
X3628191Y-24201094D02*
X3637715Y-24220142D01*
X3637715Y-24220142D02*
X3637715Y-24324904D01*
X4028191Y-24115380D02*
X3856763Y-24372523D01*
X4285334Y-24124904D02*
X4304382Y-24124904D01*
X4304382Y-24124904D02*
X4323429Y-24134428D01*
X4323429Y-24134428D02*
X4332953Y-24143951D01*
X4332953Y-24143951D02*
X4342477Y-24162999D01*
X4342477Y-24162999D02*
X4352001Y-24201094D01*
X4352001Y-24201094D02*
X4352001Y-24248713D01*
X4352001Y-24248713D02*
X4342477Y-24286808D01*
X4342477Y-24286808D02*
X4332953Y-24305856D01*
X4332953Y-24305856D02*
X4323429Y-24315380D01*
X4323429Y-24315380D02*
X4304382Y-24324904D01*
X4304382Y-24324904D02*
X4285334Y-24324904D01*
X4285334Y-24324904D02*
X4266287Y-24315380D01*
X4266287Y-24315380D02*
X4256763Y-24305856D01*
X4256763Y-24305856D02*
X4247239Y-24286808D01*
X4247239Y-24286808D02*
X4237715Y-24248713D01*
X4237715Y-24248713D02*
X4237715Y-24201094D01*
X4237715Y-24201094D02*
X4247239Y-24162999D01*
X4247239Y-24162999D02*
X4256763Y-24143951D01*
X4256763Y-24143951D02*
X4266287Y-24134428D01*
X4266287Y-24134428D02*
X4285334Y-24124904D01*
X4437715Y-24305856D02*
X4447239Y-24315380D01*
X4447239Y-24315380D02*
X4437715Y-24324904D01*
X4437715Y-24324904D02*
X4428191Y-24315380D01*
X4428191Y-24315380D02*
X4437715Y-24305856D01*
X4437715Y-24305856D02*
X4437715Y-24324904D01*
X4571048Y-24124904D02*
X4590096Y-24124904D01*
X4590096Y-24124904D02*
X4609144Y-24134428D01*
X4609144Y-24134428D02*
X4618668Y-24143951D01*
X4618668Y-24143951D02*
X4628191Y-24162999D01*
X4628191Y-24162999D02*
X4637715Y-24201094D01*
X4637715Y-24201094D02*
X4637715Y-24248713D01*
X4637715Y-24248713D02*
X4628191Y-24286808D01*
X4628191Y-24286808D02*
X4618668Y-24305856D01*
X4618668Y-24305856D02*
X4609144Y-24315380D01*
X4609144Y-24315380D02*
X4590096Y-24324904D01*
X4590096Y-24324904D02*
X4571048Y-24324904D01*
X4571048Y-24324904D02*
X4552001Y-24315380D01*
X4552001Y-24315380D02*
X4542477Y-24305856D01*
X4542477Y-24305856D02*
X4532953Y-24286808D01*
X4532953Y-24286808D02*
X4523429Y-24248713D01*
X4523429Y-24248713D02*
X4523429Y-24201094D01*
X4523429Y-24201094D02*
X4532953Y-24162999D01*
X4532953Y-24162999D02*
X4542477Y-24143951D01*
X4542477Y-24143951D02*
X4552001Y-24134428D01*
X4552001Y-24134428D02*
X4571048Y-24124904D01*
X4732953Y-24324904D02*
X4771048Y-24324904D01*
X4771048Y-24324904D02*
X4790096Y-24315380D01*
X4790096Y-24315380D02*
X4799620Y-24305856D01*
X4799620Y-24305856D02*
X4818668Y-24277285D01*
X4818668Y-24277285D02*
X4828191Y-24239189D01*
X4828191Y-24239189D02*
X4828191Y-24162999D01*
X4828191Y-24162999D02*
X4818668Y-24143951D01*
X4818668Y-24143951D02*
X4809144Y-24134428D01*
X4809144Y-24134428D02*
X4790096Y-24124904D01*
X4790096Y-24124904D02*
X4752001Y-24124904D01*
X4752001Y-24124904D02*
X4732953Y-24134428D01*
X4732953Y-24134428D02*
X4723429Y-24143951D01*
X4723429Y-24143951D02*
X4713906Y-24162999D01*
X4713906Y-24162999D02*
X4713906Y-24210618D01*
X4713906Y-24210618D02*
X4723429Y-24229666D01*
X4723429Y-24229666D02*
X4732953Y-24239189D01*
X4732953Y-24239189D02*
X4752001Y-24248713D01*
X4752001Y-24248713D02*
X4790096Y-24248713D01*
X4790096Y-24248713D02*
X4809144Y-24239189D01*
X4809144Y-24239189D02*
X4818668Y-24229666D01*
X4818668Y-24229666D02*
X4828191Y-24210618D01*
X4942477Y-24210618D02*
X4923429Y-24201094D01*
X4923429Y-24201094D02*
X4913906Y-24191570D01*
X4913906Y-24191570D02*
X4904382Y-24172523D01*
X4904382Y-24172523D02*
X4904382Y-24162999D01*
X4904382Y-24162999D02*
X4913906Y-24143951D01*
X4913906Y-24143951D02*
X4923429Y-24134428D01*
X4923429Y-24134428D02*
X4942477Y-24124904D01*
X4942477Y-24124904D02*
X4980572Y-24124904D01*
X4980572Y-24124904D02*
X4999620Y-24134428D01*
X4999620Y-24134428D02*
X5009144Y-24143951D01*
X5009144Y-24143951D02*
X5018668Y-24162999D01*
X5018668Y-24162999D02*
X5018668Y-24172523D01*
X5018668Y-24172523D02*
X5009144Y-24191570D01*
X5009144Y-24191570D02*
X4999620Y-24201094D01*
X4999620Y-24201094D02*
X4980572Y-24210618D01*
X4980572Y-24210618D02*
X4942477Y-24210618D01*
X4942477Y-24210618D02*
X4923429Y-24220142D01*
X4923429Y-24220142D02*
X4913906Y-24229666D01*
X4913906Y-24229666D02*
X4904382Y-24248713D01*
X4904382Y-24248713D02*
X4904382Y-24286808D01*
X4904382Y-24286808D02*
X4913906Y-24305856D01*
X4913906Y-24305856D02*
X4923429Y-24315380D01*
X4923429Y-24315380D02*
X4942477Y-24324904D01*
X4942477Y-24324904D02*
X4980572Y-24324904D01*
X4980572Y-24324904D02*
X4999620Y-24315380D01*
X4999620Y-24315380D02*
X5009144Y-24305856D01*
X5009144Y-24305856D02*
X5018668Y-24286808D01*
X5018668Y-24286808D02*
X5018668Y-24248713D01*
X5018668Y-24248713D02*
X5009144Y-24229666D01*
X5009144Y-24229666D02*
X4999620Y-24220142D01*
X4999620Y-24220142D02*
X4980572Y-24210618D01*
X5190096Y-24191570D02*
X5190096Y-24324904D01*
X5142477Y-24115380D02*
X5094858Y-24258237D01*
X5094858Y-24258237D02*
X5218668Y-24258237D01*
X5285334Y-24124904D02*
X5285334Y-24162999D01*
X5361525Y-24124904D02*
X5361525Y-24162999D01*
X5656763Y-24401094D02*
X5647239Y-24391570D01*
X5647239Y-24391570D02*
X5628191Y-24362999D01*
X5628191Y-24362999D02*
X5618668Y-24343951D01*
X5618668Y-24343951D02*
X5609144Y-24315380D01*
X5609144Y-24315380D02*
X5599620Y-24267761D01*
X5599620Y-24267761D02*
X5599620Y-24229666D01*
X5599620Y-24229666D02*
X5609144Y-24182047D01*
X5609144Y-24182047D02*
X5618668Y-24153475D01*
X5618668Y-24153475D02*
X5628191Y-24134428D01*
X5628191Y-24134428D02*
X5647239Y-24105856D01*
X5647239Y-24105856D02*
X5656763Y-24096332D01*
X5713906Y-24124904D02*
X5847239Y-24124904D01*
X5847239Y-24124904D02*
X5761525Y-24324904D01*
X6075810Y-24324904D02*
X6075810Y-24124904D01*
X6161525Y-24324904D02*
X6161525Y-24220142D01*
X6161525Y-24220142D02*
X6152001Y-24201094D01*
X6152001Y-24201094D02*
X6132953Y-24191570D01*
X6132953Y-24191570D02*
X6104382Y-24191570D01*
X6104382Y-24191570D02*
X6085334Y-24201094D01*
X6085334Y-24201094D02*
X6075810Y-24210618D01*
X6285334Y-24324904D02*
X6266287Y-24315380D01*
X6266287Y-24315380D02*
X6256763Y-24305856D01*
X6256763Y-24305856D02*
X6247239Y-24286808D01*
X6247239Y-24286808D02*
X6247239Y-24229666D01*
X6247239Y-24229666D02*
X6256763Y-24210618D01*
X6256763Y-24210618D02*
X6266287Y-24201094D01*
X6266287Y-24201094D02*
X6285334Y-24191570D01*
X6285334Y-24191570D02*
X6313906Y-24191570D01*
X6313906Y-24191570D02*
X6332953Y-24201094D01*
X6332953Y-24201094D02*
X6342477Y-24210618D01*
X6342477Y-24210618D02*
X6352001Y-24229666D01*
X6352001Y-24229666D02*
X6352001Y-24286808D01*
X6352001Y-24286808D02*
X6342477Y-24305856D01*
X6342477Y-24305856D02*
X6332953Y-24315380D01*
X6332953Y-24315380D02*
X6313906Y-24324904D01*
X6313906Y-24324904D02*
X6285334Y-24324904D01*
X6466287Y-24324904D02*
X6447239Y-24315380D01*
X6447239Y-24315380D02*
X6437715Y-24296332D01*
X6437715Y-24296332D02*
X6437715Y-24124904D01*
X6618668Y-24315380D02*
X6599620Y-24324904D01*
X6599620Y-24324904D02*
X6561525Y-24324904D01*
X6561525Y-24324904D02*
X6542477Y-24315380D01*
X6542477Y-24315380D02*
X6532953Y-24296332D01*
X6532953Y-24296332D02*
X6532953Y-24220142D01*
X6532953Y-24220142D02*
X6542477Y-24201094D01*
X6542477Y-24201094D02*
X6561525Y-24191570D01*
X6561525Y-24191570D02*
X6599620Y-24191570D01*
X6599620Y-24191570D02*
X6618668Y-24201094D01*
X6618668Y-24201094D02*
X6628191Y-24220142D01*
X6628191Y-24220142D02*
X6628191Y-24239189D01*
X6628191Y-24239189D02*
X6532953Y-24258237D01*
X6704382Y-24315380D02*
X6723430Y-24324904D01*
X6723430Y-24324904D02*
X6761525Y-24324904D01*
X6761525Y-24324904D02*
X6780572Y-24315380D01*
X6780572Y-24315380D02*
X6790096Y-24296332D01*
X6790096Y-24296332D02*
X6790096Y-24286808D01*
X6790096Y-24286808D02*
X6780572Y-24267761D01*
X6780572Y-24267761D02*
X6761525Y-24258237D01*
X6761525Y-24258237D02*
X6732953Y-24258237D01*
X6732953Y-24258237D02*
X6713906Y-24248713D01*
X6713906Y-24248713D02*
X6704382Y-24229666D01*
X6704382Y-24229666D02*
X6704382Y-24220142D01*
X6704382Y-24220142D02*
X6713906Y-24201094D01*
X6713906Y-24201094D02*
X6732953Y-24191570D01*
X6732953Y-24191570D02*
X6761525Y-24191570D01*
X6761525Y-24191570D02*
X6780572Y-24201094D01*
X6856763Y-24401094D02*
X6866287Y-24391570D01*
X6866287Y-24391570D02*
X6885334Y-24362999D01*
X6885334Y-24362999D02*
X6894858Y-24343951D01*
X6894858Y-24343951D02*
X6904382Y-24315380D01*
X6904382Y-24315380D02*
X6913906Y-24267761D01*
X6913906Y-24267761D02*
X6913906Y-24229666D01*
X6913906Y-24229666D02*
X6904382Y-24182047D01*
X6904382Y-24182047D02*
X6894858Y-24153475D01*
X6894858Y-24153475D02*
X6885334Y-24134428D01*
X6885334Y-24134428D02*
X6866287Y-24105856D01*
X6866287Y-24105856D02*
X6856763Y-24096332D01*
X7218668Y-24401094D02*
X7209144Y-24391570D01*
X7209144Y-24391570D02*
X7190096Y-24362999D01*
X7190096Y-24362999D02*
X7180572Y-24343951D01*
X7180572Y-24343951D02*
X7171049Y-24315380D01*
X7171049Y-24315380D02*
X7161525Y-24267761D01*
X7161525Y-24267761D02*
X7161525Y-24229666D01*
X7161525Y-24229666D02*
X7171049Y-24182047D01*
X7171049Y-24182047D02*
X7180572Y-24153475D01*
X7180572Y-24153475D02*
X7190096Y-24134428D01*
X7190096Y-24134428D02*
X7209144Y-24105856D01*
X7209144Y-24105856D02*
X7218668Y-24096332D01*
X7294858Y-24191570D02*
X7294858Y-24324904D01*
X7294858Y-24210618D02*
X7304382Y-24201094D01*
X7304382Y-24201094D02*
X7323430Y-24191570D01*
X7323430Y-24191570D02*
X7352001Y-24191570D01*
X7352001Y-24191570D02*
X7371049Y-24201094D01*
X7371049Y-24201094D02*
X7380572Y-24220142D01*
X7380572Y-24220142D02*
X7380572Y-24324904D01*
X7504382Y-24324904D02*
X7485334Y-24315380D01*
X7485334Y-24315380D02*
X7475811Y-24305856D01*
X7475811Y-24305856D02*
X7466287Y-24286808D01*
X7466287Y-24286808D02*
X7466287Y-24229666D01*
X7466287Y-24229666D02*
X7475811Y-24210618D01*
X7475811Y-24210618D02*
X7485334Y-24201094D01*
X7485334Y-24201094D02*
X7504382Y-24191570D01*
X7504382Y-24191570D02*
X7532953Y-24191570D01*
X7532953Y-24191570D02*
X7552001Y-24201094D01*
X7552001Y-24201094D02*
X7561525Y-24210618D01*
X7561525Y-24210618D02*
X7571049Y-24229666D01*
X7571049Y-24229666D02*
X7571049Y-24286808D01*
X7571049Y-24286808D02*
X7561525Y-24305856D01*
X7561525Y-24305856D02*
X7552001Y-24315380D01*
X7552001Y-24315380D02*
X7532953Y-24324904D01*
X7532953Y-24324904D02*
X7504382Y-24324904D01*
X7628192Y-24191570D02*
X7704382Y-24191570D01*
X7656763Y-24124904D02*
X7656763Y-24296332D01*
X7656763Y-24296332D02*
X7666287Y-24315380D01*
X7666287Y-24315380D02*
X7685334Y-24324904D01*
X7685334Y-24324904D02*
X7704382Y-24324904D01*
X7923430Y-24191570D02*
X7923430Y-24391570D01*
X7923430Y-24201094D02*
X7942477Y-24191570D01*
X7942477Y-24191570D02*
X7980573Y-24191570D01*
X7980573Y-24191570D02*
X7999620Y-24201094D01*
X7999620Y-24201094D02*
X8009144Y-24210618D01*
X8009144Y-24210618D02*
X8018668Y-24229666D01*
X8018668Y-24229666D02*
X8018668Y-24286808D01*
X8018668Y-24286808D02*
X8009144Y-24305856D01*
X8009144Y-24305856D02*
X7999620Y-24315380D01*
X7999620Y-24315380D02*
X7980573Y-24324904D01*
X7980573Y-24324904D02*
X7942477Y-24324904D01*
X7942477Y-24324904D02*
X7923430Y-24315380D01*
X8132953Y-24324904D02*
X8113906Y-24315380D01*
X8113906Y-24315380D02*
X8104382Y-24296332D01*
X8104382Y-24296332D02*
X8104382Y-24124904D01*
X8294858Y-24324904D02*
X8294858Y-24220142D01*
X8294858Y-24220142D02*
X8285334Y-24201094D01*
X8285334Y-24201094D02*
X8266287Y-24191570D01*
X8266287Y-24191570D02*
X8228192Y-24191570D01*
X8228192Y-24191570D02*
X8209144Y-24201094D01*
X8294858Y-24315380D02*
X8275811Y-24324904D01*
X8275811Y-24324904D02*
X8228192Y-24324904D01*
X8228192Y-24324904D02*
X8209144Y-24315380D01*
X8209144Y-24315380D02*
X8199620Y-24296332D01*
X8199620Y-24296332D02*
X8199620Y-24277285D01*
X8199620Y-24277285D02*
X8209144Y-24258237D01*
X8209144Y-24258237D02*
X8228192Y-24248713D01*
X8228192Y-24248713D02*
X8275811Y-24248713D01*
X8275811Y-24248713D02*
X8294858Y-24239189D01*
X8361525Y-24191570D02*
X8437715Y-24191570D01*
X8390096Y-24124904D02*
X8390096Y-24296332D01*
X8390096Y-24296332D02*
X8399620Y-24315380D01*
X8399620Y-24315380D02*
X8418668Y-24324904D01*
X8418668Y-24324904D02*
X8437715Y-24324904D01*
X8580573Y-24315380D02*
X8561525Y-24324904D01*
X8561525Y-24324904D02*
X8523430Y-24324904D01*
X8523430Y-24324904D02*
X8504382Y-24315380D01*
X8504382Y-24315380D02*
X8494858Y-24296332D01*
X8494858Y-24296332D02*
X8494858Y-24220142D01*
X8494858Y-24220142D02*
X8504382Y-24201094D01*
X8504382Y-24201094D02*
X8523430Y-24191570D01*
X8523430Y-24191570D02*
X8561525Y-24191570D01*
X8561525Y-24191570D02*
X8580573Y-24201094D01*
X8580573Y-24201094D02*
X8590096Y-24220142D01*
X8590096Y-24220142D02*
X8590096Y-24239189D01*
X8590096Y-24239189D02*
X8494858Y-24258237D01*
X8761525Y-24324904D02*
X8761525Y-24124904D01*
X8761525Y-24315380D02*
X8742477Y-24324904D01*
X8742477Y-24324904D02*
X8704382Y-24324904D01*
X8704382Y-24324904D02*
X8685335Y-24315380D01*
X8685335Y-24315380D02*
X8675811Y-24305856D01*
X8675811Y-24305856D02*
X8666287Y-24286808D01*
X8666287Y-24286808D02*
X8666287Y-24229666D01*
X8666287Y-24229666D02*
X8675811Y-24210618D01*
X8675811Y-24210618D02*
X8685335Y-24201094D01*
X8685335Y-24201094D02*
X8704382Y-24191570D01*
X8704382Y-24191570D02*
X8742477Y-24191570D01*
X8742477Y-24191570D02*
X8761525Y-24201094D01*
X8837716Y-24401094D02*
X8847239Y-24391570D01*
X8847239Y-24391570D02*
X8866287Y-24362999D01*
X8866287Y-24362999D02*
X8875811Y-24343951D01*
X8875811Y-24343951D02*
X8885335Y-24315380D01*
X8885335Y-24315380D02*
X8894858Y-24267761D01*
X8894858Y-24267761D02*
X8894858Y-24229666D01*
X8894858Y-24229666D02*
X8885335Y-24182047D01*
X8885335Y-24182047D02*
X8875811Y-24153475D01*
X8875811Y-24153475D02*
X8866287Y-24134428D01*
X8866287Y-24134428D02*
X8847239Y-24105856D01*
X8847239Y-24105856D02*
X8837716Y-24096332D01*
X2081700Y-24553420D02*
G75*
G02*
X1881700Y-24553420I-100000J0D01*
G01*
X1881700Y-24553420D02*
G75*
G02*
X2081700Y-24553420I100000J0D01*
G01*
X2437715Y-24444904D02*
X2342477Y-24444904D01*
X2342477Y-24444904D02*
X2332953Y-24540142D01*
X2332953Y-24540142D02*
X2342477Y-24530618D01*
X2342477Y-24530618D02*
X2361524Y-24521094D01*
X2361524Y-24521094D02*
X2409144Y-24521094D01*
X2409144Y-24521094D02*
X2428191Y-24530618D01*
X2428191Y-24530618D02*
X2437715Y-24540142D01*
X2437715Y-24540142D02*
X2447239Y-24559189D01*
X2447239Y-24559189D02*
X2447239Y-24606808D01*
X2447239Y-24606808D02*
X2437715Y-24625856D01*
X2437715Y-24625856D02*
X2428191Y-24635380D01*
X2428191Y-24635380D02*
X2409144Y-24644904D01*
X2409144Y-24644904D02*
X2361524Y-24644904D01*
X2361524Y-24644904D02*
X2342477Y-24635380D01*
X2342477Y-24635380D02*
X2332953Y-24625856D01*
X2532953Y-24625856D02*
X2542477Y-24635380D01*
X2542477Y-24635380D02*
X2532953Y-24644904D01*
X2532953Y-24644904D02*
X2523429Y-24635380D01*
X2523429Y-24635380D02*
X2532953Y-24625856D01*
X2532953Y-24625856D02*
X2532953Y-24644904D01*
X2666286Y-24444904D02*
X2685334Y-24444904D01*
X2685334Y-24444904D02*
X2704382Y-24454428D01*
X2704382Y-24454428D02*
X2713905Y-24463951D01*
X2713905Y-24463951D02*
X2723429Y-24482999D01*
X2723429Y-24482999D02*
X2732953Y-24521094D01*
X2732953Y-24521094D02*
X2732953Y-24568713D01*
X2732953Y-24568713D02*
X2723429Y-24606808D01*
X2723429Y-24606808D02*
X2713905Y-24625856D01*
X2713905Y-24625856D02*
X2704382Y-24635380D01*
X2704382Y-24635380D02*
X2685334Y-24644904D01*
X2685334Y-24644904D02*
X2666286Y-24644904D01*
X2666286Y-24644904D02*
X2647239Y-24635380D01*
X2647239Y-24635380D02*
X2637715Y-24625856D01*
X2637715Y-24625856D02*
X2628191Y-24606808D01*
X2628191Y-24606808D02*
X2618667Y-24568713D01*
X2618667Y-24568713D02*
X2618667Y-24521094D01*
X2618667Y-24521094D02*
X2628191Y-24482999D01*
X2628191Y-24482999D02*
X2637715Y-24463951D01*
X2637715Y-24463951D02*
X2647239Y-24454428D01*
X2647239Y-24454428D02*
X2666286Y-24444904D01*
X2856762Y-24444904D02*
X2875810Y-24444904D01*
X2875810Y-24444904D02*
X2894858Y-24454428D01*
X2894858Y-24454428D02*
X2904382Y-24463951D01*
X2904382Y-24463951D02*
X2913905Y-24482999D01*
X2913905Y-24482999D02*
X2923429Y-24521094D01*
X2923429Y-24521094D02*
X2923429Y-24568713D01*
X2923429Y-24568713D02*
X2913905Y-24606808D01*
X2913905Y-24606808D02*
X2904382Y-24625856D01*
X2904382Y-24625856D02*
X2894858Y-24635380D01*
X2894858Y-24635380D02*
X2875810Y-24644904D01*
X2875810Y-24644904D02*
X2856762Y-24644904D01*
X2856762Y-24644904D02*
X2837715Y-24635380D01*
X2837715Y-24635380D02*
X2828191Y-24625856D01*
X2828191Y-24625856D02*
X2818667Y-24606808D01*
X2818667Y-24606808D02*
X2809143Y-24568713D01*
X2809143Y-24568713D02*
X2809143Y-24521094D01*
X2809143Y-24521094D02*
X2818667Y-24482999D01*
X2818667Y-24482999D02*
X2828191Y-24463951D01*
X2828191Y-24463951D02*
X2837715Y-24454428D01*
X2837715Y-24454428D02*
X2856762Y-24444904D01*
X3047239Y-24444904D02*
X3066286Y-24444904D01*
X3066286Y-24444904D02*
X3085334Y-24454428D01*
X3085334Y-24454428D02*
X3094858Y-24463951D01*
X3094858Y-24463951D02*
X3104382Y-24482999D01*
X3104382Y-24482999D02*
X3113905Y-24521094D01*
X3113905Y-24521094D02*
X3113905Y-24568713D01*
X3113905Y-24568713D02*
X3104382Y-24606808D01*
X3104382Y-24606808D02*
X3094858Y-24625856D01*
X3094858Y-24625856D02*
X3085334Y-24635380D01*
X3085334Y-24635380D02*
X3066286Y-24644904D01*
X3066286Y-24644904D02*
X3047239Y-24644904D01*
X3047239Y-24644904D02*
X3028191Y-24635380D01*
X3028191Y-24635380D02*
X3018667Y-24625856D01*
X3018667Y-24625856D02*
X3009143Y-24606808D01*
X3009143Y-24606808D02*
X2999620Y-24568713D01*
X2999620Y-24568713D02*
X2999620Y-24521094D01*
X2999620Y-24521094D02*
X3009143Y-24482999D01*
X3009143Y-24482999D02*
X3018667Y-24463951D01*
X3018667Y-24463951D02*
X3028191Y-24454428D01*
X3028191Y-24454428D02*
X3047239Y-24444904D01*
X3199620Y-24644904D02*
X3199620Y-24511570D01*
X3199620Y-24530618D02*
X3209143Y-24521094D01*
X3209143Y-24521094D02*
X3228191Y-24511570D01*
X3228191Y-24511570D02*
X3256763Y-24511570D01*
X3256763Y-24511570D02*
X3275810Y-24521094D01*
X3275810Y-24521094D02*
X3285334Y-24540142D01*
X3285334Y-24540142D02*
X3285334Y-24644904D01*
X3285334Y-24540142D02*
X3294858Y-24521094D01*
X3294858Y-24521094D02*
X3313905Y-24511570D01*
X3313905Y-24511570D02*
X3342477Y-24511570D01*
X3342477Y-24511570D02*
X3361524Y-24521094D01*
X3361524Y-24521094D02*
X3371048Y-24540142D01*
X3371048Y-24540142D02*
X3371048Y-24644904D01*
X3466286Y-24644904D02*
X3466286Y-24511570D01*
X3466286Y-24530618D02*
X3475810Y-24521094D01*
X3475810Y-24521094D02*
X3494858Y-24511570D01*
X3494858Y-24511570D02*
X3523429Y-24511570D01*
X3523429Y-24511570D02*
X3542477Y-24521094D01*
X3542477Y-24521094D02*
X3552001Y-24540142D01*
X3552001Y-24540142D02*
X3552001Y-24644904D01*
X3552001Y-24540142D02*
X3561524Y-24521094D01*
X3561524Y-24521094D02*
X3580572Y-24511570D01*
X3580572Y-24511570D02*
X3609143Y-24511570D01*
X3609143Y-24511570D02*
X3628191Y-24521094D01*
X3628191Y-24521094D02*
X3637715Y-24540142D01*
X3637715Y-24540142D02*
X3637715Y-24644904D01*
X4028191Y-24435380D02*
X3856763Y-24692523D01*
X4285334Y-24444904D02*
X4304382Y-24444904D01*
X4304382Y-24444904D02*
X4323429Y-24454428D01*
X4323429Y-24454428D02*
X4332953Y-24463951D01*
X4332953Y-24463951D02*
X4342477Y-24482999D01*
X4342477Y-24482999D02*
X4352001Y-24521094D01*
X4352001Y-24521094D02*
X4352001Y-24568713D01*
X4352001Y-24568713D02*
X4342477Y-24606808D01*
X4342477Y-24606808D02*
X4332953Y-24625856D01*
X4332953Y-24625856D02*
X4323429Y-24635380D01*
X4323429Y-24635380D02*
X4304382Y-24644904D01*
X4304382Y-24644904D02*
X4285334Y-24644904D01*
X4285334Y-24644904D02*
X4266287Y-24635380D01*
X4266287Y-24635380D02*
X4256763Y-24625856D01*
X4256763Y-24625856D02*
X4247239Y-24606808D01*
X4247239Y-24606808D02*
X4237715Y-24568713D01*
X4237715Y-24568713D02*
X4237715Y-24521094D01*
X4237715Y-24521094D02*
X4247239Y-24482999D01*
X4247239Y-24482999D02*
X4256763Y-24463951D01*
X4256763Y-24463951D02*
X4266287Y-24454428D01*
X4266287Y-24454428D02*
X4285334Y-24444904D01*
X4437715Y-24625856D02*
X4447239Y-24635380D01*
X4447239Y-24635380D02*
X4437715Y-24644904D01*
X4437715Y-24644904D02*
X4428191Y-24635380D01*
X4428191Y-24635380D02*
X4437715Y-24625856D01*
X4437715Y-24625856D02*
X4437715Y-24644904D01*
X4637715Y-24644904D02*
X4523429Y-24644904D01*
X4580572Y-24644904D02*
X4580572Y-24444904D01*
X4580572Y-24444904D02*
X4561525Y-24473475D01*
X4561525Y-24473475D02*
X4542477Y-24492523D01*
X4542477Y-24492523D02*
X4523429Y-24502047D01*
X4732953Y-24644904D02*
X4771048Y-24644904D01*
X4771048Y-24644904D02*
X4790096Y-24635380D01*
X4790096Y-24635380D02*
X4799620Y-24625856D01*
X4799620Y-24625856D02*
X4818668Y-24597285D01*
X4818668Y-24597285D02*
X4828191Y-24559189D01*
X4828191Y-24559189D02*
X4828191Y-24482999D01*
X4828191Y-24482999D02*
X4818668Y-24463951D01*
X4818668Y-24463951D02*
X4809144Y-24454428D01*
X4809144Y-24454428D02*
X4790096Y-24444904D01*
X4790096Y-24444904D02*
X4752001Y-24444904D01*
X4752001Y-24444904D02*
X4732953Y-24454428D01*
X4732953Y-24454428D02*
X4723429Y-24463951D01*
X4723429Y-24463951D02*
X4713906Y-24482999D01*
X4713906Y-24482999D02*
X4713906Y-24530618D01*
X4713906Y-24530618D02*
X4723429Y-24549666D01*
X4723429Y-24549666D02*
X4732953Y-24559189D01*
X4732953Y-24559189D02*
X4752001Y-24568713D01*
X4752001Y-24568713D02*
X4790096Y-24568713D01*
X4790096Y-24568713D02*
X4809144Y-24559189D01*
X4809144Y-24559189D02*
X4818668Y-24549666D01*
X4818668Y-24549666D02*
X4828191Y-24530618D01*
X4999620Y-24444904D02*
X4961525Y-24444904D01*
X4961525Y-24444904D02*
X4942477Y-24454428D01*
X4942477Y-24454428D02*
X4932953Y-24463951D01*
X4932953Y-24463951D02*
X4913906Y-24492523D01*
X4913906Y-24492523D02*
X4904382Y-24530618D01*
X4904382Y-24530618D02*
X4904382Y-24606808D01*
X4904382Y-24606808D02*
X4913906Y-24625856D01*
X4913906Y-24625856D02*
X4923429Y-24635380D01*
X4923429Y-24635380D02*
X4942477Y-24644904D01*
X4942477Y-24644904D02*
X4980572Y-24644904D01*
X4980572Y-24644904D02*
X4999620Y-24635380D01*
X4999620Y-24635380D02*
X5009144Y-24625856D01*
X5009144Y-24625856D02*
X5018668Y-24606808D01*
X5018668Y-24606808D02*
X5018668Y-24559189D01*
X5018668Y-24559189D02*
X5009144Y-24540142D01*
X5009144Y-24540142D02*
X4999620Y-24530618D01*
X4999620Y-24530618D02*
X4980572Y-24521094D01*
X4980572Y-24521094D02*
X4942477Y-24521094D01*
X4942477Y-24521094D02*
X4923429Y-24530618D01*
X4923429Y-24530618D02*
X4913906Y-24540142D01*
X4913906Y-24540142D02*
X4904382Y-24559189D01*
X5113906Y-24644904D02*
X5152001Y-24644904D01*
X5152001Y-24644904D02*
X5171049Y-24635380D01*
X5171049Y-24635380D02*
X5180572Y-24625856D01*
X5180572Y-24625856D02*
X5199620Y-24597285D01*
X5199620Y-24597285D02*
X5209144Y-24559189D01*
X5209144Y-24559189D02*
X5209144Y-24482999D01*
X5209144Y-24482999D02*
X5199620Y-24463951D01*
X5199620Y-24463951D02*
X5190096Y-24454428D01*
X5190096Y-24454428D02*
X5171049Y-24444904D01*
X5171049Y-24444904D02*
X5132953Y-24444904D01*
X5132953Y-24444904D02*
X5113906Y-24454428D01*
X5113906Y-24454428D02*
X5104382Y-24463951D01*
X5104382Y-24463951D02*
X5094858Y-24482999D01*
X5094858Y-24482999D02*
X5094858Y-24530618D01*
X5094858Y-24530618D02*
X5104382Y-24549666D01*
X5104382Y-24549666D02*
X5113906Y-24559189D01*
X5113906Y-24559189D02*
X5132953Y-24568713D01*
X5132953Y-24568713D02*
X5171049Y-24568713D01*
X5171049Y-24568713D02*
X5190096Y-24559189D01*
X5190096Y-24559189D02*
X5199620Y-24549666D01*
X5199620Y-24549666D02*
X5209144Y-24530618D01*
X5285334Y-24444904D02*
X5285334Y-24482999D01*
X5361525Y-24444904D02*
X5361525Y-24482999D01*
X5656763Y-24721094D02*
X5647239Y-24711570D01*
X5647239Y-24711570D02*
X5628191Y-24682999D01*
X5628191Y-24682999D02*
X5618668Y-24663951D01*
X5618668Y-24663951D02*
X5609144Y-24635380D01*
X5609144Y-24635380D02*
X5599620Y-24587761D01*
X5599620Y-24587761D02*
X5599620Y-24549666D01*
X5599620Y-24549666D02*
X5609144Y-24502047D01*
X5609144Y-24502047D02*
X5618668Y-24473475D01*
X5618668Y-24473475D02*
X5628191Y-24454428D01*
X5628191Y-24454428D02*
X5647239Y-24425856D01*
X5647239Y-24425856D02*
X5656763Y-24416332D01*
X5723429Y-24463951D02*
X5732953Y-24454428D01*
X5732953Y-24454428D02*
X5752001Y-24444904D01*
X5752001Y-24444904D02*
X5799620Y-24444904D01*
X5799620Y-24444904D02*
X5818668Y-24454428D01*
X5818668Y-24454428D02*
X5828191Y-24463951D01*
X5828191Y-24463951D02*
X5837715Y-24482999D01*
X5837715Y-24482999D02*
X5837715Y-24502047D01*
X5837715Y-24502047D02*
X5828191Y-24530618D01*
X5828191Y-24530618D02*
X5713906Y-24644904D01*
X5713906Y-24644904D02*
X5837715Y-24644904D01*
X6075810Y-24644904D02*
X6075810Y-24444904D01*
X6161525Y-24644904D02*
X6161525Y-24540142D01*
X6161525Y-24540142D02*
X6152001Y-24521094D01*
X6152001Y-24521094D02*
X6132953Y-24511570D01*
X6132953Y-24511570D02*
X6104382Y-24511570D01*
X6104382Y-24511570D02*
X6085334Y-24521094D01*
X6085334Y-24521094D02*
X6075810Y-24530618D01*
X6285334Y-24644904D02*
X6266287Y-24635380D01*
X6266287Y-24635380D02*
X6256763Y-24625856D01*
X6256763Y-24625856D02*
X6247239Y-24606808D01*
X6247239Y-24606808D02*
X6247239Y-24549666D01*
X6247239Y-24549666D02*
X6256763Y-24530618D01*
X6256763Y-24530618D02*
X6266287Y-24521094D01*
X6266287Y-24521094D02*
X6285334Y-24511570D01*
X6285334Y-24511570D02*
X6313906Y-24511570D01*
X6313906Y-24511570D02*
X6332953Y-24521094D01*
X6332953Y-24521094D02*
X6342477Y-24530618D01*
X6342477Y-24530618D02*
X6352001Y-24549666D01*
X6352001Y-24549666D02*
X6352001Y-24606808D01*
X6352001Y-24606808D02*
X6342477Y-24625856D01*
X6342477Y-24625856D02*
X6332953Y-24635380D01*
X6332953Y-24635380D02*
X6313906Y-24644904D01*
X6313906Y-24644904D02*
X6285334Y-24644904D01*
X6466287Y-24644904D02*
X6447239Y-24635380D01*
X6447239Y-24635380D02*
X6437715Y-24616332D01*
X6437715Y-24616332D02*
X6437715Y-24444904D01*
X6618668Y-24635380D02*
X6599620Y-24644904D01*
X6599620Y-24644904D02*
X6561525Y-24644904D01*
X6561525Y-24644904D02*
X6542477Y-24635380D01*
X6542477Y-24635380D02*
X6532953Y-24616332D01*
X6532953Y-24616332D02*
X6532953Y-24540142D01*
X6532953Y-24540142D02*
X6542477Y-24521094D01*
X6542477Y-24521094D02*
X6561525Y-24511570D01*
X6561525Y-24511570D02*
X6599620Y-24511570D01*
X6599620Y-24511570D02*
X6618668Y-24521094D01*
X6618668Y-24521094D02*
X6628191Y-24540142D01*
X6628191Y-24540142D02*
X6628191Y-24559189D01*
X6628191Y-24559189D02*
X6532953Y-24578237D01*
X6704382Y-24635380D02*
X6723430Y-24644904D01*
X6723430Y-24644904D02*
X6761525Y-24644904D01*
X6761525Y-24644904D02*
X6780572Y-24635380D01*
X6780572Y-24635380D02*
X6790096Y-24616332D01*
X6790096Y-24616332D02*
X6790096Y-24606808D01*
X6790096Y-24606808D02*
X6780572Y-24587761D01*
X6780572Y-24587761D02*
X6761525Y-24578237D01*
X6761525Y-24578237D02*
X6732953Y-24578237D01*
X6732953Y-24578237D02*
X6713906Y-24568713D01*
X6713906Y-24568713D02*
X6704382Y-24549666D01*
X6704382Y-24549666D02*
X6704382Y-24540142D01*
X6704382Y-24540142D02*
X6713906Y-24521094D01*
X6713906Y-24521094D02*
X6732953Y-24511570D01*
X6732953Y-24511570D02*
X6761525Y-24511570D01*
X6761525Y-24511570D02*
X6780572Y-24521094D01*
X6856763Y-24721094D02*
X6866287Y-24711570D01*
X6866287Y-24711570D02*
X6885334Y-24682999D01*
X6885334Y-24682999D02*
X6894858Y-24663951D01*
X6894858Y-24663951D02*
X6904382Y-24635380D01*
X6904382Y-24635380D02*
X6913906Y-24587761D01*
X6913906Y-24587761D02*
X6913906Y-24549666D01*
X6913906Y-24549666D02*
X6904382Y-24502047D01*
X6904382Y-24502047D02*
X6894858Y-24473475D01*
X6894858Y-24473475D02*
X6885334Y-24454428D01*
X6885334Y-24454428D02*
X6866287Y-24425856D01*
X6866287Y-24425856D02*
X6856763Y-24416332D01*
X7218668Y-24721094D02*
X7209144Y-24711570D01*
X7209144Y-24711570D02*
X7190096Y-24682999D01*
X7190096Y-24682999D02*
X7180572Y-24663951D01*
X7180572Y-24663951D02*
X7171049Y-24635380D01*
X7171049Y-24635380D02*
X7161525Y-24587761D01*
X7161525Y-24587761D02*
X7161525Y-24549666D01*
X7161525Y-24549666D02*
X7171049Y-24502047D01*
X7171049Y-24502047D02*
X7180572Y-24473475D01*
X7180572Y-24473475D02*
X7190096Y-24454428D01*
X7190096Y-24454428D02*
X7209144Y-24425856D01*
X7209144Y-24425856D02*
X7218668Y-24416332D01*
X7294858Y-24511570D02*
X7294858Y-24644904D01*
X7294858Y-24530618D02*
X7304382Y-24521094D01*
X7304382Y-24521094D02*
X7323430Y-24511570D01*
X7323430Y-24511570D02*
X7352001Y-24511570D01*
X7352001Y-24511570D02*
X7371049Y-24521094D01*
X7371049Y-24521094D02*
X7380572Y-24540142D01*
X7380572Y-24540142D02*
X7380572Y-24644904D01*
X7504382Y-24644904D02*
X7485334Y-24635380D01*
X7485334Y-24635380D02*
X7475811Y-24625856D01*
X7475811Y-24625856D02*
X7466287Y-24606808D01*
X7466287Y-24606808D02*
X7466287Y-24549666D01*
X7466287Y-24549666D02*
X7475811Y-24530618D01*
X7475811Y-24530618D02*
X7485334Y-24521094D01*
X7485334Y-24521094D02*
X7504382Y-24511570D01*
X7504382Y-24511570D02*
X7532953Y-24511570D01*
X7532953Y-24511570D02*
X7552001Y-24521094D01*
X7552001Y-24521094D02*
X7561525Y-24530618D01*
X7561525Y-24530618D02*
X7571049Y-24549666D01*
X7571049Y-24549666D02*
X7571049Y-24606808D01*
X7571049Y-24606808D02*
X7561525Y-24625856D01*
X7561525Y-24625856D02*
X7552001Y-24635380D01*
X7552001Y-24635380D02*
X7532953Y-24644904D01*
X7532953Y-24644904D02*
X7504382Y-24644904D01*
X7628192Y-24511570D02*
X7704382Y-24511570D01*
X7656763Y-24444904D02*
X7656763Y-24616332D01*
X7656763Y-24616332D02*
X7666287Y-24635380D01*
X7666287Y-24635380D02*
X7685334Y-24644904D01*
X7685334Y-24644904D02*
X7704382Y-24644904D01*
X7923430Y-24511570D02*
X7923430Y-24711570D01*
X7923430Y-24521094D02*
X7942477Y-24511570D01*
X7942477Y-24511570D02*
X7980573Y-24511570D01*
X7980573Y-24511570D02*
X7999620Y-24521094D01*
X7999620Y-24521094D02*
X8009144Y-24530618D01*
X8009144Y-24530618D02*
X8018668Y-24549666D01*
X8018668Y-24549666D02*
X8018668Y-24606808D01*
X8018668Y-24606808D02*
X8009144Y-24625856D01*
X8009144Y-24625856D02*
X7999620Y-24635380D01*
X7999620Y-24635380D02*
X7980573Y-24644904D01*
X7980573Y-24644904D02*
X7942477Y-24644904D01*
X7942477Y-24644904D02*
X7923430Y-24635380D01*
X8132953Y-24644904D02*
X8113906Y-24635380D01*
X8113906Y-24635380D02*
X8104382Y-24616332D01*
X8104382Y-24616332D02*
X8104382Y-24444904D01*
X8294858Y-24644904D02*
X8294858Y-24540142D01*
X8294858Y-24540142D02*
X8285334Y-24521094D01*
X8285334Y-24521094D02*
X8266287Y-24511570D01*
X8266287Y-24511570D02*
X8228192Y-24511570D01*
X8228192Y-24511570D02*
X8209144Y-24521094D01*
X8294858Y-24635380D02*
X8275811Y-24644904D01*
X8275811Y-24644904D02*
X8228192Y-24644904D01*
X8228192Y-24644904D02*
X8209144Y-24635380D01*
X8209144Y-24635380D02*
X8199620Y-24616332D01*
X8199620Y-24616332D02*
X8199620Y-24597285D01*
X8199620Y-24597285D02*
X8209144Y-24578237D01*
X8209144Y-24578237D02*
X8228192Y-24568713D01*
X8228192Y-24568713D02*
X8275811Y-24568713D01*
X8275811Y-24568713D02*
X8294858Y-24559189D01*
X8361525Y-24511570D02*
X8437715Y-24511570D01*
X8390096Y-24444904D02*
X8390096Y-24616332D01*
X8390096Y-24616332D02*
X8399620Y-24635380D01*
X8399620Y-24635380D02*
X8418668Y-24644904D01*
X8418668Y-24644904D02*
X8437715Y-24644904D01*
X8580573Y-24635380D02*
X8561525Y-24644904D01*
X8561525Y-24644904D02*
X8523430Y-24644904D01*
X8523430Y-24644904D02*
X8504382Y-24635380D01*
X8504382Y-24635380D02*
X8494858Y-24616332D01*
X8494858Y-24616332D02*
X8494858Y-24540142D01*
X8494858Y-24540142D02*
X8504382Y-24521094D01*
X8504382Y-24521094D02*
X8523430Y-24511570D01*
X8523430Y-24511570D02*
X8561525Y-24511570D01*
X8561525Y-24511570D02*
X8580573Y-24521094D01*
X8580573Y-24521094D02*
X8590096Y-24540142D01*
X8590096Y-24540142D02*
X8590096Y-24559189D01*
X8590096Y-24559189D02*
X8494858Y-24578237D01*
X8761525Y-24644904D02*
X8761525Y-24444904D01*
X8761525Y-24635380D02*
X8742477Y-24644904D01*
X8742477Y-24644904D02*
X8704382Y-24644904D01*
X8704382Y-24644904D02*
X8685335Y-24635380D01*
X8685335Y-24635380D02*
X8675811Y-24625856D01*
X8675811Y-24625856D02*
X8666287Y-24606808D01*
X8666287Y-24606808D02*
X8666287Y-24549666D01*
X8666287Y-24549666D02*
X8675811Y-24530618D01*
X8675811Y-24530618D02*
X8685335Y-24521094D01*
X8685335Y-24521094D02*
X8704382Y-24511570D01*
X8704382Y-24511570D02*
X8742477Y-24511570D01*
X8742477Y-24511570D02*
X8761525Y-24521094D01*
X8837716Y-24721094D02*
X8847239Y-24711570D01*
X8847239Y-24711570D02*
X8866287Y-24682999D01*
X8866287Y-24682999D02*
X8875811Y-24663951D01*
X8875811Y-24663951D02*
X8885335Y-24635380D01*
X8885335Y-24635380D02*
X8894858Y-24587761D01*
X8894858Y-24587761D02*
X8894858Y-24549666D01*
X8894858Y-24549666D02*
X8885335Y-24502047D01*
X8885335Y-24502047D02*
X8875811Y-24473475D01*
X8875811Y-24473475D02*
X8866287Y-24454428D01*
X8866287Y-24454428D02*
X8847239Y-24425856D01*
X8847239Y-24425856D02*
X8837716Y-24416332D01*
M02*
