%TF.GenerationSoftware,KiCad,Pcbnew,8.0.2*%
%TF.CreationDate,2024-05-14T20:54:04+07:00*%
%TF.ProjectId,HW.ACIM-PSU,48572e41-4349-44d2-9d50-53552e6b6963,0.0*%
%TF.SameCoordinates,Original*%
%TF.FileFunction,Legend,Bot*%
%TF.FilePolarity,Positive*%
%FSLAX46Y46*%
G04 Gerber Fmt 4.6, Leading zero omitted, Abs format (unit mm)*
G04 Created by KiCad (PCBNEW 8.0.2) date 2024-05-14 20:54:04*
%MOMM*%
%LPD*%
G01*
G04 APERTURE LIST*
%ADD10C,0.154000*%
%ADD11C,0.100000*%
G04 APERTURE END LIST*
D10*
%TO.C,U11*%
X102767099Y-98112901D02*
X102767099Y-96912899D01*
X104967099Y-98112901D02*
X104967099Y-96912899D01*
%TO.C,C52*%
X52327100Y-218849200D02*
X51427100Y-218849200D01*
%TO.C,R2*%
X34443999Y-189893101D02*
X34443999Y-190093101D01*
X35443999Y-189893101D02*
X35443999Y-190093101D01*
%TO.C,C34*%
X51827100Y-224249200D02*
X50927100Y-224249200D01*
%TO.C,R23*%
X96917100Y-131064201D02*
X97117100Y-131064201D01*
X96917100Y-132064201D02*
X97117100Y-132064201D01*
%TO.C,D3*%
X54844000Y-126118100D02*
X54844000Y-127518100D01*
X56044000Y-126118100D02*
X54444000Y-126118100D01*
X56044000Y-127518100D02*
X54444000Y-127518100D01*
%TO.C,U8*%
X68344000Y-145268100D02*
X68344000Y-144868099D01*
X68344000Y-145668100D02*
X68344000Y-146068101D01*
X70544000Y-144868099D02*
X70544000Y-146068101D01*
%TO.C,C27*%
X44327100Y-224249200D02*
X43427100Y-224249200D01*
%TO.C,R14*%
X89717100Y-133564199D02*
X89717100Y-133364199D01*
X90717100Y-133564199D02*
X90717100Y-133364199D01*
%TO.C,C45*%
X46627100Y-221549200D02*
X47527100Y-221549200D01*
%TO.C,C42*%
X105317100Y-130414201D02*
X105317100Y-129514201D01*
%TO.C,U3*%
X38477100Y-217349200D02*
X37977100Y-217349200D01*
X39077100Y-217349200D02*
X39577100Y-217349200D01*
X39577100Y-220349200D02*
X37977100Y-220349200D01*
%TO.C,R21*%
X96917100Y-129464201D02*
X97117100Y-129464201D01*
X96917100Y-130464201D02*
X97117100Y-130464201D01*
%TO.C,D2*%
X54844000Y-131818100D02*
X54844000Y-133218100D01*
X56044000Y-131818100D02*
X54444000Y-131818100D01*
X56044000Y-133218100D02*
X54444000Y-133218100D01*
%TO.C,R34*%
X66267099Y-114239200D02*
X66267099Y-114039200D01*
X67267099Y-114239200D02*
X67267099Y-114039200D01*
%TO.C,R29*%
X44977100Y-218749200D02*
X44977100Y-218949200D01*
X45977100Y-218749200D02*
X45977100Y-218949200D01*
%TO.C,C24*%
X38777100Y-221199200D02*
X38777100Y-222099200D01*
%TO.C,R46*%
X52977100Y-218949200D02*
X52977100Y-218749200D01*
X53977100Y-218949200D02*
X53977100Y-218749200D01*
%TO.C,C29*%
X43427100Y-218849200D02*
X44327100Y-218849200D01*
%TO.C,R6*%
X28977100Y-231199200D02*
X28977100Y-231399200D01*
X29977100Y-231199200D02*
X29977100Y-231399200D01*
%TO.C,R56*%
X87767099Y-114239200D02*
X87767099Y-114039200D01*
X88767099Y-114239200D02*
X88767099Y-114039200D01*
%TO.C,R24*%
X105217100Y-132664201D02*
X105417100Y-132664201D01*
X105217100Y-133664201D02*
X105417100Y-133664201D01*
%TO.C,C22*%
X35527100Y-221549200D02*
X34627100Y-221549200D01*
%TO.C,C30*%
X45927100Y-224249200D02*
X45027100Y-224249200D01*
%TO.C,C51*%
X49827100Y-221549200D02*
X50727100Y-221549200D01*
%TO.C,R12*%
X31994000Y-164018100D02*
X32194000Y-164018100D01*
X31994000Y-165018100D02*
X32194000Y-165018100D01*
%TO.C,C63*%
X90317099Y-114139200D02*
X89417099Y-114139200D01*
%TO.C,R55*%
X86167099Y-114239200D02*
X86167099Y-114039200D01*
X87167099Y-114239200D02*
X87167099Y-114039200D01*
%TO.C,C23*%
X34627100Y-218849200D02*
X35527100Y-218849200D01*
%TO.C,U5*%
X98767100Y-129164201D02*
X98767100Y-132364201D01*
X103567100Y-129164201D02*
X103567100Y-130364201D01*
X103567100Y-131364201D02*
X103567100Y-132364201D01*
%TO.C,C37*%
X89417100Y-125939200D02*
X89417100Y-126839200D01*
%TO.C,R26*%
X105217100Y-127864201D02*
X105417100Y-127864201D01*
X105217100Y-128864201D02*
X105417100Y-128864201D01*
%TO.C,R5*%
X28977100Y-228499200D02*
X28977100Y-228699200D01*
X29977100Y-228499200D02*
X29977100Y-228699200D01*
%TO.C,C55*%
X53027100Y-221549200D02*
X53927100Y-221549200D01*
%TO.C,R64*%
X106517100Y-94412900D02*
X106717100Y-94412900D01*
X106517100Y-95412900D02*
X106717100Y-95412900D01*
%TO.C,C32*%
X29027100Y-225899200D02*
X29927100Y-225899200D01*
%TO.C,Q1*%
X53794000Y-129018100D02*
X53794000Y-129918100D01*
X53819000Y-129018100D02*
X54494000Y-129018100D01*
X55044000Y-130318100D02*
X55444000Y-130318100D01*
X55994000Y-129018100D02*
X56694000Y-129018100D01*
X56694000Y-129018100D02*
X56694000Y-129918100D01*
%TO.C,C25*%
X42727100Y-224249200D02*
X41827100Y-224249200D01*
%TO.C,FT2*%
X43377100Y-221649200D02*
X43377100Y-221449200D01*
X43877100Y-221649200D02*
X43877100Y-221449200D01*
X44377100Y-221649200D02*
X44377100Y-221449200D01*
%TO.C,R63*%
X109217100Y-94412900D02*
X109417100Y-94412900D01*
X109217100Y-95412900D02*
X109417100Y-95412900D01*
D11*
%TO.C,U2*%
X37277100Y-222749200D02*
X40277100Y-222749200D01*
X37977100Y-225749200D02*
X37277100Y-225749200D01*
X38777100Y-225749200D02*
X40277100Y-225749200D01*
D10*
%TO.C,FT3*%
X70944000Y-137268100D02*
X70944000Y-137068100D01*
X71444000Y-137268100D02*
X71444000Y-137068100D01*
X71944000Y-137268100D02*
X71944000Y-137068100D01*
%TO.C,Q4*%
X95867100Y-127164201D02*
X95867100Y-127564201D01*
X97167099Y-128114201D02*
X97167100Y-128814201D01*
X97167100Y-125914201D02*
X96267100Y-125914201D01*
X97167100Y-125939201D02*
X97167099Y-126614201D01*
X97167100Y-128814201D02*
X96267100Y-128814201D01*
%TO.C,C71*%
X104017099Y-100662900D02*
X104917099Y-100662900D01*
%TO.C,R66*%
X101117099Y-94412900D02*
X101317099Y-94412900D01*
X101117099Y-95412900D02*
X101317099Y-95412900D01*
%TO.C,R48*%
X72694000Y-146018100D02*
X72494000Y-146018100D01*
X72694000Y-147018100D02*
X72494000Y-147018100D01*
%TO.C,U10*%
X92317099Y-109889200D02*
X91917098Y-109889200D01*
X92717099Y-109889200D02*
X93117100Y-109889200D01*
X93117100Y-112089200D02*
X91917098Y-112089200D01*
%TO.C,D4*%
X34244000Y-166318100D02*
X34244000Y-167918100D01*
X34244000Y-167518100D02*
X35644000Y-167518100D01*
X35644000Y-166318100D02*
X35644000Y-167918100D01*
%TO.C,C60*%
X89667099Y-110539200D02*
X90567099Y-110539200D01*
%TO.C,R58*%
X90967099Y-114239200D02*
X90967099Y-114039200D01*
X91967099Y-114239200D02*
X91967099Y-114039200D01*
%TO.C,R3*%
X25777100Y-231399200D02*
X25777100Y-231199200D01*
X26777100Y-231399200D02*
X26777100Y-231199200D01*
%TO.C,R16*%
X88117100Y-133564199D02*
X88117100Y-133364199D01*
X89117100Y-133564199D02*
X89117100Y-133364199D01*
%TO.C,R11*%
X52144000Y-129768100D02*
X52144000Y-129568100D01*
X53144000Y-129768100D02*
X53144000Y-129568100D01*
%TO.C,FT4*%
X49327100Y-223749200D02*
X49127100Y-223749200D01*
X49327100Y-224249200D02*
X49127100Y-224249200D01*
X49327100Y-224749200D02*
X49127100Y-224749200D01*
%TO.C,C17*%
X29027100Y-223199200D02*
X29927100Y-223199200D01*
%TO.C,U4*%
X88217100Y-130889200D02*
X88217100Y-127889200D01*
X90617100Y-129389200D02*
X90617100Y-127889200D01*
X90617100Y-130889200D02*
X90617101Y-130189200D01*
%TO.C,C41*%
X105317100Y-132014201D02*
X105317100Y-131114201D01*
%TO.C,C70*%
X100117099Y-100662900D02*
X99217099Y-100662900D01*
%TO.C,C19*%
X30677100Y-223249200D02*
X30677100Y-222649200D01*
X30677100Y-225849200D02*
X30677100Y-223949200D01*
X33877100Y-223249200D02*
X33877100Y-222649200D01*
X33877100Y-225849200D02*
X33877100Y-223949200D01*
%TO.C,D12*%
X65317099Y-110789200D02*
X65317099Y-111189200D01*
X66617098Y-111739200D02*
X66617099Y-112439200D01*
X66617099Y-109539200D02*
X65717099Y-109539200D01*
X66617099Y-109564200D02*
X66617098Y-110239200D01*
X66617099Y-112439200D02*
X65717099Y-112439200D01*
%TO.C,R22*%
X94217100Y-131064201D02*
X94417100Y-131064201D01*
X94217100Y-132064201D02*
X94417100Y-132064201D01*
%TO.C,L3*%
X29527100Y-215949200D02*
X29527100Y-214949200D01*
X29527100Y-219949200D02*
X29527100Y-218949200D01*
X30277100Y-214449200D02*
X28777100Y-214449200D01*
X30277100Y-220449200D02*
X28777100Y-220449200D01*
X29527100Y-216949201D02*
G75*
G02*
X29527100Y-215949201I-1J500000D01*
G01*
X29527100Y-217949199D02*
G75*
G02*
X29527100Y-216949201I0J499999D01*
G01*
X29527100Y-218949200D02*
G75*
G02*
X29527100Y-217949198I12J500001D01*
G01*
%TO.C,C20*%
X34627100Y-224249200D02*
X35527100Y-224249200D01*
%TO.C,C31*%
X47527100Y-224249200D02*
X46627100Y-224249200D01*
%TO.C,C38*%
X24527100Y-228599200D02*
X23627100Y-228599200D01*
%TO.C,R73*%
X100767099Y-100562900D02*
X100767099Y-100762900D01*
X101767099Y-100562900D02*
X101767099Y-100762900D01*
%TO.C,C26*%
X41827100Y-218849200D02*
X42727100Y-218849200D01*
%TO.C,C33*%
X53427100Y-224249200D02*
X52527100Y-224249200D01*
%TO.C,R13*%
X32194000Y-169218100D02*
X31994000Y-169218100D01*
X32194000Y-170218100D02*
X31994000Y-170218100D01*
%TO.C,C50*%
X72594000Y-145368100D02*
X72594000Y-144468100D01*
%TO.C,C58*%
X72594000Y-147668100D02*
X72594000Y-148568100D01*
%TO.C,C66*%
X98517099Y-94462900D02*
X98517099Y-95362900D01*
%TO.C,C47*%
X68167099Y-110539200D02*
X69067099Y-110539200D01*
%TO.C,D16*%
X86817099Y-110789200D02*
X86817099Y-111189200D01*
X88117098Y-111739200D02*
X88117099Y-112439200D01*
X88117099Y-109539200D02*
X87217099Y-109539200D01*
X88117099Y-109564200D02*
X88117098Y-110239200D01*
X88117099Y-112439200D02*
X87217099Y-112439200D01*
%TO.C,C57*%
X68817099Y-114139200D02*
X67917099Y-114139200D01*
%TO.C,R33*%
X64667099Y-114239200D02*
X64667099Y-114039200D01*
X65667099Y-114239200D02*
X65667099Y-114039200D01*
D11*
%TO.C,U1*%
X25177100Y-227799200D02*
X25177100Y-224799200D01*
X28377100Y-225799200D02*
X28377100Y-224799200D01*
X28377100Y-226799200D02*
X28377100Y-227799200D01*
D10*
%TO.C,R35*%
X72694000Y-150818100D02*
X72494000Y-150818100D01*
X72694000Y-151818100D02*
X72494000Y-151818100D01*
%TO.C,C48*%
X68944000Y-148318100D02*
X68944000Y-147418100D01*
%TO.C,C8*%
X27427100Y-231299200D02*
X28327100Y-231299200D01*
%TO.C,R20*%
X94217100Y-129464201D02*
X94417100Y-129464201D01*
X94217100Y-130464201D02*
X94417100Y-130464201D01*
%TO.C,C13*%
X27327100Y-221349200D02*
X27327100Y-222249200D01*
%TO.C,D17*%
X98367099Y-96062900D02*
X99267099Y-96062900D01*
X98367099Y-98937900D02*
X98367100Y-98262900D01*
X98367099Y-98962900D02*
X99267099Y-98962900D01*
X98367100Y-96762900D02*
X98367099Y-96062900D01*
X99667099Y-97712900D02*
X99667099Y-97312900D01*
%TO.C,R45*%
X51377100Y-221449200D02*
X51377100Y-221649200D01*
X52377100Y-221449200D02*
X52377100Y-221649200D01*
%TO.C,D5*%
X28544000Y-166318100D02*
X28544000Y-167918100D01*
X28544000Y-167518100D02*
X29944000Y-167518100D01*
X29944000Y-166318100D02*
X29944000Y-167918100D01*
%TO.C,Q2*%
X31444000Y-165668100D02*
X32344000Y-165668100D01*
X31444000Y-168543100D02*
X31444001Y-167868100D01*
X31444000Y-168568100D02*
X32344000Y-168568100D01*
X31444001Y-166368100D02*
X31444000Y-165668100D01*
X32744000Y-167318100D02*
X32744000Y-166918100D01*
%TO.C,C62*%
X92617099Y-114139200D02*
X93517099Y-114139200D01*
%TO.C,U7*%
X70817099Y-109889200D02*
X70417098Y-109889200D01*
X71217099Y-109889200D02*
X71617100Y-109889200D01*
X71617100Y-112089200D02*
X70417098Y-112089200D01*
%TO.C,C67*%
X102117099Y-97512900D02*
X101217099Y-97512900D01*
%TO.C,R65*%
X103817100Y-94412900D02*
X104017100Y-94412900D01*
X103817100Y-95412900D02*
X104017100Y-95412900D01*
%TO.C,R1*%
X32443999Y-189893101D02*
X32443999Y-190093101D01*
X33443999Y-189893101D02*
X33443999Y-190093101D01*
%TO.C,R47*%
X69467099Y-114239200D02*
X69467099Y-114039200D01*
X70467099Y-114239200D02*
X70467099Y-114039200D01*
%TO.C,D13*%
X67994000Y-149868100D02*
X67994000Y-150768100D01*
X68019000Y-149868100D02*
X68694000Y-149868100D01*
X69244000Y-151168100D02*
X69644000Y-151168100D01*
X70194000Y-149868100D02*
X70894000Y-149868100D01*
X70894000Y-149868100D02*
X70894000Y-150768100D01*
%TO.C,C49*%
X71117099Y-114139200D02*
X72017099Y-114139200D01*
%TO.C,C46*%
X48227100Y-221549200D02*
X49127100Y-221549200D01*
%TO.C,R30*%
X44977100Y-221449200D02*
X44977100Y-221649200D01*
X45977100Y-221449200D02*
X45977100Y-221649200D01*
%TO.C,U6*%
X50077101Y-217699200D02*
X48877099Y-217699200D01*
X50077101Y-219899200D02*
X48877099Y-219899200D01*
%TO.C,R10*%
X57344000Y-129568100D02*
X57344000Y-129768100D01*
X58344000Y-129568100D02*
X58344000Y-129768100D01*
%TO.C,R74*%
X102367099Y-100762900D02*
X102367099Y-100562900D01*
X103367099Y-100762900D02*
X103367099Y-100562900D01*
%TO.C,Q5*%
X95867100Y-133964201D02*
X95867100Y-134364201D01*
X97167099Y-134914201D02*
X97167100Y-135614201D01*
X97167100Y-132714201D02*
X96267100Y-132714201D01*
X97167100Y-132739201D02*
X97167099Y-133414201D01*
X97167100Y-135614201D02*
X96267100Y-135614201D01*
%TO.C,R36*%
X72694000Y-149218100D02*
X72494000Y-149218100D01*
X72694000Y-150218100D02*
X72494000Y-150218100D01*
%TD*%
M02*
