%TF.GenerationSoftware,KiCad,Pcbnew,8.0.2*%
%TF.CreationDate,2024-05-14T20:54:04+07:00*%
%TF.ProjectId,HW.ACIM-PSU,48572e41-4349-44d2-9d50-53552e6b6963,0.0*%
%TF.SameCoordinates,Original*%
%TF.FileFunction,Soldermask,Top*%
%TF.FilePolarity,Negative*%
%FSLAX46Y46*%
G04 Gerber Fmt 4.6, Leading zero omitted, Abs format (unit mm)*
G04 Created by KiCad (PCBNEW 8.0.2) date 2024-05-14 20:54:04*
%MOMM*%
%LPD*%
G01*
G04 APERTURE LIST*
G04 Aperture macros list*
%AMRoundRect*
0 Rectangle with rounded corners*
0 $1 Rounding radius*
0 $2 $3 $4 $5 $6 $7 $8 $9 X,Y pos of 4 corners*
0 Add a 4 corners polygon primitive as box body*
4,1,4,$2,$3,$4,$5,$6,$7,$8,$9,$2,$3,0*
0 Add four circle primitives for the rounded corners*
1,1,$1+$1,$2,$3*
1,1,$1+$1,$4,$5*
1,1,$1+$1,$6,$7*
1,1,$1+$1,$8,$9*
0 Add four rect primitives between the rounded corners*
20,1,$1+$1,$2,$3,$4,$5,0*
20,1,$1+$1,$4,$5,$6,$7,0*
20,1,$1+$1,$6,$7,$8,$9,0*
20,1,$1+$1,$8,$9,$2,$3,0*%
%AMRotRect*
0 Rectangle, with rotation*
0 The origin of the aperture is its center*
0 $1 length*
0 $2 width*
0 $3 Rotation angle, in degrees counterclockwise*
0 Add horizontal line*
21,1,$1,$2,0,0,$3*%
%AMFreePoly0*
4,1,21,1.703536,2.003536,1.705000,2.000000,1.705000,0.750000,1.703536,0.746464,1.700000,0.745000,0.005000,0.745000,0.005000,-0.745000,1.700000,-0.745000,1.703536,-0.746464,1.705000,-0.750000,1.705000,-2.000000,1.703536,-2.003536,1.700000,-2.005000,-1.200000,-2.005000,-1.203536,-2.003536,-1.205000,-2.000000,-1.205000,2.000000,-1.203536,2.003536,-1.200000,2.005000,1.700000,2.005000,
1.703536,2.003536,1.703536,2.003536,$1*%
G04 Aperture macros list end*
%ADD10RoundRect,0.450000X-0.450000X0.450000X-0.450000X-0.450000X0.450000X-0.450000X0.450000X0.450000X0*%
%ADD11C,1.800000*%
%ADD12R,0.650000X1.000000*%
%ADD13R,0.600000X1.200000*%
%ADD14R,3.200000X3.200000*%
%ADD15C,3.200000*%
%ADD16R,1.000000X0.650000*%
%ADD17R,1.700000X0.900000*%
%ADD18C,2.600000*%
%ADD19R,3.000000X1.000000*%
%ADD20C,1.000000*%
%ADD21R,0.900000X1.700000*%
%ADD22R,0.600000X0.400000*%
%ADD23RoundRect,0.250000X-1.000000X-1.000000X1.000000X-1.000000X1.000000X1.000000X-1.000000X1.000000X0*%
%ADD24R,0.800000X0.800000*%
%ADD25C,2.200000*%
%ADD26C,2.500000*%
%ADD27C,1.500000*%
%ADD28R,0.600000X1.050000*%
%ADD29C,2.000000*%
%ADD30C,3.500000*%
%ADD31R,3.500000X3.500000*%
%ADD32R,0.600000X1.550000*%
%ADD33R,0.700000X0.700000*%
%ADD34R,1.300000X1.300000*%
%ADD35FreePoly0,90.000000*%
%ADD36FreePoly0,270.000000*%
%ADD37R,0.500000X1.200000*%
%ADD38C,1.600000*%
%ADD39R,0.600000X1.500000*%
%ADD40RotRect,1.500000X1.500000X225.000000*%
%ADD41C,1.700000*%
%ADD42R,1.700000X1.700000*%
%ADD43R,1.600000X3.400000*%
%ADD44R,0.900000X0.800000*%
%ADD45R,0.800000X1.400000*%
%ADD46R,1.500000X0.300000*%
%ADD47R,0.300000X1.500000*%
%ADD48RoundRect,0.150000X-0.600000X0.000010X-0.600000X-0.000010X0.600000X-0.000010X0.600000X0.000010X0*%
%ADD49R,1.400000X0.800000*%
%ADD50R,0.900000X1.000000*%
%ADD51R,1.500000X4.200000*%
%ADD52RoundRect,0.625000X0.625000X-0.625000X0.625000X0.625000X-0.625000X0.625000X-0.625000X-0.625000X0*%
%ADD53R,1.200000X1.850000*%
%ADD54FreePoly0,0.000000*%
%ADD55FreePoly0,180.000000*%
%ADD56R,1.200000X0.500000*%
%ADD57R,1.200000X1.100000*%
%ADD58RoundRect,0.450000X-0.450000X-0.450000X0.450000X-0.450000X0.450000X0.450000X-0.450000X0.450000X0*%
%ADD59R,2.500000X2.500000*%
%ADD60R,4.400000X2.200000*%
%ADD61RoundRect,0.150000X-0.200000X-0.000010X0.200000X-0.000010X0.200000X0.000010X-0.200000X0.000010X0*%
%ADD62C,5.000000*%
%ADD63RoundRect,0.250000X-1.250000X-1.250000X1.250000X-1.250000X1.250000X1.250000X-1.250000X1.250000X0*%
%ADD64C,3.000000*%
G04 APERTURE END LIST*
D10*
%TO.C,J2*%
X112167100Y-77132900D03*
D11*
X112167100Y-79672900D03*
X112167100Y-84752900D03*
X112167100Y-87292900D03*
X112167100Y-89832900D03*
X112167100Y-94912900D03*
X112167100Y-97452900D03*
X112167100Y-99992900D03*
%TD*%
D12*
%TO.C,R40*%
X33718998Y-202418100D03*
X32269000Y-202418100D03*
%TD*%
%TO.C,R39*%
X24168999Y-202418100D03*
X25618999Y-202418100D03*
%TD*%
%TO.C,R49*%
X25618998Y-209818100D03*
X24169000Y-209818100D03*
%TD*%
D10*
%TO.C,J3*%
X112167100Y-139165100D03*
D11*
X112167100Y-146785100D03*
X112167100Y-149325100D03*
X112167100Y-151865100D03*
X112167100Y-154405100D03*
X112167100Y-156945100D03*
%TD*%
D12*
%TO.C,R38*%
X32268999Y-200818100D03*
X33718999Y-200818100D03*
%TD*%
D13*
%TO.C,X1*%
X108818100Y-200184299D03*
X108818100Y-193884301D03*
X107918100Y-193884301D03*
X107918100Y-200184299D03*
%TD*%
D14*
%TO.C,J1*%
X51794000Y-83118100D03*
D15*
X42294000Y-83118100D03*
X32794000Y-83118100D03*
%TD*%
D12*
%TO.C,C9*%
X95692000Y-174783900D03*
X97142000Y-174783900D03*
%TD*%
D16*
%TO.C,R75*%
X109317000Y-172608901D03*
X109317000Y-174058899D03*
%TD*%
D17*
%TO.C,R69*%
X103518100Y-194154300D03*
X103518100Y-197154300D03*
%TD*%
D12*
%TO.C,R57*%
X30669002Y-214618099D03*
X32119000Y-214618099D03*
%TD*%
D18*
%TO.C,BR1*%
X58044000Y-179618100D03*
X58044000Y-169618100D03*
X58044000Y-162118100D03*
X58044000Y-154618100D03*
%TD*%
D12*
%TO.C,R53*%
X28318998Y-211418100D03*
X26869000Y-211418100D03*
%TD*%
D19*
%TO.C,C18*%
X96467000Y-157383900D03*
X91667000Y-157383900D03*
%TD*%
D12*
%TO.C,R17*%
X81642100Y-123389200D03*
X83092100Y-123389200D03*
%TD*%
D20*
%TO.C,TP5*%
X105768100Y-229604300D03*
%TD*%
D21*
%TO.C,C7*%
X52029000Y-101522100D03*
X55029000Y-101522100D03*
%TD*%
D12*
%TO.C,R54*%
X29568999Y-211418100D03*
X31018999Y-211418100D03*
%TD*%
%TO.C,R27*%
X101892099Y-123389200D03*
X100442101Y-123389200D03*
%TD*%
D22*
%TO.C,U9*%
X27593999Y-213168100D03*
X27594000Y-213818100D03*
X27593999Y-214468100D03*
X29493999Y-214468100D03*
X29493999Y-213168100D03*
%TD*%
D23*
%TO.C,J8*%
X72144000Y-173318100D03*
%TD*%
D12*
%TO.C,FT6*%
X87643099Y-208154300D03*
X86193101Y-208154300D03*
%TD*%
D24*
%TO.C,D18*%
X112867000Y-176933900D03*
X114367000Y-176933900D03*
%TD*%
D16*
%TO.C,R31*%
X27743999Y-200818100D03*
X27743999Y-199368102D03*
%TD*%
%TO.C,C68*%
X97568100Y-198329299D03*
X97568100Y-196879301D03*
%TD*%
D10*
%TO.C,J5*%
X112168100Y-191954299D03*
D11*
X112168100Y-194494300D03*
X112168100Y-197034300D03*
X112168100Y-199574300D03*
X112168100Y-202114299D03*
X112168100Y-204654301D03*
X112168100Y-207194300D03*
X112168100Y-209734300D03*
X112168100Y-212274300D03*
X112168100Y-214814301D03*
%TD*%
D12*
%TO.C,R52*%
X33718998Y-211418100D03*
X32269000Y-211418100D03*
%TD*%
D25*
%TO.C,F1*%
X23879000Y-77322100D03*
X23879000Y-81922100D03*
X23879000Y-93222100D03*
X23879000Y-97822100D03*
%TD*%
D12*
%TO.C,C40*%
X99492100Y-125189200D03*
X100942100Y-125189200D03*
%TD*%
D16*
%TO.C,R71*%
X102368100Y-192929299D03*
X102368100Y-191479301D03*
%TD*%
D26*
%TO.C,J7*%
X97417099Y-107239200D03*
%TD*%
D27*
%TO.C,M3*%
X45479000Y-97822100D03*
X46979000Y-92822100D03*
%TD*%
D28*
%TO.C,U13*%
X90518100Y-200804300D03*
X91468100Y-200804300D03*
X92418100Y-200804300D03*
X92418100Y-198104300D03*
X90518100Y-198104300D03*
%TD*%
D16*
%TO.C,C69*%
X88568100Y-201029299D03*
X88568100Y-199579301D03*
%TD*%
%TO.C,R61*%
X88568100Y-195629299D03*
X88568100Y-194179301D03*
%TD*%
D24*
%TO.C,D23*%
X112867000Y-186533900D03*
X114367000Y-186533900D03*
%TD*%
D16*
%TO.C,R67*%
X99168100Y-191479301D03*
X99168100Y-192929299D03*
%TD*%
D11*
%TO.C,B1*%
X27698935Y-185038165D03*
X32189063Y-180548037D03*
%TD*%
D26*
%TO.C,*%
X113617000Y-162233900D03*
%TD*%
D29*
%TO.C,RL2*%
X27943999Y-162018099D03*
X27943999Y-172218101D03*
D30*
X25244000Y-167118100D03*
X40643999Y-158218100D03*
X50743999Y-176018100D03*
X43143999Y-176018100D03*
%TD*%
D11*
%TO.C,C2*%
X37794000Y-105418100D03*
X22794000Y-105418100D03*
%TD*%
D12*
%TO.C,R50*%
X32268999Y-209818100D03*
X33718999Y-209818100D03*
%TD*%
D16*
%TO.C,C64*%
X100768100Y-191479301D03*
X100768100Y-192929299D03*
%TD*%
D20*
%TO.C,TP7*%
X62067100Y-87992900D03*
%TD*%
D12*
%TO.C,C82*%
X107743099Y-209604300D03*
X106293101Y-209604300D03*
%TD*%
D31*
%TO.C,C44*%
X92167100Y-92292900D03*
D30*
X92167100Y-82292900D03*
%TD*%
D20*
%TO.C,TP4*%
X32952100Y-217849200D03*
%TD*%
D12*
%TO.C,C79*%
X107743099Y-212404300D03*
X106293101Y-212404300D03*
%TD*%
%TO.C,C56*%
X29668998Y-209818100D03*
X28219000Y-209818100D03*
%TD*%
D32*
%TO.C,U15*%
X96223100Y-221154300D03*
X94953100Y-221154300D03*
X93689502Y-221158123D03*
X92413100Y-221154300D03*
X92413100Y-226554300D03*
X93683100Y-226554300D03*
X94953100Y-226554300D03*
X96223100Y-226554300D03*
%TD*%
D33*
%TO.C,D6*%
X80717100Y-125189200D03*
X83117100Y-125189200D03*
%TD*%
D16*
%TO.C,R83*%
X108068100Y-208179299D03*
X108068100Y-206729301D03*
%TD*%
D12*
%TO.C,C87*%
X90343099Y-208154300D03*
X88893101Y-208154300D03*
%TD*%
D34*
%TO.C,D1*%
X32377100Y-234649200D03*
X32377100Y-231449200D03*
%TD*%
D12*
%TO.C,R80*%
X112892000Y-170533900D03*
X114342000Y-170533900D03*
%TD*%
D35*
%TO.C,R15*%
X71444000Y-153368100D03*
D36*
X71444000Y-147668100D03*
D37*
X71444000Y-152268100D03*
X71444000Y-148768100D03*
%TD*%
D27*
%TO.C,M4*%
X45479000Y-107522100D03*
X46979000Y-102522100D03*
%TD*%
D16*
%TO.C,R79*%
X109317000Y-167258899D03*
X109317000Y-165808901D03*
%TD*%
D12*
%TO.C,C16*%
X93342000Y-161883900D03*
X94792000Y-161883900D03*
%TD*%
D17*
%TO.C,R9*%
X54729000Y-103522100D03*
X54729000Y-106522100D03*
%TD*%
D16*
%TO.C,R32*%
X30143999Y-200818100D03*
X30143999Y-199368102D03*
%TD*%
D26*
%TO.C,*%
X23117000Y-71734100D03*
%TD*%
D19*
%TO.C,C10*%
X93167000Y-172983900D03*
X88367000Y-172983900D03*
%TD*%
D28*
%TO.C,U12*%
X99518100Y-197104300D03*
X100468100Y-197104300D03*
X101418100Y-197104300D03*
X101418100Y-194404300D03*
X99518100Y-194404300D03*
%TD*%
D38*
%TO.C,C43*%
X68367100Y-77992900D03*
X68367100Y-87992900D03*
%TD*%
D21*
%TO.C,C3*%
X52029000Y-91422100D03*
X55029000Y-91422100D03*
%TD*%
D24*
%TO.C,D22*%
X114367000Y-219633900D03*
X112867000Y-219633900D03*
%TD*%
D12*
%TO.C,R85*%
X112892001Y-180133900D03*
X114341999Y-180133900D03*
%TD*%
D16*
%TO.C,C65*%
X91768100Y-194179301D03*
X91768100Y-195629299D03*
%TD*%
D21*
%TO.C,C12*%
X52029000Y-108522100D03*
X55029000Y-108522100D03*
%TD*%
D38*
%TO.C,BT1*%
X109842000Y-229183900D03*
X109842000Y-222683900D03*
X114342000Y-229183900D03*
X114342000Y-222683900D03*
%TD*%
D39*
%TO.C,U16*%
X103773100Y-220104300D03*
X102503100Y-220104300D03*
X101233100Y-220104300D03*
X99963100Y-220104300D03*
X99963100Y-227604300D03*
X101233100Y-227604300D03*
X102503100Y-227604300D03*
X103773100Y-227604300D03*
%TD*%
D12*
%TO.C,R77*%
X112892001Y-175333900D03*
X114341999Y-175333900D03*
%TD*%
D27*
%TO.C,BZ1*%
X102368903Y-162381997D03*
D40*
X106965097Y-157785803D03*
%TD*%
D16*
%TO.C,C77*%
X97923100Y-225104302D03*
X97923100Y-226554300D03*
%TD*%
D33*
%TO.C,D9*%
X102217100Y-125189200D03*
X104617100Y-125189200D03*
%TD*%
D11*
%TO.C,C11*%
X57094000Y-114118100D03*
X42094000Y-114118100D03*
%TD*%
D12*
%TO.C,C54*%
X29568999Y-205618100D03*
X31018999Y-205618100D03*
%TD*%
D17*
%TO.C,C15*%
X88917000Y-162083900D03*
X88917000Y-159083900D03*
%TD*%
%TO.C,R8*%
X56729000Y-103522100D03*
X56729000Y-106522100D03*
%TD*%
D41*
%TO.C,D8*%
X65067100Y-97832900D03*
D42*
X65067100Y-92752900D03*
%TD*%
D26*
%TO.C,*%
X23117001Y-233634099D03*
%TD*%
D12*
%TO.C,R18*%
X80392099Y-123389200D03*
X78942101Y-123389200D03*
%TD*%
D16*
%TO.C,R82*%
X110168100Y-213279301D03*
X110168100Y-214729299D03*
%TD*%
D43*
%TO.C,D7*%
X72717099Y-112989200D03*
X79417099Y-112989200D03*
%TD*%
D16*
%TO.C,C83*%
X99068100Y-218429299D03*
X99068100Y-216979301D03*
%TD*%
D38*
%TO.C,C28*%
X72144000Y-158718100D03*
X72144000Y-168718100D03*
%TD*%
D44*
%TO.C,Q8*%
X109317000Y-169183900D03*
X109314811Y-171084615D03*
X111516999Y-170133900D03*
%TD*%
D45*
%TO.C,L2*%
X97167000Y-172983900D03*
X95667000Y-172983900D03*
%TD*%
D33*
%TO.C,D19*%
X111267000Y-167733900D03*
X111267000Y-165333900D03*
%TD*%
D12*
%TO.C,R84*%
X112892000Y-184933900D03*
X114342000Y-184933900D03*
%TD*%
D46*
%TO.C,U14*%
X92618100Y-205254300D03*
X92618100Y-205754300D03*
X92618100Y-206254300D03*
X92618100Y-206754300D03*
X92618100Y-207254300D03*
X92618100Y-207754300D03*
X92618100Y-208254300D03*
X92618100Y-208754300D03*
X92618100Y-209254300D03*
X92618100Y-209754300D03*
X92618100Y-210254300D03*
X92618100Y-210754300D03*
X92618100Y-211254300D03*
X92618100Y-211754300D03*
X92618100Y-212254300D03*
X92618100Y-212754300D03*
D47*
X94568100Y-214704300D03*
X95068100Y-214704300D03*
X95568100Y-214704300D03*
X96068100Y-214704300D03*
X96568100Y-214704300D03*
X97068100Y-214704300D03*
X97568100Y-214704300D03*
X98068100Y-214704300D03*
X98568100Y-214704300D03*
X99068100Y-214704300D03*
X99568100Y-214704300D03*
X100068100Y-214704300D03*
X100568100Y-214704300D03*
X101068100Y-214704300D03*
X101568100Y-214704300D03*
X102068100Y-214704300D03*
D46*
X104018100Y-212754300D03*
X104018100Y-212254300D03*
X104018100Y-211754300D03*
D48*
X104018100Y-211254300D03*
X104018100Y-210754300D03*
D46*
X104018100Y-210254300D03*
X104018100Y-209754300D03*
X104018100Y-209254300D03*
X104018100Y-208754300D03*
X104018100Y-208254300D03*
X104018100Y-207754300D03*
X104018100Y-207254300D03*
X104018100Y-206754300D03*
X104018100Y-206254300D03*
X104018100Y-205754300D03*
X104018100Y-205254300D03*
D47*
X102068100Y-203304300D03*
X101568100Y-203304300D03*
X101068100Y-203304300D03*
X100568100Y-203304300D03*
X100068100Y-203304300D03*
X99568100Y-203304300D03*
X99068100Y-203304300D03*
X98568100Y-203304300D03*
X98068100Y-203304300D03*
X97568100Y-203304300D03*
X97068100Y-203304300D03*
X96568100Y-203304300D03*
X96068100Y-203304300D03*
X95568100Y-203304300D03*
X95068100Y-203304300D03*
X94568100Y-203304300D03*
%TD*%
D12*
%TO.C,R43*%
X24168999Y-205618100D03*
X25618999Y-205618100D03*
%TD*%
D49*
%TO.C,L1*%
X23943999Y-186893101D03*
X23943999Y-188393101D03*
%TD*%
D11*
%TO.C,C35*%
X64344000Y-153718100D03*
X64344000Y-168718100D03*
%TD*%
D50*
%TO.C,U17*%
X110168101Y-203354300D03*
X108068099Y-203354300D03*
X108068099Y-205254300D03*
X110168101Y-205254300D03*
%TD*%
D26*
%TO.C,*%
X68367000Y-71734100D03*
%TD*%
D12*
%TO.C,R81*%
X112892000Y-218033900D03*
X114342000Y-218033900D03*
%TD*%
D16*
%TO.C,C61*%
X33544000Y-213093100D03*
X33544000Y-214543098D03*
%TD*%
D20*
%TO.C,TP11*%
X24552100Y-217849200D03*
%TD*%
D41*
%TO.C,D11*%
X70667100Y-97832900D03*
D42*
X70667100Y-92752900D03*
%TD*%
D21*
%TO.C,C5*%
X52029000Y-94122100D03*
X55029000Y-94122100D03*
%TD*%
D51*
%TO.C,G1*%
X55779000Y-97822100D03*
X51279000Y-97822100D03*
%TD*%
D12*
%TO.C,R44*%
X33718998Y-205618100D03*
X32269000Y-205618100D03*
%TD*%
D27*
%TO.C,M2*%
X37479000Y-97822100D03*
X38979000Y-92822100D03*
%TD*%
D12*
%TO.C,C81*%
X107743099Y-214004300D03*
X106293101Y-214004300D03*
%TD*%
D52*
%TO.C,FT1*%
X22844000Y-130018100D03*
D26*
X38844000Y-130018100D03*
X22844000Y-126018100D03*
X38844000Y-126018100D03*
%TD*%
%TO.C,*%
X113617000Y-71734100D03*
%TD*%
D12*
%TO.C,R78*%
X114341999Y-165733900D03*
X112892001Y-165733900D03*
%TD*%
D16*
%TO.C,R72*%
X94368100Y-199579301D03*
X94368100Y-201029299D03*
%TD*%
D17*
%TO.C,R70*%
X94518100Y-197154300D03*
X94518100Y-194154300D03*
%TD*%
D53*
%TO.C,BR2*%
X27743999Y-203093101D03*
X27743999Y-197093101D03*
X30143999Y-197093101D03*
X30143999Y-203093101D03*
%TD*%
D16*
%TO.C,C73*%
X95968100Y-199579301D03*
X95968100Y-201029299D03*
%TD*%
D17*
%TO.C,R7*%
X52329000Y-106522100D03*
X52329000Y-103522100D03*
%TD*%
%TO.C,R4*%
X50329000Y-106522100D03*
X50329000Y-103522100D03*
%TD*%
D20*
%TO.C,TP8*%
X24552100Y-214249200D03*
%TD*%
D12*
%TO.C,R37*%
X25618998Y-200818100D03*
X24169000Y-200818100D03*
%TD*%
%TO.C,R76*%
X86193100Y-206554300D03*
X87643100Y-206554300D03*
%TD*%
D20*
%TO.C,TP14*%
X103968100Y-200304300D03*
%TD*%
D16*
%TO.C,C80*%
X95568100Y-218429299D03*
X95568100Y-216979301D03*
%TD*%
D12*
%TO.C,C36*%
X77992100Y-125189200D03*
X79442100Y-125189200D03*
%TD*%
D54*
%TO.C,R19*%
X63117099Y-112989200D03*
D55*
X68817099Y-112989200D03*
D56*
X64217099Y-112989200D03*
X67717099Y-112989200D03*
%TD*%
D16*
%TO.C,R68*%
X90168100Y-194179301D03*
X90168100Y-195629299D03*
%TD*%
D12*
%TO.C,R25*%
X103142100Y-123389200D03*
X104592100Y-123389200D03*
%TD*%
D20*
%TO.C,TP2*%
X114417100Y-104649200D03*
%TD*%
D12*
%TO.C,C59*%
X32118997Y-213018100D03*
X30668999Y-213018100D03*
%TD*%
D20*
%TO.C,TP12*%
X68244000Y-177218100D03*
%TD*%
D17*
%TO.C,C14*%
X87017000Y-162083900D03*
X87017000Y-159083900D03*
%TD*%
D24*
%TO.C,D20*%
X114367000Y-167333900D03*
X112867000Y-167333900D03*
%TD*%
D17*
%TO.C,C21*%
X42094000Y-132918100D03*
X42094000Y-135918100D03*
%TD*%
D16*
%TO.C,C4*%
X34477100Y-233774199D03*
X34477100Y-232324201D03*
%TD*%
D43*
%TO.C,D10*%
X94117099Y-112989200D03*
X100817099Y-112989200D03*
%TD*%
D57*
%TO.C,D14*%
X27643999Y-207718100D03*
X24443999Y-207718100D03*
%TD*%
D12*
%TO.C,C85*%
X88893100Y-209754300D03*
X90343100Y-209754300D03*
%TD*%
%TO.C,C86*%
X87643099Y-209754300D03*
X86193101Y-209754300D03*
%TD*%
D20*
%TO.C,TP1*%
X111667100Y-104649200D03*
%TD*%
D38*
%TO.C,C1*%
X33943999Y-192493101D03*
X23943999Y-192493101D03*
%TD*%
D16*
%TO.C,R59*%
X97568100Y-192929299D03*
X97568100Y-191479301D03*
%TD*%
D58*
%TO.C,MD2*%
X88357000Y-168083900D03*
D11*
X90897000Y-168083900D03*
X93437000Y-168083900D03*
X95977000Y-168083900D03*
%TD*%
D20*
%TO.C,TP10*%
X27352100Y-217849200D03*
%TD*%
D26*
%TO.C,J9*%
X74517099Y-107239200D03*
%TD*%
D24*
%TO.C,D24*%
X112867000Y-181733900D03*
X114367000Y-181733900D03*
%TD*%
D16*
%TO.C,C72*%
X97568100Y-199579301D03*
X97568100Y-201029299D03*
%TD*%
D54*
%TO.C,R28*%
X84617099Y-112989200D03*
D55*
X90317099Y-112989200D03*
D56*
X85717099Y-112989200D03*
X89217099Y-112989200D03*
%TD*%
D16*
%TO.C,C89*%
X110168100Y-196309301D03*
X110168100Y-197759299D03*
%TD*%
D20*
%TO.C,TP13*%
X69844000Y-156068100D03*
%TD*%
D16*
%TO.C,C74*%
X112167100Y-142390099D03*
X112167100Y-140940101D03*
%TD*%
%TO.C,C76*%
X105768100Y-226154302D03*
X105768100Y-227604300D03*
%TD*%
%TO.C,C78*%
X99168100Y-199579301D03*
X99168100Y-201029299D03*
%TD*%
D59*
%TO.C,MD1*%
X59687100Y-186229200D03*
D26*
X39367100Y-186229200D03*
X39367100Y-231949200D03*
X49527100Y-231949200D03*
X59687100Y-231949200D03*
%TD*%
D16*
%TO.C,C90*%
X110168100Y-208179299D03*
X110168100Y-206729301D03*
%TD*%
%TO.C,R62*%
X88568100Y-198329299D03*
X88568100Y-196879301D03*
%TD*%
%TO.C,C84*%
X106468100Y-206729301D03*
X106468100Y-208179299D03*
%TD*%
D60*
%TO.C,C6*%
X32727100Y-224799200D03*
X23827100Y-224799200D03*
%TD*%
D10*
%TO.C,J4*%
X112167100Y-108149200D03*
D11*
X112167100Y-110689200D03*
X112167100Y-118309200D03*
X112167100Y-120849200D03*
X112167100Y-123389200D03*
X112167100Y-125929200D03*
X112167100Y-128469200D03*
X112167100Y-131009200D03*
%TD*%
D16*
%TO.C,R60*%
X97568100Y-195629299D03*
X97568100Y-194179301D03*
%TD*%
D12*
%TO.C,C53*%
X28318998Y-205618100D03*
X26869000Y-205618100D03*
%TD*%
D20*
%TO.C,TP6*%
X93468100Y-217129301D03*
%TD*%
D12*
%TO.C,C75*%
X88893100Y-206554300D03*
X90343100Y-206554300D03*
%TD*%
D57*
%TO.C,D15*%
X30243999Y-207718100D03*
X33443999Y-207718100D03*
%TD*%
D27*
%TO.C,M1*%
X30979000Y-92822100D03*
X29479000Y-97822100D03*
%TD*%
D20*
%TO.C,TP3*%
X30152100Y-217849200D03*
%TD*%
D12*
%TO.C,R51*%
X24169000Y-211418100D03*
X25618998Y-211418100D03*
%TD*%
D26*
%TO.C,*%
X23117000Y-152684000D03*
%TD*%
D20*
%TO.C,TP9*%
X62067100Y-77992900D03*
%TD*%
D23*
%TO.C,J6*%
X64344000Y-173318100D03*
%TD*%
D61*
%TO.C,FT5*%
X109043100Y-210754300D03*
X110293100Y-210754300D03*
X110293100Y-211254300D03*
X109043100Y-211254300D03*
%TD*%
D26*
%TO.C,*%
X113617000Y-233634100D03*
%TD*%
D12*
%TO.C,R42*%
X32268999Y-204018100D03*
X33718999Y-204018100D03*
%TD*%
D20*
%TO.C,TP15*%
X101368100Y-200304300D03*
%TD*%
D16*
%TO.C,C88*%
X106568100Y-196309301D03*
X106568100Y-197759299D03*
%TD*%
D29*
%TO.C,RL1*%
X60344001Y-125518099D03*
X50143999Y-125518099D03*
D30*
X55244000Y-122818100D03*
X64144000Y-138218099D03*
X46344000Y-148318099D03*
X46344000Y-140718099D03*
%TD*%
D24*
%TO.C,D21*%
X114367000Y-172133900D03*
X112867000Y-172133900D03*
%TD*%
D44*
%TO.C,Q7*%
X109317000Y-175983900D03*
X109314811Y-177884615D03*
X111516999Y-176933900D03*
%TD*%
D12*
%TO.C,R41*%
X25618998Y-204018100D03*
X24169000Y-204018100D03*
%TD*%
D62*
%TO.C,Q3*%
X78667099Y-140839200D03*
D63*
X84117099Y-118289200D03*
D64*
X78667099Y-118289200D03*
X73217099Y-118289200D03*
%TD*%
D62*
%TO.C,Q6*%
X100167100Y-140839200D03*
D63*
X105617100Y-118289200D03*
D64*
X100167100Y-118289200D03*
X94717100Y-118289200D03*
%TD*%
M02*
