%TF.GenerationSoftware,KiCad,Pcbnew,8.0.2*%
%TF.CreationDate,2024-05-14T20:54:04+07:00*%
%TF.ProjectId,HW.ACIM-PSU,48572e41-4349-44d2-9d50-53552e6b6963,0.0*%
%TF.SameCoordinates,Original*%
%TF.FileFunction,Soldermask,Bot*%
%TF.FilePolarity,Negative*%
%FSLAX46Y46*%
G04 Gerber Fmt 4.6, Leading zero omitted, Abs format (unit mm)*
G04 Created by KiCad (PCBNEW 8.0.2) date 2024-05-14 20:54:04*
%MOMM*%
%LPD*%
G01*
G04 APERTURE LIST*
G04 Aperture macros list*
%AMRoundRect*
0 Rectangle with rounded corners*
0 $1 Rounding radius*
0 $2 $3 $4 $5 $6 $7 $8 $9 X,Y pos of 4 corners*
0 Add a 4 corners polygon primitive as box body*
4,1,4,$2,$3,$4,$5,$6,$7,$8,$9,$2,$3,0*
0 Add four circle primitives for the rounded corners*
1,1,$1+$1,$2,$3*
1,1,$1+$1,$4,$5*
1,1,$1+$1,$6,$7*
1,1,$1+$1,$8,$9*
0 Add four rect primitives between the rounded corners*
20,1,$1+$1,$2,$3,$4,$5,0*
20,1,$1+$1,$4,$5,$6,$7,0*
20,1,$1+$1,$6,$7,$8,$9,0*
20,1,$1+$1,$8,$9,$2,$3,0*%
%AMRotRect*
0 Rectangle, with rotation*
0 The origin of the aperture is its center*
0 $1 length*
0 $2 width*
0 $3 Rotation angle, in degrees counterclockwise*
0 Add horizontal line*
21,1,$1,$2,0,0,$3*%
G04 Aperture macros list end*
%ADD10RoundRect,0.450000X-0.450000X0.450000X-0.450000X-0.450000X0.450000X-0.450000X0.450000X0.450000X0*%
%ADD11C,1.800000*%
%ADD12R,3.200000X3.200000*%
%ADD13C,3.200000*%
%ADD14C,2.600000*%
%ADD15RoundRect,0.250000X-1.000000X-1.000000X1.000000X-1.000000X1.000000X1.000000X-1.000000X1.000000X0*%
%ADD16C,2.200000*%
%ADD17C,2.500000*%
%ADD18C,1.500000*%
%ADD19C,2.000000*%
%ADD20C,3.500000*%
%ADD21R,3.500000X3.500000*%
%ADD22C,1.600000*%
%ADD23RotRect,1.500000X1.500000X225.000000*%
%ADD24C,1.700000*%
%ADD25R,1.700000X1.700000*%
%ADD26RoundRect,0.625000X0.625000X-0.625000X0.625000X0.625000X-0.625000X0.625000X-0.625000X-0.625000X0*%
%ADD27RoundRect,0.450000X-0.450000X-0.450000X0.450000X-0.450000X0.450000X0.450000X-0.450000X0.450000X0*%
%ADD28R,2.500000X2.500000*%
%ADD29R,0.400000X0.600000*%
%ADD30R,1.000000X0.650000*%
%ADD31R,0.650000X1.000000*%
%ADD32R,0.700000X0.700000*%
%ADD33R,0.420000X0.600000*%
%ADD34C,5.000000*%
%ADD35RoundRect,0.250000X-1.250000X-1.250000X1.250000X-1.250000X1.250000X1.250000X-1.250000X1.250000X0*%
%ADD36C,3.000000*%
%ADD37R,1.100000X0.600000*%
%ADD38R,0.600000X1.550000*%
%ADD39R,0.800000X0.900000*%
%ADD40O,0.800000X0.400000*%
%ADD41R,1.600000X2.400000*%
%ADD42R,0.900000X0.800000*%
%ADD43R,0.600000X0.420000*%
%ADD44RoundRect,0.125000X0.000010X0.300000X-0.000010X0.300000X-0.000010X-0.300000X0.000010X-0.300000X0*%
%ADD45R,1.600000X1.500000*%
%ADD46R,2.500000X1.300000*%
%ADD47R,2.150000X6.500000*%
%ADD48R,0.450000X1.450000*%
%ADD49R,0.600000X0.400000*%
G04 APERTURE END LIST*
D10*
%TO.C,J2*%
X112167100Y-77132900D03*
D11*
X112167100Y-79672900D03*
X112167100Y-84752900D03*
X112167100Y-87292900D03*
X112167100Y-89832900D03*
X112167100Y-94912900D03*
X112167100Y-97452900D03*
X112167100Y-99992900D03*
%TD*%
D10*
%TO.C,J3*%
X112167100Y-139165100D03*
D11*
X112167100Y-146785100D03*
X112167100Y-149325100D03*
X112167100Y-151865100D03*
X112167100Y-154405100D03*
X112167100Y-156945100D03*
%TD*%
D12*
%TO.C,J1*%
X51794000Y-83118100D03*
D13*
X42294000Y-83118100D03*
X32794000Y-83118100D03*
%TD*%
D14*
%TO.C,BR1*%
X58044000Y-179618100D03*
X58044000Y-169618100D03*
X58044000Y-162118100D03*
X58044000Y-154618100D03*
%TD*%
D15*
%TO.C,J8*%
X72144000Y-173318100D03*
%TD*%
D10*
%TO.C,J5*%
X112168100Y-191954299D03*
D11*
X112168100Y-194494300D03*
X112168100Y-197034300D03*
X112168100Y-199574300D03*
X112168100Y-202114299D03*
X112168100Y-204654301D03*
X112168100Y-207194300D03*
X112168100Y-209734300D03*
X112168100Y-212274300D03*
X112168100Y-214814301D03*
%TD*%
D16*
%TO.C,F1*%
X23879000Y-77322100D03*
X23879000Y-81922100D03*
X23879000Y-93222100D03*
X23879000Y-97822100D03*
%TD*%
D17*
%TO.C,J7*%
X97417099Y-107239200D03*
%TD*%
D18*
%TO.C,M3*%
X45479000Y-97822100D03*
X46979000Y-92822100D03*
%TD*%
D11*
%TO.C,B1*%
X27698935Y-185038165D03*
X32189063Y-180548037D03*
%TD*%
D17*
%TO.C,*%
X113617000Y-162233900D03*
%TD*%
D19*
%TO.C,RL2*%
X27943999Y-162018099D03*
X27943999Y-172218101D03*
D20*
X25244000Y-167118100D03*
X40643999Y-158218100D03*
X50743999Y-176018100D03*
X43143999Y-176018100D03*
%TD*%
D11*
%TO.C,C2*%
X37794000Y-105418100D03*
X22794000Y-105418100D03*
%TD*%
D21*
%TO.C,C44*%
X92167100Y-92292900D03*
D20*
X92167100Y-82292900D03*
%TD*%
D18*
%TO.C,M4*%
X45479000Y-107522100D03*
X46979000Y-102522100D03*
%TD*%
D17*
%TO.C,*%
X23117000Y-71734100D03*
%TD*%
D22*
%TO.C,C43*%
X68367100Y-77992900D03*
X68367100Y-87992900D03*
%TD*%
%TO.C,BT1*%
X109842000Y-229183900D03*
X109842000Y-222683900D03*
X114342000Y-229183900D03*
X114342000Y-222683900D03*
%TD*%
D18*
%TO.C,BZ1*%
X102368903Y-162381997D03*
D23*
X106965097Y-157785803D03*
%TD*%
D11*
%TO.C,C11*%
X57094000Y-114118100D03*
X42094000Y-114118100D03*
%TD*%
D24*
%TO.C,D8*%
X65067100Y-97832900D03*
D25*
X65067100Y-92752900D03*
%TD*%
D17*
%TO.C,*%
X23117001Y-233634099D03*
%TD*%
D22*
%TO.C,C28*%
X72144000Y-158718100D03*
X72144000Y-168718100D03*
%TD*%
D11*
%TO.C,C35*%
X64344000Y-153718100D03*
X64344000Y-168718100D03*
%TD*%
D17*
%TO.C,*%
X68367000Y-71734100D03*
%TD*%
D24*
%TO.C,D11*%
X70667100Y-97832900D03*
D25*
X70667100Y-92752900D03*
%TD*%
D18*
%TO.C,M2*%
X37479000Y-97822100D03*
X38979000Y-92822100D03*
%TD*%
D26*
%TO.C,FT1*%
X22844000Y-130018100D03*
D17*
X38844000Y-130018100D03*
X22844000Y-126018100D03*
X38844000Y-126018100D03*
%TD*%
%TO.C,*%
X113617000Y-71734100D03*
%TD*%
D22*
%TO.C,C1*%
X33943999Y-192493101D03*
X23943999Y-192493101D03*
%TD*%
D27*
%TO.C,MD2*%
X88357000Y-168083900D03*
D11*
X90897000Y-168083900D03*
X93437000Y-168083900D03*
X95977000Y-168083900D03*
%TD*%
D17*
%TO.C,J9*%
X74517099Y-107239200D03*
%TD*%
D28*
%TO.C,MD1*%
X59687100Y-186229200D03*
D17*
X39367100Y-186229200D03*
X39367100Y-231949200D03*
X49527100Y-231949200D03*
X59687100Y-231949200D03*
%TD*%
D10*
%TO.C,J4*%
X112167100Y-108149200D03*
D11*
X112167100Y-110689200D03*
X112167100Y-118309200D03*
X112167100Y-120849200D03*
X112167100Y-123389200D03*
X112167100Y-125929200D03*
X112167100Y-128469200D03*
X112167100Y-131009200D03*
%TD*%
D18*
%TO.C,M1*%
X30979000Y-92822100D03*
X29479000Y-97822100D03*
%TD*%
D17*
%TO.C,*%
X23117000Y-152684000D03*
%TD*%
D15*
%TO.C,J6*%
X64344000Y-173318100D03*
%TD*%
D17*
%TO.C,*%
X113617000Y-233634100D03*
%TD*%
D19*
%TO.C,RL1*%
X60344001Y-125518099D03*
X50143999Y-125518099D03*
D20*
X55244000Y-122818100D03*
X64144000Y-138218099D03*
X46344000Y-148318099D03*
X46344000Y-140718099D03*
%TD*%
D29*
%TO.C,U11*%
X103217099Y-96562900D03*
X103867099Y-96562901D03*
X104517099Y-96562900D03*
X104517099Y-98462900D03*
X103217099Y-98462900D03*
%TD*%
D30*
%TO.C,C52*%
X51877100Y-218124201D03*
X51877100Y-219574199D03*
%TD*%
%TO.C,R2*%
X34943999Y-190718100D03*
X34943999Y-189268102D03*
%TD*%
%TO.C,C34*%
X51377100Y-223524201D03*
X51377100Y-224974199D03*
%TD*%
D31*
%TO.C,R23*%
X97742100Y-131564201D03*
X96292100Y-131564201D03*
%TD*%
D32*
%TO.C,D3*%
X56444000Y-126818100D03*
X54044000Y-126818100D03*
%TD*%
D33*
%TO.C,U8*%
X68794000Y-144518100D03*
X69444000Y-144518101D03*
X70094000Y-144518100D03*
X70094000Y-146418100D03*
X69444000Y-146418099D03*
X68794000Y-146418100D03*
%TD*%
D30*
%TO.C,C27*%
X43877100Y-223524201D03*
X43877100Y-224974199D03*
%TD*%
%TO.C,R14*%
X90217100Y-132739200D03*
X90217100Y-134189198D03*
%TD*%
%TO.C,C45*%
X47077100Y-222274199D03*
X47077100Y-220824201D03*
%TD*%
D31*
%TO.C,C42*%
X106042099Y-129964201D03*
X104592101Y-129964201D03*
%TD*%
D34*
%TO.C,Q3*%
X78667099Y-140839200D03*
D35*
X84117099Y-118289200D03*
D36*
X78667099Y-118289200D03*
X73217099Y-118289200D03*
%TD*%
D37*
%TO.C,U3*%
X40177100Y-217899200D03*
X40177099Y-218849200D03*
X40177100Y-219799200D03*
X37377100Y-219799200D03*
X37377101Y-218849200D03*
X37377100Y-217899200D03*
%TD*%
D31*
%TO.C,R21*%
X97742100Y-129964201D03*
X96292100Y-129964201D03*
%TD*%
D32*
%TO.C,D2*%
X56444000Y-132518100D03*
X54044000Y-132518100D03*
%TD*%
D30*
%TO.C,R34*%
X66767099Y-113414201D03*
X66767099Y-114864199D03*
%TD*%
%TO.C,R29*%
X45477100Y-219574199D03*
X45477100Y-218124201D03*
%TD*%
D31*
%TO.C,C24*%
X38052101Y-221649200D03*
X39502099Y-221649200D03*
%TD*%
D30*
%TO.C,R46*%
X53477100Y-218124201D03*
X53477100Y-219574199D03*
%TD*%
%TO.C,C29*%
X43877100Y-219574199D03*
X43877100Y-218124201D03*
%TD*%
%TO.C,R6*%
X29477100Y-232024199D03*
X29477100Y-230574201D03*
%TD*%
%TO.C,R56*%
X88267099Y-113414201D03*
X88267099Y-114864199D03*
%TD*%
D31*
%TO.C,R24*%
X106042100Y-133164201D03*
X104592100Y-133164201D03*
%TD*%
D30*
%TO.C,C22*%
X35077100Y-220824201D03*
X35077100Y-222274199D03*
%TD*%
%TO.C,C30*%
X45477100Y-223524201D03*
X45477100Y-224974199D03*
%TD*%
%TO.C,C51*%
X50277100Y-222274199D03*
X50277100Y-220824201D03*
%TD*%
D31*
%TO.C,R12*%
X32819000Y-164518100D03*
X31369000Y-164518100D03*
%TD*%
D30*
%TO.C,C63*%
X89867099Y-113414201D03*
X89867099Y-114864199D03*
%TD*%
%TO.C,R55*%
X86667099Y-113414201D03*
X86667099Y-114864199D03*
%TD*%
%TO.C,C23*%
X35077100Y-219574199D03*
X35077100Y-218124201D03*
%TD*%
D38*
%TO.C,U5*%
X103072100Y-133464201D03*
X101802100Y-133464201D03*
X100538502Y-133460378D03*
X99262100Y-133464201D03*
X99262100Y-128064201D03*
X100532100Y-128064201D03*
X101802100Y-128064201D03*
X103072100Y-128064201D03*
%TD*%
D31*
%TO.C,C37*%
X88692101Y-126389200D03*
X90142099Y-126389200D03*
%TD*%
%TO.C,R26*%
X106042099Y-128364201D03*
X104592101Y-128364201D03*
%TD*%
D30*
%TO.C,R5*%
X29477100Y-229324199D03*
X29477100Y-227874201D03*
%TD*%
%TO.C,C55*%
X53477100Y-222274199D03*
X53477100Y-220824201D03*
%TD*%
D31*
%TO.C,R64*%
X107342099Y-94912900D03*
X105892101Y-94912900D03*
%TD*%
D30*
%TO.C,C32*%
X29477100Y-226624199D03*
X29477100Y-225174201D03*
%TD*%
D39*
%TO.C,Q1*%
X56194000Y-130768100D03*
X54293285Y-130770289D03*
X55244000Y-128568100D03*
%TD*%
D30*
%TO.C,C25*%
X42277100Y-223524201D03*
X42277100Y-224974199D03*
%TD*%
%TO.C,FT2*%
X43877100Y-220824201D03*
X43877100Y-222274199D03*
%TD*%
D31*
%TO.C,R63*%
X110042099Y-94912900D03*
X108592101Y-94912900D03*
%TD*%
D40*
%TO.C,U2*%
X37327100Y-225224200D03*
X37327100Y-224574200D03*
X37327100Y-223924200D03*
X37327100Y-223274200D03*
X40227100Y-223274200D03*
X40227100Y-223924200D03*
X40227100Y-224574200D03*
X40227100Y-225224200D03*
D41*
X38777100Y-224249200D03*
%TD*%
D30*
%TO.C,FT3*%
X71444000Y-136443101D03*
X71444000Y-137893099D03*
%TD*%
D42*
%TO.C,Q4*%
X95417100Y-128314201D03*
X95414911Y-126413486D03*
X97617099Y-127364201D03*
%TD*%
D30*
%TO.C,C71*%
X104467099Y-101387899D03*
X104467099Y-99937901D03*
%TD*%
D31*
%TO.C,R66*%
X101942098Y-94912900D03*
X100492100Y-94912900D03*
%TD*%
%TO.C,R48*%
X71869001Y-146518100D03*
X73318999Y-146518100D03*
%TD*%
D43*
%TO.C,U10*%
X93467099Y-110339200D03*
X93467098Y-110989200D03*
X93467099Y-111639200D03*
X91567099Y-111639200D03*
X91567100Y-110989200D03*
X91567099Y-110339200D03*
%TD*%
D32*
%TO.C,D4*%
X34944000Y-165918100D03*
X34944000Y-168318100D03*
%TD*%
D30*
%TO.C,C60*%
X90117099Y-111264199D03*
X90117099Y-109814201D03*
%TD*%
%TO.C,R58*%
X91467099Y-113414201D03*
X91467099Y-114864199D03*
%TD*%
%TO.C,R3*%
X26277100Y-230574201D03*
X26277100Y-232024199D03*
%TD*%
%TO.C,R16*%
X88617100Y-132739200D03*
X88617100Y-134189198D03*
%TD*%
%TO.C,R11*%
X52644000Y-128943101D03*
X52644000Y-130393099D03*
%TD*%
D31*
%TO.C,FT4*%
X48502101Y-224249200D03*
X49952099Y-224249200D03*
%TD*%
D30*
%TO.C,C17*%
X29477100Y-223924199D03*
X29477100Y-222474201D03*
%TD*%
D44*
%TO.C,U4*%
X90167100Y-130839200D03*
X89667100Y-130839200D03*
X89167100Y-130839200D03*
X88667100Y-130839200D03*
X88667100Y-127939200D03*
X89167100Y-127939200D03*
X89667100Y-127939200D03*
X90167100Y-127939200D03*
D45*
X89417100Y-129389200D03*
%TD*%
D31*
%TO.C,C41*%
X106042099Y-131564201D03*
X104592101Y-131564201D03*
%TD*%
D30*
%TO.C,C70*%
X99667099Y-99937901D03*
X99667099Y-101387899D03*
%TD*%
D46*
%TO.C,C19*%
X32277100Y-222849201D03*
X32277100Y-225649199D03*
%TD*%
D42*
%TO.C,D12*%
X64867099Y-111939200D03*
X64864910Y-110038485D03*
X67067098Y-110989200D03*
%TD*%
D31*
%TO.C,R22*%
X95042100Y-131564201D03*
X93592100Y-131564201D03*
%TD*%
D47*
%TO.C,L3*%
X27352100Y-217449200D03*
X31702100Y-217449200D03*
%TD*%
D30*
%TO.C,C20*%
X35077100Y-224974199D03*
X35077100Y-223524201D03*
%TD*%
%TO.C,C31*%
X47077100Y-223524201D03*
X47077100Y-224974199D03*
%TD*%
%TO.C,C38*%
X24077100Y-227874201D03*
X24077100Y-229324199D03*
%TD*%
%TO.C,R73*%
X101267099Y-101387899D03*
X101267099Y-99937901D03*
%TD*%
%TO.C,C26*%
X42277100Y-219574199D03*
X42277100Y-218124201D03*
%TD*%
%TO.C,C33*%
X52977100Y-223524201D03*
X52977100Y-224974199D03*
%TD*%
D31*
%TO.C,R13*%
X31369001Y-169718100D03*
X32818999Y-169718100D03*
%TD*%
%TO.C,C50*%
X73318999Y-144918100D03*
X71869001Y-144918100D03*
%TD*%
%TO.C,C58*%
X71869001Y-148118100D03*
X73318999Y-148118100D03*
%TD*%
%TO.C,C66*%
X97792100Y-94912900D03*
X99242098Y-94912900D03*
%TD*%
D30*
%TO.C,C47*%
X68617099Y-111264199D03*
X68617099Y-109814201D03*
%TD*%
D42*
%TO.C,D16*%
X86367099Y-111939200D03*
X86364910Y-110038485D03*
X88567098Y-110989200D03*
%TD*%
D30*
%TO.C,C57*%
X68367099Y-113414201D03*
X68367099Y-114864199D03*
%TD*%
D34*
%TO.C,Q6*%
X100167100Y-140839200D03*
D35*
X105617100Y-118289200D03*
D36*
X100167100Y-118289200D03*
X94717100Y-118289200D03*
%TD*%
D30*
%TO.C,R33*%
X65167099Y-113414201D03*
X65167099Y-114864199D03*
%TD*%
D48*
%TO.C,U1*%
X27752100Y-228499200D03*
X27102100Y-228499200D03*
X26452100Y-228499200D03*
X25812100Y-228499200D03*
X25812100Y-224099200D03*
X26452100Y-224099200D03*
X27102100Y-224099200D03*
X27752100Y-224099200D03*
%TD*%
D31*
%TO.C,R35*%
X71869001Y-151318100D03*
X73318999Y-151318100D03*
%TD*%
%TO.C,C48*%
X69669000Y-147868100D03*
X68219000Y-147868100D03*
%TD*%
D30*
%TO.C,C8*%
X27877100Y-232024199D03*
X27877100Y-230574201D03*
%TD*%
D31*
%TO.C,R20*%
X95042100Y-129964201D03*
X93592100Y-129964201D03*
%TD*%
%TO.C,C13*%
X26602101Y-221799200D03*
X28052099Y-221799200D03*
%TD*%
D42*
%TO.C,D17*%
X100117099Y-96562900D03*
X100119288Y-98463615D03*
X97917100Y-97512900D03*
%TD*%
D30*
%TO.C,R45*%
X51877100Y-222274199D03*
X51877100Y-220824201D03*
%TD*%
D32*
%TO.C,D5*%
X29244000Y-165918100D03*
X29244000Y-168318100D03*
%TD*%
D42*
%TO.C,Q2*%
X33194000Y-166168100D03*
X33196189Y-168068815D03*
X30994001Y-167118100D03*
%TD*%
D30*
%TO.C,C62*%
X93067099Y-114864199D03*
X93067099Y-113414201D03*
%TD*%
D43*
%TO.C,U7*%
X71967099Y-110339200D03*
X71967098Y-110989200D03*
X71967099Y-111639200D03*
X70067099Y-111639200D03*
X70067100Y-110989200D03*
X70067099Y-110339200D03*
%TD*%
D30*
%TO.C,C67*%
X101667099Y-96787901D03*
X101667099Y-98237899D03*
%TD*%
D31*
%TO.C,R65*%
X104642099Y-94912900D03*
X103192101Y-94912900D03*
%TD*%
D30*
%TO.C,R1*%
X32943999Y-190718100D03*
X32943999Y-189268102D03*
%TD*%
%TO.C,R47*%
X69967099Y-113414201D03*
X69967099Y-114864199D03*
%TD*%
D39*
%TO.C,D13*%
X70394000Y-151618100D03*
X68493285Y-151620289D03*
X69444000Y-149418100D03*
%TD*%
D30*
%TO.C,C49*%
X71567099Y-114864199D03*
X71567099Y-113414201D03*
%TD*%
%TO.C,C46*%
X48677100Y-222274199D03*
X48677100Y-220824201D03*
%TD*%
%TO.C,R30*%
X45477100Y-222274199D03*
X45477100Y-220824201D03*
%TD*%
D49*
%TO.C,U6*%
X48527100Y-219449200D03*
X48527101Y-218799200D03*
X48527100Y-218149200D03*
X50427100Y-218149200D03*
X50427100Y-219449200D03*
%TD*%
D30*
%TO.C,R10*%
X57844000Y-130393099D03*
X57844000Y-128943101D03*
%TD*%
%TO.C,R74*%
X102867099Y-99937901D03*
X102867099Y-101387899D03*
%TD*%
D42*
%TO.C,Q5*%
X95417100Y-135114201D03*
X95414911Y-133213486D03*
X97617099Y-134164201D03*
%TD*%
D31*
%TO.C,R36*%
X71869001Y-149718100D03*
X73318999Y-149718100D03*
%TD*%
M02*
