%TF.GenerationSoftware,KiCad,Pcbnew,8.0.8*%
%TF.CreationDate,2025-01-19T15:15:32+07:00*%
%TF.ProjectId,HW.ACIM-PSU,48572e41-4349-44d2-9d50-53552e6b6963,0.1*%
%TF.SameCoordinates,Original*%
%TF.FileFunction,Profile,NP*%
%FSLAX46Y46*%
G04 Gerber Fmt 4.6, Leading zero omitted, Abs format (unit mm)*
G04 Created by KiCad (PCBNEW 8.0.8) date 2025-01-19 15:15:32*
%MOMM*%
%LPD*%
G01*
G04 APERTURE LIST*
%TA.AperFunction,Profile*%
%ADD10C,0.050000*%
%TD*%
G04 APERTURE END LIST*
D10*
X148283500Y-128613000D02*
X148283500Y-123914000D01*
X167079500Y-115405000D02*
X158189500Y-115405000D01*
X170337500Y-144905000D02*
X170337500Y-51405000D01*
X149283498Y-128613000D02*
G75*
G02*
X148283500Y-128613000I-499999J2D01*
G01*
X170337500Y-144905000D02*
G75*
G02*
X168087500Y-147155000I-2250000J0D01*
G01*
X168087500Y-49155000D02*
X74587500Y-49155000D01*
X157808500Y-114405002D02*
X148283500Y-123914000D01*
X167079500Y-114405002D02*
X157808500Y-114405002D01*
X72337500Y-51405000D02*
X72337500Y-144905000D01*
X121737500Y-97255001D02*
G75*
G02*
X123237500Y-97255001I750000J0D01*
G01*
X123237500Y-97255001D02*
G75*
G02*
X115237500Y-97255001I-4000000J0D01*
G01*
X122337500Y-83404999D02*
G75*
G02*
X120837500Y-83404999I-750000J0D01*
G01*
X149283498Y-128613000D02*
X149283498Y-124295000D01*
X121737500Y-97255001D02*
G75*
G02*
X116737500Y-97255001I-2500000J0D01*
G01*
X74587500Y-147155000D02*
X168087500Y-147155000D01*
X110056500Y-133058000D02*
G75*
G02*
X110056500Y-132058000I0J500000D01*
G01*
X145235500Y-133058000D02*
X110056500Y-133058000D01*
X106492499Y-144115003D02*
X106492498Y-136233000D01*
X115837500Y-83404999D02*
G75*
G02*
X114337500Y-83404999I-750000J0D01*
G01*
X72337500Y-51405000D02*
G75*
G02*
X74587500Y-49155000I2250000J0D01*
G01*
X105492501Y-144115003D02*
X105492501Y-136233000D01*
X114337500Y-83404999D02*
G75*
G02*
X122337500Y-83404999I4000000J0D01*
G01*
X105492501Y-136233000D02*
G75*
G02*
X106492499Y-136233000I499999J-2D01*
G01*
X115237500Y-97255001D02*
G75*
G02*
X116737500Y-97255001I750000J0D01*
G01*
X106492499Y-144115003D02*
G75*
G02*
X105492501Y-144115003I-499999J2D01*
G01*
X74587500Y-147155000D02*
G75*
G02*
X72337500Y-144905000I0J2250000D01*
G01*
X168087500Y-49155000D02*
G75*
G02*
X170337500Y-51405000I0J-2250000D01*
G01*
X145235500Y-132058002D02*
G75*
G02*
X145235500Y-133057998I0J-499998D01*
G01*
X167079500Y-114405002D02*
G75*
G02*
X167079500Y-115404998I0J-499998D01*
G01*
X115837500Y-83404999D02*
G75*
G02*
X120837500Y-83404999I2500000J0D01*
G01*
X158189500Y-115405000D02*
X149283498Y-124295000D01*
X145235500Y-132058002D02*
X110056500Y-132058002D01*
M02*
