%TF.GenerationSoftware,KiCad,Pcbnew,8.0.8*%
%TF.CreationDate,2025-01-19T15:15:54+07:00*%
%TF.ProjectId,HW.ACIM-PSU,48572e41-4349-44d2-9d50-53552e6b6963,0.1*%
%TF.SameCoordinates,Original*%
%TF.FileFunction,Drillmap*%
%TF.FilePolarity,Positive*%
%FSLAX45Y45*%
G04 Gerber Fmt 4.5, Leading zero omitted, Abs format (unit mm)*
G04 Created by KiCad (PCBNEW 8.0.8) date 2025-01-19 15:15:54*
%MOMM*%
%LPD*%
G01*
G04 APERTURE LIST*
%ADD10C,0.050000*%
%ADD11C,0.200000*%
%ADD12C,0.250000*%
G04 APERTURE END LIST*
D10*
X14828350Y-12861300D02*
X14828350Y-12391400D01*
X16707950Y-11540500D02*
X15818950Y-11540500D01*
X17033750Y-14490500D02*
X17033750Y-5140500D01*
X14928350Y-12861300D02*
G75*
G02*
X14828350Y-12861300I-50000J0D01*
G01*
X17033750Y-14490500D02*
G75*
G02*
X16808750Y-14715500I-225000J0D01*
G01*
X16808750Y-4915500D02*
X7458750Y-4915500D01*
X15780850Y-11440500D02*
X14828350Y-12391400D01*
X16707950Y-11440500D02*
X15780850Y-11440500D01*
X7233750Y-5140500D02*
X7233750Y-14490500D01*
X12173750Y-9725500D02*
G75*
G02*
X12323750Y-9725500I75000J0D01*
G01*
X12323750Y-9725500D02*
G75*
G02*
X11523750Y-9725500I-400000J0D01*
G01*
X12233750Y-8340500D02*
G75*
G02*
X12083750Y-8340500I-75000J0D01*
G01*
X14928350Y-12861300D02*
X14928350Y-12429500D01*
X12173750Y-9725500D02*
G75*
G02*
X11673750Y-9725500I-250000J0D01*
G01*
X7458750Y-14715500D02*
X16808750Y-14715500D01*
X11005650Y-13305800D02*
G75*
G02*
X11005650Y-13205800I0J50000D01*
G01*
X14523550Y-13305800D02*
X11005650Y-13305800D01*
X10649250Y-14411500D02*
X10649250Y-13623300D01*
X11583750Y-8340500D02*
G75*
G02*
X11433750Y-8340500I-75000J0D01*
G01*
X7233750Y-5140500D02*
G75*
G02*
X7458750Y-4915500I225000J0D01*
G01*
X10549250Y-14411500D02*
X10549250Y-13623300D01*
X11433750Y-8340500D02*
G75*
G02*
X12233750Y-8340500I400000J0D01*
G01*
X10549250Y-13623300D02*
G75*
G02*
X10649250Y-13623300I50000J0D01*
G01*
X11523750Y-9725500D02*
G75*
G02*
X11673750Y-9725500I75000J0D01*
G01*
X10649250Y-14411500D02*
G75*
G02*
X10549250Y-14411500I-50000J0D01*
G01*
X7458750Y-14715500D02*
G75*
G02*
X7233750Y-14490500I0J225000D01*
G01*
X16808750Y-4915500D02*
G75*
G02*
X17033750Y-5140500I0J-225000D01*
G01*
X14523550Y-13205800D02*
G75*
G02*
X14523550Y-13305800I0J-50000D01*
G01*
X16707950Y-11440500D02*
G75*
G02*
X16707950Y-11540500I0J-50000D01*
G01*
X11583750Y-8340500D02*
G75*
G02*
X12083750Y-8340500I250000J0D01*
G01*
X15818950Y-11540500D02*
X14928350Y-12429500D01*
X14523550Y-13205800D02*
X11005650Y-13205800D01*
D11*
D12*
X7333750Y-5015500D02*
X7583750Y-5265500D01*
X7583750Y-5015500D02*
X7333750Y-5265500D01*
X7333750Y-8921500D02*
X7583750Y-9171500D01*
X7583750Y-8921500D02*
X7333750Y-9171500D01*
X7333750Y-14365500D02*
X7583750Y-14615500D01*
X7583750Y-14365500D02*
X7333750Y-14615500D01*
X10883750Y-5015500D02*
X11133750Y-5265500D01*
X11133750Y-5015500D02*
X10883750Y-5265500D01*
X10883750Y-8921500D02*
X11133750Y-9171500D01*
X11133750Y-8921500D02*
X10883750Y-9171500D01*
X10883750Y-13696500D02*
X11133750Y-13946500D01*
X11133750Y-13696500D02*
X10883750Y-13946500D01*
X16683750Y-5015500D02*
X16933750Y-5265500D01*
X16933750Y-5015500D02*
X16683750Y-5265500D01*
X16683750Y-8921500D02*
X16933750Y-9171500D01*
X16933750Y-8921500D02*
X16683750Y-9171500D01*
X16683750Y-14365500D02*
X16933750Y-14615500D01*
X16933750Y-14365500D02*
X16683750Y-14615500D01*
D11*
X7492027Y-15029484D02*
X7492027Y-14829484D01*
X7492027Y-14829484D02*
X7539646Y-14829484D01*
X7539646Y-14829484D02*
X7568217Y-14839008D01*
X7568217Y-14839008D02*
X7587265Y-14858055D01*
X7587265Y-14858055D02*
X7596789Y-14877103D01*
X7596789Y-14877103D02*
X7606312Y-14915198D01*
X7606312Y-14915198D02*
X7606312Y-14943769D01*
X7606312Y-14943769D02*
X7596789Y-14981865D01*
X7596789Y-14981865D02*
X7587265Y-15000912D01*
X7587265Y-15000912D02*
X7568217Y-15019960D01*
X7568217Y-15019960D02*
X7539646Y-15029484D01*
X7539646Y-15029484D02*
X7492027Y-15029484D01*
X7692027Y-15029484D02*
X7692027Y-14896150D01*
X7692027Y-14934246D02*
X7701551Y-14915198D01*
X7701551Y-14915198D02*
X7711074Y-14905674D01*
X7711074Y-14905674D02*
X7730122Y-14896150D01*
X7730122Y-14896150D02*
X7749170Y-14896150D01*
X7815836Y-15029484D02*
X7815836Y-14896150D01*
X7815836Y-14829484D02*
X7806312Y-14839008D01*
X7806312Y-14839008D02*
X7815836Y-14848531D01*
X7815836Y-14848531D02*
X7825360Y-14839008D01*
X7825360Y-14839008D02*
X7815836Y-14829484D01*
X7815836Y-14829484D02*
X7815836Y-14848531D01*
X7939646Y-15029484D02*
X7920598Y-15019960D01*
X7920598Y-15019960D02*
X7911074Y-15000912D01*
X7911074Y-15000912D02*
X7911074Y-14829484D01*
X8044408Y-15029484D02*
X8025360Y-15019960D01*
X8025360Y-15019960D02*
X8015836Y-15000912D01*
X8015836Y-15000912D02*
X8015836Y-14829484D01*
X8272979Y-15029484D02*
X8272979Y-14829484D01*
X8272979Y-14829484D02*
X8339646Y-14972341D01*
X8339646Y-14972341D02*
X8406313Y-14829484D01*
X8406313Y-14829484D02*
X8406313Y-15029484D01*
X8587265Y-15029484D02*
X8587265Y-14924722D01*
X8587265Y-14924722D02*
X8577741Y-14905674D01*
X8577741Y-14905674D02*
X8558694Y-14896150D01*
X8558694Y-14896150D02*
X8520598Y-14896150D01*
X8520598Y-14896150D02*
X8501551Y-14905674D01*
X8587265Y-15019960D02*
X8568217Y-15029484D01*
X8568217Y-15029484D02*
X8520598Y-15029484D01*
X8520598Y-15029484D02*
X8501551Y-15019960D01*
X8501551Y-15019960D02*
X8492027Y-15000912D01*
X8492027Y-15000912D02*
X8492027Y-14981865D01*
X8492027Y-14981865D02*
X8501551Y-14962817D01*
X8501551Y-14962817D02*
X8520598Y-14953293D01*
X8520598Y-14953293D02*
X8568217Y-14953293D01*
X8568217Y-14953293D02*
X8587265Y-14943769D01*
X8682503Y-14896150D02*
X8682503Y-15096150D01*
X8682503Y-14905674D02*
X8701551Y-14896150D01*
X8701551Y-14896150D02*
X8739646Y-14896150D01*
X8739646Y-14896150D02*
X8758694Y-14905674D01*
X8758694Y-14905674D02*
X8768217Y-14915198D01*
X8768217Y-14915198D02*
X8777741Y-14934246D01*
X8777741Y-14934246D02*
X8777741Y-14991388D01*
X8777741Y-14991388D02*
X8768217Y-15010436D01*
X8768217Y-15010436D02*
X8758694Y-15019960D01*
X8758694Y-15019960D02*
X8739646Y-15029484D01*
X8739646Y-15029484D02*
X8701551Y-15029484D01*
X8701551Y-15029484D02*
X8682503Y-15019960D01*
X8863455Y-15010436D02*
X8872979Y-15019960D01*
X8872979Y-15019960D02*
X8863455Y-15029484D01*
X8863455Y-15029484D02*
X8853932Y-15019960D01*
X8853932Y-15019960D02*
X8863455Y-15010436D01*
X8863455Y-15010436D02*
X8863455Y-15029484D01*
X8863455Y-14905674D02*
X8872979Y-14915198D01*
X8872979Y-14915198D02*
X8863455Y-14924722D01*
X8863455Y-14924722D02*
X8853932Y-14915198D01*
X8853932Y-14915198D02*
X8863455Y-14905674D01*
X8863455Y-14905674D02*
X8863455Y-14924722D01*
X7031250Y-15258000D02*
X7231250Y-15458000D01*
X7231250Y-15258000D02*
X7031250Y-15458000D01*
X7482503Y-15268531D02*
X7492027Y-15259008D01*
X7492027Y-15259008D02*
X7511074Y-15249484D01*
X7511074Y-15249484D02*
X7558693Y-15249484D01*
X7558693Y-15249484D02*
X7577741Y-15259008D01*
X7577741Y-15259008D02*
X7587265Y-15268531D01*
X7587265Y-15268531D02*
X7596789Y-15287579D01*
X7596789Y-15287579D02*
X7596789Y-15306627D01*
X7596789Y-15306627D02*
X7587265Y-15335198D01*
X7587265Y-15335198D02*
X7472979Y-15449484D01*
X7472979Y-15449484D02*
X7596789Y-15449484D01*
X7682503Y-15430436D02*
X7692027Y-15439960D01*
X7692027Y-15439960D02*
X7682503Y-15449484D01*
X7682503Y-15449484D02*
X7672979Y-15439960D01*
X7672979Y-15439960D02*
X7682503Y-15430436D01*
X7682503Y-15430436D02*
X7682503Y-15449484D01*
X7872979Y-15249484D02*
X7777741Y-15249484D01*
X7777741Y-15249484D02*
X7768217Y-15344722D01*
X7768217Y-15344722D02*
X7777741Y-15335198D01*
X7777741Y-15335198D02*
X7796789Y-15325674D01*
X7796789Y-15325674D02*
X7844408Y-15325674D01*
X7844408Y-15325674D02*
X7863455Y-15335198D01*
X7863455Y-15335198D02*
X7872979Y-15344722D01*
X7872979Y-15344722D02*
X7882503Y-15363769D01*
X7882503Y-15363769D02*
X7882503Y-15411388D01*
X7882503Y-15411388D02*
X7872979Y-15430436D01*
X7872979Y-15430436D02*
X7863455Y-15439960D01*
X7863455Y-15439960D02*
X7844408Y-15449484D01*
X7844408Y-15449484D02*
X7796789Y-15449484D01*
X7796789Y-15449484D02*
X7777741Y-15439960D01*
X7777741Y-15439960D02*
X7768217Y-15430436D01*
X8006312Y-15249484D02*
X8025360Y-15249484D01*
X8025360Y-15249484D02*
X8044408Y-15259008D01*
X8044408Y-15259008D02*
X8053932Y-15268531D01*
X8053932Y-15268531D02*
X8063455Y-15287579D01*
X8063455Y-15287579D02*
X8072979Y-15325674D01*
X8072979Y-15325674D02*
X8072979Y-15373293D01*
X8072979Y-15373293D02*
X8063455Y-15411388D01*
X8063455Y-15411388D02*
X8053932Y-15430436D01*
X8053932Y-15430436D02*
X8044408Y-15439960D01*
X8044408Y-15439960D02*
X8025360Y-15449484D01*
X8025360Y-15449484D02*
X8006312Y-15449484D01*
X8006312Y-15449484D02*
X7987265Y-15439960D01*
X7987265Y-15439960D02*
X7977741Y-15430436D01*
X7977741Y-15430436D02*
X7968217Y-15411388D01*
X7968217Y-15411388D02*
X7958693Y-15373293D01*
X7958693Y-15373293D02*
X7958693Y-15325674D01*
X7958693Y-15325674D02*
X7968217Y-15287579D01*
X7968217Y-15287579D02*
X7977741Y-15268531D01*
X7977741Y-15268531D02*
X7987265Y-15259008D01*
X7987265Y-15259008D02*
X8006312Y-15249484D01*
X8196789Y-15249484D02*
X8215836Y-15249484D01*
X8215836Y-15249484D02*
X8234884Y-15259008D01*
X8234884Y-15259008D02*
X8244408Y-15268531D01*
X8244408Y-15268531D02*
X8253932Y-15287579D01*
X8253932Y-15287579D02*
X8263455Y-15325674D01*
X8263455Y-15325674D02*
X8263455Y-15373293D01*
X8263455Y-15373293D02*
X8253932Y-15411388D01*
X8253932Y-15411388D02*
X8244408Y-15430436D01*
X8244408Y-15430436D02*
X8234884Y-15439960D01*
X8234884Y-15439960D02*
X8215836Y-15449484D01*
X8215836Y-15449484D02*
X8196789Y-15449484D01*
X8196789Y-15449484D02*
X8177741Y-15439960D01*
X8177741Y-15439960D02*
X8168217Y-15430436D01*
X8168217Y-15430436D02*
X8158693Y-15411388D01*
X8158693Y-15411388D02*
X8149170Y-15373293D01*
X8149170Y-15373293D02*
X8149170Y-15325674D01*
X8149170Y-15325674D02*
X8158693Y-15287579D01*
X8158693Y-15287579D02*
X8168217Y-15268531D01*
X8168217Y-15268531D02*
X8177741Y-15259008D01*
X8177741Y-15259008D02*
X8196789Y-15249484D01*
X8349170Y-15449484D02*
X8349170Y-15316150D01*
X8349170Y-15335198D02*
X8358693Y-15325674D01*
X8358693Y-15325674D02*
X8377741Y-15316150D01*
X8377741Y-15316150D02*
X8406313Y-15316150D01*
X8406313Y-15316150D02*
X8425360Y-15325674D01*
X8425360Y-15325674D02*
X8434884Y-15344722D01*
X8434884Y-15344722D02*
X8434884Y-15449484D01*
X8434884Y-15344722D02*
X8444408Y-15325674D01*
X8444408Y-15325674D02*
X8463455Y-15316150D01*
X8463455Y-15316150D02*
X8492027Y-15316150D01*
X8492027Y-15316150D02*
X8511075Y-15325674D01*
X8511075Y-15325674D02*
X8520598Y-15344722D01*
X8520598Y-15344722D02*
X8520598Y-15449484D01*
X8615836Y-15449484D02*
X8615836Y-15316150D01*
X8615836Y-15335198D02*
X8625360Y-15325674D01*
X8625360Y-15325674D02*
X8644408Y-15316150D01*
X8644408Y-15316150D02*
X8672979Y-15316150D01*
X8672979Y-15316150D02*
X8692027Y-15325674D01*
X8692027Y-15325674D02*
X8701551Y-15344722D01*
X8701551Y-15344722D02*
X8701551Y-15449484D01*
X8701551Y-15344722D02*
X8711075Y-15325674D01*
X8711075Y-15325674D02*
X8730122Y-15316150D01*
X8730122Y-15316150D02*
X8758694Y-15316150D01*
X8758694Y-15316150D02*
X8777741Y-15325674D01*
X8777741Y-15325674D02*
X8787265Y-15344722D01*
X8787265Y-15344722D02*
X8787265Y-15449484D01*
X9177741Y-15239960D02*
X9006313Y-15497103D01*
X9434884Y-15249484D02*
X9453932Y-15249484D01*
X9453932Y-15249484D02*
X9472979Y-15259008D01*
X9472979Y-15259008D02*
X9482503Y-15268531D01*
X9482503Y-15268531D02*
X9492027Y-15287579D01*
X9492027Y-15287579D02*
X9501551Y-15325674D01*
X9501551Y-15325674D02*
X9501551Y-15373293D01*
X9501551Y-15373293D02*
X9492027Y-15411388D01*
X9492027Y-15411388D02*
X9482503Y-15430436D01*
X9482503Y-15430436D02*
X9472979Y-15439960D01*
X9472979Y-15439960D02*
X9453932Y-15449484D01*
X9453932Y-15449484D02*
X9434884Y-15449484D01*
X9434884Y-15449484D02*
X9415837Y-15439960D01*
X9415837Y-15439960D02*
X9406313Y-15430436D01*
X9406313Y-15430436D02*
X9396789Y-15411388D01*
X9396789Y-15411388D02*
X9387265Y-15373293D01*
X9387265Y-15373293D02*
X9387265Y-15325674D01*
X9387265Y-15325674D02*
X9396789Y-15287579D01*
X9396789Y-15287579D02*
X9406313Y-15268531D01*
X9406313Y-15268531D02*
X9415837Y-15259008D01*
X9415837Y-15259008D02*
X9434884Y-15249484D01*
X9587265Y-15430436D02*
X9596789Y-15439960D01*
X9596789Y-15439960D02*
X9587265Y-15449484D01*
X9587265Y-15449484D02*
X9577741Y-15439960D01*
X9577741Y-15439960D02*
X9587265Y-15430436D01*
X9587265Y-15430436D02*
X9587265Y-15449484D01*
X9720598Y-15249484D02*
X9739646Y-15249484D01*
X9739646Y-15249484D02*
X9758694Y-15259008D01*
X9758694Y-15259008D02*
X9768218Y-15268531D01*
X9768218Y-15268531D02*
X9777741Y-15287579D01*
X9777741Y-15287579D02*
X9787265Y-15325674D01*
X9787265Y-15325674D02*
X9787265Y-15373293D01*
X9787265Y-15373293D02*
X9777741Y-15411388D01*
X9777741Y-15411388D02*
X9768218Y-15430436D01*
X9768218Y-15430436D02*
X9758694Y-15439960D01*
X9758694Y-15439960D02*
X9739646Y-15449484D01*
X9739646Y-15449484D02*
X9720598Y-15449484D01*
X9720598Y-15449484D02*
X9701551Y-15439960D01*
X9701551Y-15439960D02*
X9692027Y-15430436D01*
X9692027Y-15430436D02*
X9682503Y-15411388D01*
X9682503Y-15411388D02*
X9672979Y-15373293D01*
X9672979Y-15373293D02*
X9672979Y-15325674D01*
X9672979Y-15325674D02*
X9682503Y-15287579D01*
X9682503Y-15287579D02*
X9692027Y-15268531D01*
X9692027Y-15268531D02*
X9701551Y-15259008D01*
X9701551Y-15259008D02*
X9720598Y-15249484D01*
X9882503Y-15449484D02*
X9920598Y-15449484D01*
X9920598Y-15449484D02*
X9939646Y-15439960D01*
X9939646Y-15439960D02*
X9949170Y-15430436D01*
X9949170Y-15430436D02*
X9968218Y-15401865D01*
X9968218Y-15401865D02*
X9977741Y-15363769D01*
X9977741Y-15363769D02*
X9977741Y-15287579D01*
X9977741Y-15287579D02*
X9968218Y-15268531D01*
X9968218Y-15268531D02*
X9958694Y-15259008D01*
X9958694Y-15259008D02*
X9939646Y-15249484D01*
X9939646Y-15249484D02*
X9901551Y-15249484D01*
X9901551Y-15249484D02*
X9882503Y-15259008D01*
X9882503Y-15259008D02*
X9872979Y-15268531D01*
X9872979Y-15268531D02*
X9863456Y-15287579D01*
X9863456Y-15287579D02*
X9863456Y-15335198D01*
X9863456Y-15335198D02*
X9872979Y-15354246D01*
X9872979Y-15354246D02*
X9882503Y-15363769D01*
X9882503Y-15363769D02*
X9901551Y-15373293D01*
X9901551Y-15373293D02*
X9939646Y-15373293D01*
X9939646Y-15373293D02*
X9958694Y-15363769D01*
X9958694Y-15363769D02*
X9968218Y-15354246D01*
X9968218Y-15354246D02*
X9977741Y-15335198D01*
X10092027Y-15335198D02*
X10072979Y-15325674D01*
X10072979Y-15325674D02*
X10063456Y-15316150D01*
X10063456Y-15316150D02*
X10053932Y-15297103D01*
X10053932Y-15297103D02*
X10053932Y-15287579D01*
X10053932Y-15287579D02*
X10063456Y-15268531D01*
X10063456Y-15268531D02*
X10072979Y-15259008D01*
X10072979Y-15259008D02*
X10092027Y-15249484D01*
X10092027Y-15249484D02*
X10130122Y-15249484D01*
X10130122Y-15249484D02*
X10149170Y-15259008D01*
X10149170Y-15259008D02*
X10158694Y-15268531D01*
X10158694Y-15268531D02*
X10168218Y-15287579D01*
X10168218Y-15287579D02*
X10168218Y-15297103D01*
X10168218Y-15297103D02*
X10158694Y-15316150D01*
X10158694Y-15316150D02*
X10149170Y-15325674D01*
X10149170Y-15325674D02*
X10130122Y-15335198D01*
X10130122Y-15335198D02*
X10092027Y-15335198D01*
X10092027Y-15335198D02*
X10072979Y-15344722D01*
X10072979Y-15344722D02*
X10063456Y-15354246D01*
X10063456Y-15354246D02*
X10053932Y-15373293D01*
X10053932Y-15373293D02*
X10053932Y-15411388D01*
X10053932Y-15411388D02*
X10063456Y-15430436D01*
X10063456Y-15430436D02*
X10072979Y-15439960D01*
X10072979Y-15439960D02*
X10092027Y-15449484D01*
X10092027Y-15449484D02*
X10130122Y-15449484D01*
X10130122Y-15449484D02*
X10149170Y-15439960D01*
X10149170Y-15439960D02*
X10158694Y-15430436D01*
X10158694Y-15430436D02*
X10168218Y-15411388D01*
X10168218Y-15411388D02*
X10168218Y-15373293D01*
X10168218Y-15373293D02*
X10158694Y-15354246D01*
X10158694Y-15354246D02*
X10149170Y-15344722D01*
X10149170Y-15344722D02*
X10130122Y-15335198D01*
X10339646Y-15316150D02*
X10339646Y-15449484D01*
X10292027Y-15239960D02*
X10244408Y-15382817D01*
X10244408Y-15382817D02*
X10368218Y-15382817D01*
X10434884Y-15249484D02*
X10434884Y-15287579D01*
X10511075Y-15249484D02*
X10511075Y-15287579D01*
X10806313Y-15525674D02*
X10796789Y-15516150D01*
X10796789Y-15516150D02*
X10777741Y-15487579D01*
X10777741Y-15487579D02*
X10768218Y-15468531D01*
X10768218Y-15468531D02*
X10758694Y-15439960D01*
X10758694Y-15439960D02*
X10749170Y-15392341D01*
X10749170Y-15392341D02*
X10749170Y-15354246D01*
X10749170Y-15354246D02*
X10758694Y-15306627D01*
X10758694Y-15306627D02*
X10768218Y-15278055D01*
X10768218Y-15278055D02*
X10777741Y-15259008D01*
X10777741Y-15259008D02*
X10796789Y-15230436D01*
X10796789Y-15230436D02*
X10806313Y-15220912D01*
X10892027Y-15449484D02*
X10930122Y-15449484D01*
X10930122Y-15449484D02*
X10949170Y-15439960D01*
X10949170Y-15439960D02*
X10958694Y-15430436D01*
X10958694Y-15430436D02*
X10977741Y-15401865D01*
X10977741Y-15401865D02*
X10987265Y-15363769D01*
X10987265Y-15363769D02*
X10987265Y-15287579D01*
X10987265Y-15287579D02*
X10977741Y-15268531D01*
X10977741Y-15268531D02*
X10968218Y-15259008D01*
X10968218Y-15259008D02*
X10949170Y-15249484D01*
X10949170Y-15249484D02*
X10911075Y-15249484D01*
X10911075Y-15249484D02*
X10892027Y-15259008D01*
X10892027Y-15259008D02*
X10882503Y-15268531D01*
X10882503Y-15268531D02*
X10872980Y-15287579D01*
X10872980Y-15287579D02*
X10872980Y-15335198D01*
X10872980Y-15335198D02*
X10882503Y-15354246D01*
X10882503Y-15354246D02*
X10892027Y-15363769D01*
X10892027Y-15363769D02*
X10911075Y-15373293D01*
X10911075Y-15373293D02*
X10949170Y-15373293D01*
X10949170Y-15373293D02*
X10968218Y-15363769D01*
X10968218Y-15363769D02*
X10977741Y-15354246D01*
X10977741Y-15354246D02*
X10987265Y-15335198D01*
X11225360Y-15449484D02*
X11225360Y-15249484D01*
X11311075Y-15449484D02*
X11311075Y-15344722D01*
X11311075Y-15344722D02*
X11301551Y-15325674D01*
X11301551Y-15325674D02*
X11282503Y-15316150D01*
X11282503Y-15316150D02*
X11253932Y-15316150D01*
X11253932Y-15316150D02*
X11234884Y-15325674D01*
X11234884Y-15325674D02*
X11225360Y-15335198D01*
X11434884Y-15449484D02*
X11415837Y-15439960D01*
X11415837Y-15439960D02*
X11406313Y-15430436D01*
X11406313Y-15430436D02*
X11396789Y-15411388D01*
X11396789Y-15411388D02*
X11396789Y-15354246D01*
X11396789Y-15354246D02*
X11406313Y-15335198D01*
X11406313Y-15335198D02*
X11415837Y-15325674D01*
X11415837Y-15325674D02*
X11434884Y-15316150D01*
X11434884Y-15316150D02*
X11463456Y-15316150D01*
X11463456Y-15316150D02*
X11482503Y-15325674D01*
X11482503Y-15325674D02*
X11492027Y-15335198D01*
X11492027Y-15335198D02*
X11501551Y-15354246D01*
X11501551Y-15354246D02*
X11501551Y-15411388D01*
X11501551Y-15411388D02*
X11492027Y-15430436D01*
X11492027Y-15430436D02*
X11482503Y-15439960D01*
X11482503Y-15439960D02*
X11463456Y-15449484D01*
X11463456Y-15449484D02*
X11434884Y-15449484D01*
X11615837Y-15449484D02*
X11596789Y-15439960D01*
X11596789Y-15439960D02*
X11587265Y-15420912D01*
X11587265Y-15420912D02*
X11587265Y-15249484D01*
X11768218Y-15439960D02*
X11749170Y-15449484D01*
X11749170Y-15449484D02*
X11711075Y-15449484D01*
X11711075Y-15449484D02*
X11692027Y-15439960D01*
X11692027Y-15439960D02*
X11682503Y-15420912D01*
X11682503Y-15420912D02*
X11682503Y-15344722D01*
X11682503Y-15344722D02*
X11692027Y-15325674D01*
X11692027Y-15325674D02*
X11711075Y-15316150D01*
X11711075Y-15316150D02*
X11749170Y-15316150D01*
X11749170Y-15316150D02*
X11768218Y-15325674D01*
X11768218Y-15325674D02*
X11777741Y-15344722D01*
X11777741Y-15344722D02*
X11777741Y-15363769D01*
X11777741Y-15363769D02*
X11682503Y-15382817D01*
X11853932Y-15439960D02*
X11872980Y-15449484D01*
X11872980Y-15449484D02*
X11911075Y-15449484D01*
X11911075Y-15449484D02*
X11930122Y-15439960D01*
X11930122Y-15439960D02*
X11939646Y-15420912D01*
X11939646Y-15420912D02*
X11939646Y-15411388D01*
X11939646Y-15411388D02*
X11930122Y-15392341D01*
X11930122Y-15392341D02*
X11911075Y-15382817D01*
X11911075Y-15382817D02*
X11882503Y-15382817D01*
X11882503Y-15382817D02*
X11863456Y-15373293D01*
X11863456Y-15373293D02*
X11853932Y-15354246D01*
X11853932Y-15354246D02*
X11853932Y-15344722D01*
X11853932Y-15344722D02*
X11863456Y-15325674D01*
X11863456Y-15325674D02*
X11882503Y-15316150D01*
X11882503Y-15316150D02*
X11911075Y-15316150D01*
X11911075Y-15316150D02*
X11930122Y-15325674D01*
X12006313Y-15525674D02*
X12015837Y-15516150D01*
X12015837Y-15516150D02*
X12034884Y-15487579D01*
X12034884Y-15487579D02*
X12044408Y-15468531D01*
X12044408Y-15468531D02*
X12053932Y-15439960D01*
X12053932Y-15439960D02*
X12063456Y-15392341D01*
X12063456Y-15392341D02*
X12063456Y-15354246D01*
X12063456Y-15354246D02*
X12053932Y-15306627D01*
X12053932Y-15306627D02*
X12044408Y-15278055D01*
X12044408Y-15278055D02*
X12034884Y-15259008D01*
X12034884Y-15259008D02*
X12015837Y-15230436D01*
X12015837Y-15230436D02*
X12006313Y-15220912D01*
X12368218Y-15525674D02*
X12358694Y-15516150D01*
X12358694Y-15516150D02*
X12339646Y-15487579D01*
X12339646Y-15487579D02*
X12330122Y-15468531D01*
X12330122Y-15468531D02*
X12320599Y-15439960D01*
X12320599Y-15439960D02*
X12311075Y-15392341D01*
X12311075Y-15392341D02*
X12311075Y-15354246D01*
X12311075Y-15354246D02*
X12320599Y-15306627D01*
X12320599Y-15306627D02*
X12330122Y-15278055D01*
X12330122Y-15278055D02*
X12339646Y-15259008D01*
X12339646Y-15259008D02*
X12358694Y-15230436D01*
X12358694Y-15230436D02*
X12368218Y-15220912D01*
X12444408Y-15316150D02*
X12444408Y-15449484D01*
X12444408Y-15335198D02*
X12453932Y-15325674D01*
X12453932Y-15325674D02*
X12472980Y-15316150D01*
X12472980Y-15316150D02*
X12501551Y-15316150D01*
X12501551Y-15316150D02*
X12520599Y-15325674D01*
X12520599Y-15325674D02*
X12530122Y-15344722D01*
X12530122Y-15344722D02*
X12530122Y-15449484D01*
X12653932Y-15449484D02*
X12634884Y-15439960D01*
X12634884Y-15439960D02*
X12625361Y-15430436D01*
X12625361Y-15430436D02*
X12615837Y-15411388D01*
X12615837Y-15411388D02*
X12615837Y-15354246D01*
X12615837Y-15354246D02*
X12625361Y-15335198D01*
X12625361Y-15335198D02*
X12634884Y-15325674D01*
X12634884Y-15325674D02*
X12653932Y-15316150D01*
X12653932Y-15316150D02*
X12682503Y-15316150D01*
X12682503Y-15316150D02*
X12701551Y-15325674D01*
X12701551Y-15325674D02*
X12711075Y-15335198D01*
X12711075Y-15335198D02*
X12720599Y-15354246D01*
X12720599Y-15354246D02*
X12720599Y-15411388D01*
X12720599Y-15411388D02*
X12711075Y-15430436D01*
X12711075Y-15430436D02*
X12701551Y-15439960D01*
X12701551Y-15439960D02*
X12682503Y-15449484D01*
X12682503Y-15449484D02*
X12653932Y-15449484D01*
X12777742Y-15316150D02*
X12853932Y-15316150D01*
X12806313Y-15249484D02*
X12806313Y-15420912D01*
X12806313Y-15420912D02*
X12815837Y-15439960D01*
X12815837Y-15439960D02*
X12834884Y-15449484D01*
X12834884Y-15449484D02*
X12853932Y-15449484D01*
X13072980Y-15316150D02*
X13072980Y-15516150D01*
X13072980Y-15325674D02*
X13092027Y-15316150D01*
X13092027Y-15316150D02*
X13130123Y-15316150D01*
X13130123Y-15316150D02*
X13149170Y-15325674D01*
X13149170Y-15325674D02*
X13158694Y-15335198D01*
X13158694Y-15335198D02*
X13168218Y-15354246D01*
X13168218Y-15354246D02*
X13168218Y-15411388D01*
X13168218Y-15411388D02*
X13158694Y-15430436D01*
X13158694Y-15430436D02*
X13149170Y-15439960D01*
X13149170Y-15439960D02*
X13130123Y-15449484D01*
X13130123Y-15449484D02*
X13092027Y-15449484D01*
X13092027Y-15449484D02*
X13072980Y-15439960D01*
X13282503Y-15449484D02*
X13263456Y-15439960D01*
X13263456Y-15439960D02*
X13253932Y-15420912D01*
X13253932Y-15420912D02*
X13253932Y-15249484D01*
X13444408Y-15449484D02*
X13444408Y-15344722D01*
X13444408Y-15344722D02*
X13434884Y-15325674D01*
X13434884Y-15325674D02*
X13415837Y-15316150D01*
X13415837Y-15316150D02*
X13377742Y-15316150D01*
X13377742Y-15316150D02*
X13358694Y-15325674D01*
X13444408Y-15439960D02*
X13425361Y-15449484D01*
X13425361Y-15449484D02*
X13377742Y-15449484D01*
X13377742Y-15449484D02*
X13358694Y-15439960D01*
X13358694Y-15439960D02*
X13349170Y-15420912D01*
X13349170Y-15420912D02*
X13349170Y-15401865D01*
X13349170Y-15401865D02*
X13358694Y-15382817D01*
X13358694Y-15382817D02*
X13377742Y-15373293D01*
X13377742Y-15373293D02*
X13425361Y-15373293D01*
X13425361Y-15373293D02*
X13444408Y-15363769D01*
X13511075Y-15316150D02*
X13587265Y-15316150D01*
X13539646Y-15249484D02*
X13539646Y-15420912D01*
X13539646Y-15420912D02*
X13549170Y-15439960D01*
X13549170Y-15439960D02*
X13568218Y-15449484D01*
X13568218Y-15449484D02*
X13587265Y-15449484D01*
X13730123Y-15439960D02*
X13711075Y-15449484D01*
X13711075Y-15449484D02*
X13672980Y-15449484D01*
X13672980Y-15449484D02*
X13653932Y-15439960D01*
X13653932Y-15439960D02*
X13644408Y-15420912D01*
X13644408Y-15420912D02*
X13644408Y-15344722D01*
X13644408Y-15344722D02*
X13653932Y-15325674D01*
X13653932Y-15325674D02*
X13672980Y-15316150D01*
X13672980Y-15316150D02*
X13711075Y-15316150D01*
X13711075Y-15316150D02*
X13730123Y-15325674D01*
X13730123Y-15325674D02*
X13739646Y-15344722D01*
X13739646Y-15344722D02*
X13739646Y-15363769D01*
X13739646Y-15363769D02*
X13644408Y-15382817D01*
X13911075Y-15449484D02*
X13911075Y-15249484D01*
X13911075Y-15439960D02*
X13892027Y-15449484D01*
X13892027Y-15449484D02*
X13853932Y-15449484D01*
X13853932Y-15449484D02*
X13834884Y-15439960D01*
X13834884Y-15439960D02*
X13825361Y-15430436D01*
X13825361Y-15430436D02*
X13815837Y-15411388D01*
X13815837Y-15411388D02*
X13815837Y-15354246D01*
X13815837Y-15354246D02*
X13825361Y-15335198D01*
X13825361Y-15335198D02*
X13834884Y-15325674D01*
X13834884Y-15325674D02*
X13853932Y-15316150D01*
X13853932Y-15316150D02*
X13892027Y-15316150D01*
X13892027Y-15316150D02*
X13911075Y-15325674D01*
X13987265Y-15525674D02*
X13996789Y-15516150D01*
X13996789Y-15516150D02*
X14015837Y-15487579D01*
X14015837Y-15487579D02*
X14025361Y-15468531D01*
X14025361Y-15468531D02*
X14034884Y-15439960D01*
X14034884Y-15439960D02*
X14044408Y-15392341D01*
X14044408Y-15392341D02*
X14044408Y-15354246D01*
X14044408Y-15354246D02*
X14034884Y-15306627D01*
X14034884Y-15306627D02*
X14025361Y-15278055D01*
X14025361Y-15278055D02*
X14015837Y-15259008D01*
X14015837Y-15259008D02*
X13996789Y-15230436D01*
X13996789Y-15230436D02*
X13987265Y-15220912D01*
M02*
