%TF.GenerationSoftware,KiCad,Pcbnew,8.0.8*%
%TF.CreationDate,2025-01-19T15:15:32+07:00*%
%TF.ProjectId,HW.ACIM-PSU,48572e41-4349-44d2-9d50-53552e6b6963,0.1*%
%TF.SameCoordinates,Original*%
%TF.FileFunction,Paste,Bot*%
%TF.FilePolarity,Positive*%
%FSLAX46Y46*%
G04 Gerber Fmt 4.6, Leading zero omitted, Abs format (unit mm)*
G04 Created by KiCad (PCBNEW 8.0.8) date 2025-01-19 15:15:32*
%MOMM*%
%LPD*%
G01*
G04 APERTURE LIST*
G04 Aperture macros list*
%AMRoundRect*
0 Rectangle with rounded corners*
0 $1 Rounding radius*
0 $2 $3 $4 $5 $6 $7 $8 $9 X,Y pos of 4 corners*
0 Add a 4 corners polygon primitive as box body*
4,1,4,$2,$3,$4,$5,$6,$7,$8,$9,$2,$3,0*
0 Add four circle primitives for the rounded corners*
1,1,$1+$1,$2,$3*
1,1,$1+$1,$4,$5*
1,1,$1+$1,$6,$7*
1,1,$1+$1,$8,$9*
0 Add four rect primitives between the rounded corners*
20,1,$1+$1,$2,$3,$4,$5,0*
20,1,$1+$1,$4,$5,$6,$7,0*
20,1,$1+$1,$6,$7,$8,$9,0*
20,1,$1+$1,$8,$9,$2,$3,0*%
%AMFreePoly0*
4,1,19,0.400000,-0.938424,1.003549,-1.546478,1.005000,-1.550000,1.005000,-3.550000,1.003536,-3.553536,1.003000,-3.554000,0.303000,-4.079000,0.300000,-4.080000,-0.300000,-4.080000,-0.303000,-4.079000,-1.003000,-3.554000,-1.004950,-3.550707,-1.005000,-3.550000,-1.005000,-1.550000,-1.003549,-1.546478,-0.400000,-0.938424,-0.400000,0.950000,0.400000,0.950000,0.400000,-0.938424,0.400000,-0.938424,
$1*%
G04 Aperture macros list end*
%ADD10R,0.650000X1.000000*%
%ADD11R,1.700000X0.900000*%
%ADD12RoundRect,0.125000X-0.300000X0.000010X-0.300000X-0.000010X0.300000X-0.000010X0.300000X0.000010X0*%
%ADD13R,1.500000X1.600000*%
%ADD14R,0.600000X1.500000*%
%ADD15R,0.700000X0.700000*%
%ADD16R,1.900000X0.600000*%
%ADD17FreePoly0,90.000000*%
%ADD18R,2.200000X2.300000*%
%ADD19R,0.900000X1.700000*%
%ADD20R,0.900000X0.800000*%
%ADD21R,1.300000X2.500000*%
%ADD22R,1.000000X0.650000*%
%ADD23R,2.800000X2.000000*%
%ADD24R,1.900000X0.950000*%
%ADD25R,1.900000X3.250000*%
%ADD26FreePoly0,270.000000*%
%ADD27R,4.200000X1.500000*%
%ADD28RoundRect,0.125000X0.000010X0.300000X-0.000010X0.300000X-0.000010X-0.300000X0.000010X-0.300000X0*%
%ADD29R,1.600000X1.500000*%
G04 APERTURE END LIST*
D10*
%TO.C,C18*%
X138562500Y-136955002D03*
X137112500Y-136955002D03*
%TD*%
D11*
%TO.C,C2*%
X73887500Y-136004998D03*
X73887500Y-139004998D03*
%TD*%
D10*
%TO.C,C27*%
X165462501Y-128825000D03*
X166912499Y-128825000D03*
%TD*%
D12*
%TO.C,U3*%
X135637500Y-137005002D03*
X135637500Y-137505002D03*
X135637500Y-138005002D03*
X135637500Y-138505002D03*
X132737500Y-138505002D03*
X132737500Y-138005002D03*
X132737500Y-137505002D03*
X132737500Y-137005002D03*
D13*
X134187500Y-137755002D03*
%TD*%
D14*
%TO.C,D3*%
X161487500Y-119369999D03*
X158287500Y-119369999D03*
%TD*%
D15*
%TO.C,D2*%
X158687500Y-117369999D03*
X161087500Y-117369999D03*
%TD*%
D16*
%TO.C,U2*%
X162837500Y-109185000D03*
D17*
X162837500Y-107685000D03*
D16*
X162837500Y-106185000D03*
%TD*%
D10*
%TO.C,R14*%
X138562499Y-135355002D03*
X137112501Y-135355002D03*
%TD*%
D11*
%TO.C,R8*%
X107337500Y-122755000D03*
X107337500Y-119755000D03*
%TD*%
D18*
%TO.C,D1*%
X96787500Y-144555000D03*
X91887500Y-144555000D03*
%TD*%
D19*
%TO.C,C31*%
X165187500Y-104085000D03*
X162187500Y-104085000D03*
%TD*%
D18*
%TO.C,D6*%
X154037501Y-144555000D03*
X149137499Y-144555000D03*
%TD*%
D19*
%TO.C,R5*%
X91337500Y-85805000D03*
X88337500Y-85805000D03*
%TD*%
D20*
%TO.C,Q2*%
X165187500Y-121250001D03*
X165189689Y-123150716D03*
X162987501Y-122200001D03*
%TD*%
D21*
%TO.C,C30*%
X166487500Y-126025000D03*
X163687500Y-126025000D03*
%TD*%
D10*
%TO.C,R13*%
X135862500Y-135355002D03*
X134412500Y-135355002D03*
%TD*%
D19*
%TO.C,C17*%
X132687500Y-140505002D03*
X135687500Y-140505002D03*
%TD*%
%TO.C,C26*%
X162187500Y-135875000D03*
X165187500Y-135875000D03*
%TD*%
D22*
%TO.C,C7*%
X81737500Y-125654996D03*
X81737500Y-124204998D03*
%TD*%
D10*
%TO.C,R12*%
X137112501Y-138555002D03*
X138562499Y-138555002D03*
%TD*%
D22*
%TO.C,C29*%
X161887500Y-125300001D03*
X161887500Y-126749999D03*
%TD*%
%TO.C,R11*%
X166737500Y-121475002D03*
X166737500Y-122925000D03*
%TD*%
D10*
%TO.C,C28*%
X164212499Y-128825000D03*
X162762501Y-128825000D03*
%TD*%
D23*
%TO.C,L2*%
X125987500Y-137755002D03*
X125987500Y-145855000D03*
%TD*%
D22*
%TO.C,R10*%
X166737500Y-117845000D03*
X166737500Y-119294998D03*
%TD*%
D20*
%TO.C,Q1*%
X165187500Y-117619999D03*
X165189689Y-119520714D03*
X162987501Y-118569999D03*
%TD*%
D11*
%TO.C,R9*%
X105287500Y-122755000D03*
X105287500Y-119755000D03*
%TD*%
D10*
%TO.C,C5*%
X75912501Y-134404998D03*
X77362499Y-134404998D03*
%TD*%
D19*
%TO.C,R7*%
X93337500Y-85805000D03*
X96337500Y-85805000D03*
%TD*%
%TO.C,R6*%
X93337500Y-87855000D03*
X96337500Y-87855000D03*
%TD*%
D10*
%TO.C,C4*%
X95062500Y-141555000D03*
X93612500Y-141555000D03*
%TD*%
%TO.C,C12*%
X162212501Y-111135000D03*
X163662499Y-111135000D03*
%TD*%
D19*
%TO.C,R4*%
X91337500Y-87855000D03*
X88337500Y-87855000D03*
%TD*%
D22*
%TO.C,R2*%
X79037500Y-138229997D03*
X79037500Y-136779999D03*
%TD*%
D10*
%TO.C,C22*%
X133162499Y-135355002D03*
X131712501Y-135355002D03*
%TD*%
D24*
%TO.C,U5*%
X157437500Y-125675000D03*
X157437500Y-127975000D03*
X157437500Y-130275000D03*
D25*
X151337500Y-127975000D03*
%TD*%
D23*
%TO.C,L1*%
X76637500Y-132304998D03*
X76637500Y-124205000D03*
%TD*%
D22*
%TO.C,R1*%
X75837500Y-140429999D03*
X75837500Y-141879997D03*
%TD*%
D16*
%TO.C,U4*%
X164537500Y-130775000D03*
D26*
X164537500Y-132275000D03*
D16*
X164537500Y-133775000D03*
%TD*%
D15*
%TO.C,D5*%
X158687500Y-123400002D03*
X161087500Y-123400002D03*
%TD*%
D27*
%TO.C,G1*%
X92337500Y-59305000D03*
X92337500Y-63805000D03*
%TD*%
D22*
%TO.C,C3*%
X77437500Y-141879997D03*
X77437500Y-140429999D03*
%TD*%
D10*
%TO.C,C21*%
X152312499Y-141555000D03*
X150862501Y-141555000D03*
%TD*%
D22*
%TO.C,C20*%
X131087500Y-138480001D03*
X131087500Y-137030003D03*
%TD*%
D28*
%TO.C,U1*%
X77387500Y-138954998D03*
X76887500Y-138954998D03*
X76387500Y-138954998D03*
X75887500Y-138954998D03*
X75887500Y-136054998D03*
X76387500Y-136054998D03*
X76887500Y-136054998D03*
X77387500Y-136054998D03*
D29*
X76637500Y-137504998D03*
%TD*%
D14*
%TO.C,D4*%
X161487500Y-121400001D03*
X158287500Y-121400001D03*
%TD*%
D11*
%TO.C,C25*%
X159887500Y-128275000D03*
X159887500Y-125275000D03*
%TD*%
D22*
%TO.C,R3*%
X79037500Y-141879997D03*
X79037500Y-140429999D03*
%TD*%
M02*
