%TF.GenerationSoftware,KiCad,Pcbnew,8.0.8*%
%TF.CreationDate,2025-01-19T15:15:32+07:00*%
%TF.ProjectId,HW.ACIM-PSU,48572e41-4349-44d2-9d50-53552e6b6963,0.1*%
%TF.SameCoordinates,Original*%
%TF.FileFunction,Soldermask,Bot*%
%TF.FilePolarity,Negative*%
%FSLAX46Y46*%
G04 Gerber Fmt 4.6, Leading zero omitted, Abs format (unit mm)*
G04 Created by KiCad (PCBNEW 8.0.8) date 2025-01-19 15:15:32*
%MOMM*%
%LPD*%
G01*
G04 APERTURE LIST*
G04 Aperture macros list*
%AMRoundRect*
0 Rectangle with rounded corners*
0 $1 Rounding radius*
0 $2 $3 $4 $5 $6 $7 $8 $9 X,Y pos of 4 corners*
0 Add a 4 corners polygon primitive as box body*
4,1,4,$2,$3,$4,$5,$6,$7,$8,$9,$2,$3,0*
0 Add four circle primitives for the rounded corners*
1,1,$1+$1,$2,$3*
1,1,$1+$1,$4,$5*
1,1,$1+$1,$6,$7*
1,1,$1+$1,$8,$9*
0 Add four rect primitives between the rounded corners*
20,1,$1+$1,$2,$3,$4,$5,0*
20,1,$1+$1,$4,$5,$6,$7,0*
20,1,$1+$1,$6,$7,$8,$9,0*
20,1,$1+$1,$8,$9,$2,$3,0*%
%AMFreePoly0*
4,1,19,0.400000,-0.938424,1.003549,-1.546478,1.005000,-1.550000,1.005000,-3.550000,1.003536,-3.553536,1.003000,-3.554000,0.303000,-4.079000,0.300000,-4.080000,-0.300000,-4.080000,-0.303000,-4.079000,-1.003000,-3.554000,-1.004950,-3.550707,-1.005000,-3.550000,-1.005000,-1.550000,-1.003549,-1.546478,-0.400000,-0.938424,-0.400000,0.950000,0.400000,0.950000,0.400000,-0.938424,0.400000,-0.938424,
$1*%
G04 Aperture macros list end*
%ADD10C,1.200000*%
%ADD11C,1.000000*%
%ADD12RoundRect,0.450000X-0.450000X0.450000X-0.450000X-0.450000X0.450000X-0.450000X0.450000X0.450000X0*%
%ADD13C,1.800000*%
%ADD14C,4.500000*%
%ADD15C,1.600000*%
%ADD16R,3.000000X2.500000*%
%ADD17RoundRect,0.347222X-0.902778X-0.902778X0.902778X-0.902778X0.902778X0.902778X-0.902778X0.902778X0*%
%ADD18C,2.500000*%
%ADD19C,2.000000*%
%ADD20C,3.500000*%
%ADD21RoundRect,0.250000X0.750000X-0.750000X0.750000X0.750000X-0.750000X0.750000X-0.750000X-0.750000X0*%
%ADD22RoundRect,0.300000X-0.700000X0.700000X-0.700000X-0.700000X0.700000X-0.700000X0.700000X0.700000X0*%
%ADD23C,2.600000*%
%ADD24C,1.400000*%
%ADD25R,3.500000X3.500000*%
%ADD26C,1.500000*%
%ADD27R,0.650000X1.000000*%
%ADD28R,1.700000X0.900000*%
%ADD29RoundRect,0.125000X-0.300000X0.000010X-0.300000X-0.000010X0.300000X-0.000010X0.300000X0.000010X0*%
%ADD30R,1.500000X1.600000*%
%ADD31R,0.600000X1.500000*%
%ADD32R,0.700000X0.700000*%
%ADD33R,1.900000X0.600000*%
%ADD34FreePoly0,90.000000*%
%ADD35R,2.200000X2.300000*%
%ADD36R,0.900000X1.700000*%
%ADD37R,0.900000X0.800000*%
%ADD38R,1.300000X2.500000*%
%ADD39R,1.000000X0.650000*%
%ADD40R,2.800000X2.000000*%
%ADD41R,1.900000X0.950000*%
%ADD42R,1.900000X3.250000*%
%ADD43FreePoly0,270.000000*%
%ADD44R,4.200000X1.500000*%
%ADD45RoundRect,0.125000X0.000010X0.300000X-0.000010X0.300000X-0.000010X-0.300000X0.000010X-0.300000X0*%
%ADD46R,1.600000X1.500000*%
G04 APERTURE END LIST*
D10*
X72937500Y-121655000D02*
X83837500Y-121655000D01*
X91837500Y-129655000D02*
X138837500Y-129655000D01*
X85987500Y-68554565D02*
X103337500Y-68554565D01*
D11*
X80753684Y-93403792D02*
X82084233Y-94734341D01*
X72858159Y-93403792D02*
X80753684Y-93403792D01*
D10*
X161329589Y-55262911D02*
X159737500Y-56855000D01*
X159737500Y-59755000D02*
X157441957Y-62050543D01*
X111739479Y-96013950D02*
X108787500Y-93061971D01*
X103336739Y-68554565D02*
X120037500Y-51853804D01*
X138837500Y-129655000D02*
X159837500Y-108655000D01*
X135423460Y-84635388D02*
X135423460Y-110285388D01*
X126958866Y-116276366D02*
X124640964Y-113958464D01*
D11*
X77558159Y-111734341D02*
X80304238Y-114480420D01*
D10*
X105992500Y-145265000D02*
X105992500Y-146515000D01*
X111890856Y-118205108D02*
X113812020Y-116283944D01*
X110350264Y-80454837D02*
X112837500Y-77967601D01*
X123450102Y-77967601D02*
X112837500Y-77967601D01*
D11*
X82084233Y-96608267D02*
X77558159Y-101134341D01*
D10*
X135423460Y-110285388D02*
X129426799Y-116282049D01*
X115704062Y-116265990D02*
X113414509Y-113976437D01*
X169687500Y-93915230D02*
X167539756Y-93915230D01*
X114435036Y-115946964D02*
X113711884Y-115223812D01*
X167539756Y-93915230D02*
X165499986Y-95955000D01*
X138850670Y-81208178D02*
X135423460Y-84635388D01*
X85987500Y-65855000D02*
X85987500Y-68555000D01*
X124487500Y-64405000D02*
X126824021Y-62068479D01*
X145787500Y-131655000D02*
X148087500Y-129355000D01*
X159837500Y-108655000D02*
X159837500Y-103655000D01*
X113390964Y-102208464D02*
X111738878Y-100556378D01*
X106237500Y-115355000D02*
X106237500Y-100455000D01*
X107108159Y-116384341D02*
X105399691Y-116384341D01*
X109087500Y-118205000D02*
X106237500Y-115355000D01*
X124231726Y-97093675D02*
X126293050Y-99154999D01*
X113390964Y-102208464D02*
X113390964Y-116705000D01*
X102497827Y-96715327D02*
X102497827Y-94705000D01*
D11*
X80303666Y-114485171D02*
X88708989Y-114485171D01*
D10*
X106729497Y-135355001D02*
X109029497Y-133055001D01*
X169737500Y-61605000D02*
X163396242Y-55263742D01*
D11*
X77558159Y-111734341D02*
X77558159Y-101134341D01*
D10*
X126293050Y-100756378D02*
X126293050Y-99154999D01*
D11*
X91108159Y-116884341D02*
X88708989Y-114485171D01*
D10*
X157437500Y-62055000D02*
X126837500Y-62055000D01*
X125337500Y-81502913D02*
X123276176Y-83564237D01*
X115087500Y-96054999D02*
X115087500Y-84804999D01*
X138873460Y-81204999D02*
X157637500Y-81204999D01*
X167637500Y-71204999D02*
X169737500Y-71204999D01*
X104839520Y-116752980D02*
X106237500Y-115355000D01*
X110350264Y-86854999D02*
X110350264Y-80454837D01*
X124640964Y-102408464D02*
X124640964Y-113958464D01*
X108787500Y-93061971D02*
X104140856Y-93061971D01*
X154749908Y-51867408D02*
X159737500Y-56855000D01*
X83837500Y-121655000D02*
X91837500Y-129655000D01*
X126293050Y-100756378D02*
X124640964Y-102408464D01*
X123450102Y-77967601D02*
X125337500Y-79854999D01*
X106236002Y-100453502D02*
X102497827Y-96715327D01*
X124487500Y-64405000D02*
X124491088Y-66908588D01*
X109087500Y-118205000D02*
X111887500Y-118205000D01*
X113423460Y-116285388D02*
X129423460Y-116285388D01*
X124640964Y-113958464D02*
X122323062Y-116276366D01*
D11*
X82084233Y-96608267D02*
X82084233Y-94734341D01*
D10*
X120037500Y-51853804D02*
X154737500Y-51853804D01*
X165499986Y-97992514D02*
X165499986Y-95955000D01*
X168179497Y-114905001D02*
X169629497Y-114905001D01*
X125337500Y-81502913D02*
X125337500Y-79854999D01*
X138837500Y-81255000D02*
X124491088Y-66908588D01*
X161364306Y-55255001D02*
X163387500Y-55255001D01*
X159837500Y-103655000D02*
X165499986Y-97992514D01*
X125923460Y-115335388D02*
X123334456Y-115335388D01*
X167637500Y-71204999D02*
X157637500Y-81204999D01*
X159737500Y-59755000D02*
X159737500Y-56855000D01*
X104140856Y-93061971D02*
X102497827Y-94705000D01*
D11*
X91108159Y-116884341D02*
X107908159Y-116884341D01*
D10*
X85987500Y-65855000D02*
X102137500Y-65855000D01*
X111739479Y-100517252D02*
X111739479Y-96013950D01*
X102137500Y-65855000D02*
X118136270Y-49856230D01*
D12*
%TO.C,J4*%
X168737500Y-55614999D03*
D13*
X168737500Y-58155000D03*
X168737500Y-63235000D03*
X168737500Y-65774999D03*
X168737500Y-68315001D03*
X168737500Y-73395000D03*
X168737500Y-75935000D03*
X168737500Y-78475001D03*
%TD*%
D12*
%TO.C,J6*%
X168737500Y-122925000D03*
D13*
X168737500Y-125465000D03*
X168737500Y-128005000D03*
X168737500Y-130544999D03*
X168737500Y-133085001D03*
X168737500Y-135625000D03*
X168737500Y-138165000D03*
X168737500Y-140705000D03*
%TD*%
D12*
%TO.C,J3*%
X168737500Y-102605000D03*
D13*
X168737500Y-105145000D03*
X168737500Y-107685000D03*
X168737500Y-110224999D03*
X168737500Y-117845000D03*
X168737500Y-120385000D03*
%TD*%
D14*
%TO.C,SH5*%
X74587500Y-90465001D03*
%TD*%
D15*
%TO.C,C6*%
X80387500Y-100755000D03*
X80387500Y-110755000D03*
%TD*%
%TO.C,J5*%
X113607501Y-144505000D03*
X111067499Y-144505000D03*
%TD*%
D16*
%TO.C,J7*%
X92337500Y-56695000D03*
X92337500Y-51615000D03*
%TD*%
%TO.C,J8*%
X102337500Y-56695000D03*
X102337500Y-51615000D03*
%TD*%
D17*
%TO.C,B1*%
X156562500Y-57905000D03*
D18*
X162912500Y-57905000D03*
%TD*%
D14*
%TO.C,SH3*%
X110087500Y-51405000D03*
%TD*%
D19*
%TO.C,RL1*%
X124337501Y-99955000D03*
X114137499Y-99955000D03*
D20*
X119237500Y-97255001D03*
X128137500Y-112655000D03*
X110337500Y-122755000D03*
X110337500Y-115155000D03*
%TD*%
D21*
%TO.C,MD1*%
X96837500Y-115155000D03*
D19*
X91837500Y-115155000D03*
X102037500Y-144555000D03*
X86637500Y-144555000D03*
%TD*%
D15*
%TO.C,C19*%
X104287500Y-100755000D03*
X104287500Y-110755000D03*
%TD*%
D22*
%TO.C,MD2*%
X155437500Y-102054999D03*
D19*
X147637500Y-102054999D03*
X162937500Y-144555000D03*
X140137500Y-144555000D03*
%TD*%
D14*
%TO.C,SH8*%
X168087500Y-144905000D03*
%TD*%
%TO.C,SH6*%
X74587500Y-144905000D03*
%TD*%
%TO.C,SH9*%
X110087500Y-138215001D03*
%TD*%
%TO.C,SH4*%
X74587500Y-51405000D03*
%TD*%
%TO.C,SH7*%
X110087500Y-90465001D03*
%TD*%
%TO.C,SH2*%
X168087500Y-51405000D03*
%TD*%
D23*
%TO.C,BR1*%
X104837500Y-95705000D03*
X94837500Y-95705000D03*
X87337500Y-95705000D03*
X79837500Y-95705000D03*
%TD*%
D24*
%TO.C,FT1*%
X90337500Y-109155000D03*
X85337500Y-109155000D03*
X90337500Y-102355000D03*
X85337500Y-102355000D03*
%TD*%
D13*
%TO.C,FT2*%
X88337500Y-76355000D03*
X88337500Y-83355000D03*
X96337500Y-76355000D03*
X96337500Y-83355000D03*
%TD*%
%TO.C,C8*%
X99837500Y-63905000D03*
X84837500Y-63905000D03*
%TD*%
D16*
%TO.C,J2*%
X82337500Y-56695000D03*
X82337500Y-51615000D03*
%TD*%
D24*
%TO.C,FT4*%
X94237500Y-102355000D03*
X99237500Y-102355000D03*
X94237500Y-109155000D03*
X99237500Y-109155000D03*
%TD*%
D25*
%TO.C,C16*%
X147637500Y-76204999D03*
D20*
X147637500Y-86204999D03*
%TD*%
D26*
%TO.C,M1*%
X94837500Y-71955000D03*
X89837500Y-70455000D03*
%TD*%
D19*
%TO.C,RL2*%
X113237499Y-80705000D03*
X123437501Y-80705000D03*
D20*
X118337500Y-83404999D03*
X109437500Y-68005000D03*
X127237500Y-57905000D03*
X127237500Y-65505000D03*
%TD*%
D26*
%TO.C,M3*%
X86587500Y-57405000D03*
X88087500Y-52405000D03*
%TD*%
D13*
%TO.C,C14*%
X99837500Y-89605000D03*
X84837500Y-89605000D03*
%TD*%
D14*
%TO.C,SH1*%
X168087500Y-90465001D03*
%TD*%
D26*
%TO.C,M2*%
X96587500Y-57405000D03*
X98087500Y-52405000D03*
%TD*%
D27*
%TO.C,C18*%
X138562500Y-136955002D03*
X137112500Y-136955002D03*
%TD*%
D28*
%TO.C,C2*%
X73887500Y-136004998D03*
X73887500Y-139004998D03*
%TD*%
D27*
%TO.C,C27*%
X165462501Y-128825000D03*
X166912499Y-128825000D03*
%TD*%
D29*
%TO.C,U3*%
X135637500Y-137005002D03*
X135637500Y-137505002D03*
X135637500Y-138005002D03*
X135637500Y-138505002D03*
X132737500Y-138505002D03*
X132737500Y-138005002D03*
X132737500Y-137505002D03*
X132737500Y-137005002D03*
D30*
X134187500Y-137755002D03*
%TD*%
D31*
%TO.C,D3*%
X161487500Y-119369999D03*
X158287500Y-119369999D03*
%TD*%
D32*
%TO.C,D2*%
X158687500Y-117369999D03*
X161087500Y-117369999D03*
%TD*%
D33*
%TO.C,U2*%
X162837500Y-109185000D03*
D34*
X162837500Y-107685000D03*
D33*
X162837500Y-106185000D03*
%TD*%
D27*
%TO.C,R14*%
X138562499Y-135355002D03*
X137112501Y-135355002D03*
%TD*%
D28*
%TO.C,R8*%
X107337500Y-122755000D03*
X107337500Y-119755000D03*
%TD*%
D35*
%TO.C,D1*%
X96787500Y-144555000D03*
X91887500Y-144555000D03*
%TD*%
D36*
%TO.C,C31*%
X165187500Y-104085000D03*
X162187500Y-104085000D03*
%TD*%
D35*
%TO.C,D6*%
X154037501Y-144555000D03*
X149137499Y-144555000D03*
%TD*%
D36*
%TO.C,R5*%
X91337500Y-85805000D03*
X88337500Y-85805000D03*
%TD*%
D37*
%TO.C,Q2*%
X165187500Y-121250001D03*
X165189689Y-123150716D03*
X162987501Y-122200001D03*
%TD*%
D38*
%TO.C,C30*%
X166487500Y-126025000D03*
X163687500Y-126025000D03*
%TD*%
D27*
%TO.C,R13*%
X135862500Y-135355002D03*
X134412500Y-135355002D03*
%TD*%
D36*
%TO.C,C17*%
X132687500Y-140505002D03*
X135687500Y-140505002D03*
%TD*%
%TO.C,C26*%
X162187500Y-135875000D03*
X165187500Y-135875000D03*
%TD*%
D39*
%TO.C,C7*%
X81737500Y-125654996D03*
X81737500Y-124204998D03*
%TD*%
D27*
%TO.C,R12*%
X137112501Y-138555002D03*
X138562499Y-138555002D03*
%TD*%
D39*
%TO.C,C29*%
X161887500Y-125300001D03*
X161887500Y-126749999D03*
%TD*%
%TO.C,R11*%
X166737500Y-121475002D03*
X166737500Y-122925000D03*
%TD*%
D27*
%TO.C,C28*%
X164212499Y-128825000D03*
X162762501Y-128825000D03*
%TD*%
D40*
%TO.C,L2*%
X125987500Y-137755002D03*
X125987500Y-145855000D03*
%TD*%
D39*
%TO.C,R10*%
X166737500Y-117845000D03*
X166737500Y-119294998D03*
%TD*%
D37*
%TO.C,Q1*%
X165187500Y-117619999D03*
X165189689Y-119520714D03*
X162987501Y-118569999D03*
%TD*%
D28*
%TO.C,R9*%
X105287500Y-122755000D03*
X105287500Y-119755000D03*
%TD*%
D27*
%TO.C,C5*%
X75912501Y-134404998D03*
X77362499Y-134404998D03*
%TD*%
D36*
%TO.C,R7*%
X93337500Y-85805000D03*
X96337500Y-85805000D03*
%TD*%
%TO.C,R6*%
X93337500Y-87855000D03*
X96337500Y-87855000D03*
%TD*%
D27*
%TO.C,C4*%
X95062500Y-141555000D03*
X93612500Y-141555000D03*
%TD*%
%TO.C,C12*%
X162212501Y-111135000D03*
X163662499Y-111135000D03*
%TD*%
D36*
%TO.C,R4*%
X91337500Y-87855000D03*
X88337500Y-87855000D03*
%TD*%
D39*
%TO.C,R2*%
X79037500Y-138229997D03*
X79037500Y-136779999D03*
%TD*%
D27*
%TO.C,C22*%
X133162499Y-135355002D03*
X131712501Y-135355002D03*
%TD*%
D41*
%TO.C,U5*%
X157437500Y-125675000D03*
X157437500Y-127975000D03*
X157437500Y-130275000D03*
D42*
X151337500Y-127975000D03*
%TD*%
D40*
%TO.C,L1*%
X76637500Y-132304998D03*
X76637500Y-124205000D03*
%TD*%
D39*
%TO.C,R1*%
X75837500Y-140429999D03*
X75837500Y-141879997D03*
%TD*%
D33*
%TO.C,U4*%
X164537500Y-130775000D03*
D43*
X164537500Y-132275000D03*
D33*
X164537500Y-133775000D03*
%TD*%
D32*
%TO.C,D5*%
X158687500Y-123400002D03*
X161087500Y-123400002D03*
%TD*%
D44*
%TO.C,G1*%
X92337500Y-59305000D03*
X92337500Y-63805000D03*
%TD*%
D39*
%TO.C,C3*%
X77437500Y-141879997D03*
X77437500Y-140429999D03*
%TD*%
D27*
%TO.C,C21*%
X152312499Y-141555000D03*
X150862501Y-141555000D03*
%TD*%
D39*
%TO.C,C20*%
X131087500Y-138480001D03*
X131087500Y-137030003D03*
%TD*%
D45*
%TO.C,U1*%
X77387500Y-138954998D03*
X76887500Y-138954998D03*
X76387500Y-138954998D03*
X75887500Y-138954998D03*
X75887500Y-136054998D03*
X76387500Y-136054998D03*
X76887500Y-136054998D03*
X77387500Y-136054998D03*
D46*
X76637500Y-137504998D03*
%TD*%
D31*
%TO.C,D4*%
X161487500Y-121400001D03*
X158287500Y-121400001D03*
%TD*%
D28*
%TO.C,C25*%
X159887500Y-128275000D03*
X159887500Y-125275000D03*
%TD*%
D39*
%TO.C,R3*%
X79037500Y-141879997D03*
X79037500Y-140429999D03*
%TD*%
M02*
