%TF.GenerationSoftware,KiCad,Pcbnew,8.0.8*%
%TF.CreationDate,2025-01-19T15:15:32+07:00*%
%TF.ProjectId,HW.ACIM-PSU,48572e41-4349-44d2-9d50-53552e6b6963,0.1*%
%TF.SameCoordinates,Original*%
%TF.FileFunction,Copper,L1,Top*%
%TF.FilePolarity,Positive*%
%FSLAX46Y46*%
G04 Gerber Fmt 4.6, Leading zero omitted, Abs format (unit mm)*
G04 Created by KiCad (PCBNEW 8.0.8) date 2025-01-19 15:15:32*
%MOMM*%
%LPD*%
G01*
G04 APERTURE LIST*
G04 Aperture macros list*
%AMRoundRect*
0 Rectangle with rounded corners*
0 $1 Rounding radius*
0 $2 $3 $4 $5 $6 $7 $8 $9 X,Y pos of 4 corners*
0 Add a 4 corners polygon primitive as box body*
4,1,4,$2,$3,$4,$5,$6,$7,$8,$9,$2,$3,0*
0 Add four circle primitives for the rounded corners*
1,1,$1+$1,$2,$3*
1,1,$1+$1,$4,$5*
1,1,$1+$1,$6,$7*
1,1,$1+$1,$8,$9*
0 Add four rect primitives between the rounded corners*
20,1,$1+$1,$2,$3,$4,$5,0*
20,1,$1+$1,$4,$5,$6,$7,0*
20,1,$1+$1,$6,$7,$8,$9,0*
20,1,$1+$1,$8,$9,$2,$3,0*%
G04 Aperture macros list end*
%TA.AperFunction,ComponentPad*%
%ADD10RoundRect,0.450000X-0.450000X0.450000X-0.450000X-0.450000X0.450000X-0.450000X0.450000X0.450000X0*%
%TD*%
%TA.AperFunction,ComponentPad*%
%ADD11C,1.800000*%
%TD*%
%TA.AperFunction,ComponentPad*%
%ADD12C,1.600000*%
%TD*%
%TA.AperFunction,ComponentPad*%
%ADD13R,3.000000X2.500000*%
%TD*%
%TA.AperFunction,SMDPad,CuDef*%
%ADD14R,2.200000X4.400000*%
%TD*%
%TA.AperFunction,ComponentPad*%
%ADD15RoundRect,0.347222X-0.902778X-0.902778X0.902778X-0.902778X0.902778X0.902778X-0.902778X0.902778X0*%
%TD*%
%TA.AperFunction,ComponentPad*%
%ADD16C,2.500000*%
%TD*%
%TA.AperFunction,ComponentPad*%
%ADD17C,2.000000*%
%TD*%
%TA.AperFunction,ComponentPad*%
%ADD18C,3.500000*%
%TD*%
%TA.AperFunction,ComponentPad*%
%ADD19RoundRect,0.250000X0.750000X-0.750000X0.750000X0.750000X-0.750000X0.750000X-0.750000X-0.750000X0*%
%TD*%
%TA.AperFunction,ComponentPad*%
%ADD20RoundRect,0.300000X-0.700000X0.700000X-0.700000X-0.700000X0.700000X-0.700000X0.700000X0.700000X0*%
%TD*%
%TA.AperFunction,SMDPad,CuDef*%
%ADD21R,2.000000X4.000000*%
%TD*%
%TA.AperFunction,SMDPad,CuDef*%
%ADD22R,1.700000X0.900000*%
%TD*%
%TA.AperFunction,SMDPad,CuDef*%
%ADD23R,0.800000X0.800000*%
%TD*%
%TA.AperFunction,ComponentPad*%
%ADD24C,2.600000*%
%TD*%
%TA.AperFunction,ComponentPad*%
%ADD25C,1.400000*%
%TD*%
%TA.AperFunction,SMDPad,CuDef*%
%ADD26R,4.000000X2.000000*%
%TD*%
%TA.AperFunction,ComponentPad*%
%ADD27R,3.500000X3.500000*%
%TD*%
%TA.AperFunction,ComponentPad*%
%ADD28C,1.500000*%
%TD*%
%TA.AperFunction,SMDPad,CuDef*%
%ADD29R,1.000000X0.650000*%
%TD*%
%TA.AperFunction,ViaPad*%
%ADD30C,0.480000*%
%TD*%
%TA.AperFunction,Conductor*%
%ADD31C,0.250000*%
%TD*%
%TA.AperFunction,Conductor*%
%ADD32C,0.500000*%
%TD*%
%TA.AperFunction,Conductor*%
%ADD33C,0.160000*%
%TD*%
%TA.AperFunction,Conductor*%
%ADD34C,1.000000*%
%TD*%
%TA.AperFunction,Conductor*%
%ADD35C,0.750000*%
%TD*%
G04 APERTURE END LIST*
D10*
%TO.P,J4,1,1*%
%TO.N,CHASSIS*%
X168737500Y-55614999D03*
D11*
%TO.P,J4,2,2*%
X168737500Y-58155000D03*
%TO.P,J4,4,4*%
%TO.N,VDC*%
X168737500Y-63235000D03*
%TO.P,J4,5,5*%
X168737500Y-65774999D03*
%TO.P,J4,6,6*%
X168737500Y-68315001D03*
%TO.P,J4,8,8*%
%TO.N,PGND*%
X168737500Y-73395000D03*
%TO.P,J4,9,9*%
X168737500Y-75935000D03*
%TO.P,J4,10,10*%
X168737500Y-78475001D03*
%TD*%
D10*
%TO.P,J6,1,1*%
%TO.N,GND_MCU*%
X168737500Y-122925000D03*
D11*
%TO.P,J6,2,2*%
%TO.N,+3V3_MCU*%
X168737500Y-125465000D03*
%TO.P,J6,3,3*%
%TO.N,+5V_MCU*%
X168737500Y-128005000D03*
%TO.P,J6,4,4*%
%TO.N,GND_MCU*%
X168737500Y-130544999D03*
%TO.P,J6,5,5*%
X168737500Y-133085001D03*
%TO.P,J6,6,6*%
%TO.N,+12V_MCU*%
X168737500Y-135625000D03*
%TO.P,J6,7,7*%
%TO.N,+24V_MCU*%
X168737500Y-138165000D03*
%TO.P,J6,8,8*%
%TO.N,GND_MCU*%
X168737500Y-140705000D03*
%TD*%
D10*
%TO.P,J3,1,1*%
%TO.N,GND_INV*%
X168737500Y-102605000D03*
D11*
%TO.P,J3,2,2*%
%TO.N,+16V_INV*%
X168737500Y-105145000D03*
%TO.P,J3,3,3*%
%TO.N,GND_INV*%
X168737500Y-107685000D03*
%TO.P,J3,4,4*%
%TO.N,+5V_INV*%
X168737500Y-110224999D03*
%TO.P,J3,7,7*%
%TO.N,/INVERTER POWER/PWR_RELAY*%
X168737500Y-117845000D03*
%TO.P,J3,8,8*%
%TO.N,/INVERTER POWER/~{DEV_RELAY}*%
X168737500Y-120385000D03*
%TD*%
D12*
%TO.P,C6,1,1*%
%TO.N,Net-(MD1-ACL)*%
X80387500Y-100755000D03*
%TO.P,C6,2,2*%
%TO.N,Net-(MD1-ACN)*%
X80387500Y-110755000D03*
%TD*%
%TO.P,J5,1,1*%
%TO.N,+12V_MCU*%
X113607501Y-144505000D03*
%TO.P,J5,2,2*%
%TO.N,GND_MCU*%
X111067499Y-144505000D03*
%TD*%
D13*
%TO.P,J7,1,1*%
%TO.N,CHASSIS*%
X92337500Y-56695000D03*
X92337500Y-51615000D03*
%TD*%
%TO.P,J8,1,1*%
%TO.N,Net-(C8-Pad1)*%
X102337500Y-56695000D03*
X102337500Y-51615000D03*
%TD*%
D14*
%TO.P,C23,+,+*%
%TO.N,+24V_MCU*%
X131587500Y-144605000D03*
%TO.P,C23,-,-*%
%TO.N,GND_MCU*%
X131587500Y-135705000D03*
%TD*%
D15*
%TO.P,B1,1,1*%
%TO.N,Net-(RL2-NC)*%
X156562500Y-57905000D03*
D16*
%TO.P,B1,2,2*%
%TO.N,VDC*%
X162912500Y-57905000D03*
%TD*%
D17*
%TO.P,RL1,1,COIL1*%
%TO.N,Net-(RL1-COIL1)*%
X124337501Y-99955000D03*
%TO.P,RL1,2,COIL2*%
%TO.N,+12V_MCU*%
X114137499Y-99955000D03*
D18*
%TO.P,RL1,3,COM*%
%TO.N,Net-(RL2-NC)*%
X119237500Y-97255001D03*
%TO.P,RL1,4,COM*%
X128137500Y-112655000D03*
%TO.P,RL1,5,NC*%
%TO.N,Net-(RL1-NC)*%
X110337500Y-122755000D03*
%TO.P,RL1,6,NO*%
%TO.N,Net-(BR1-DC+)*%
X110337500Y-115155000D03*
%TD*%
D19*
%TO.P,MD1,1,ACN*%
%TO.N,Net-(MD1-ACN)*%
X96837500Y-115155000D03*
D17*
%TO.P,MD1,2,ACL*%
%TO.N,Net-(MD1-ACL)*%
X91837500Y-115155000D03*
%TO.P,MD1,3,DC-*%
%TO.N,GND_INV*%
X102037500Y-144555000D03*
%TO.P,MD1,4,DC+*%
%TO.N,+24V_INV*%
X86637500Y-144555000D03*
%TD*%
D12*
%TO.P,C19,1,1*%
%TO.N,Net-(MD2-ACL)*%
X104287500Y-100755000D03*
%TO.P,C19,2,2*%
%TO.N,Net-(MD2-ACN)*%
X104287500Y-110755000D03*
%TD*%
D20*
%TO.P,MD2,1,ACN*%
%TO.N,Net-(MD2-ACN)*%
X155437500Y-102054999D03*
D17*
%TO.P,MD2,2,ACL*%
%TO.N,Net-(MD2-ACL)*%
X147637500Y-102054999D03*
%TO.P,MD2,3,DC-*%
%TO.N,GND_MCU*%
X162937500Y-144555000D03*
%TO.P,MD2,4,DC+*%
%TO.N,+24V_MCU*%
X140137500Y-144555000D03*
%TD*%
D21*
%TO.P,C24,+,+*%
%TO.N,+12V_MCU*%
X121487500Y-144855000D03*
%TO.P,C24,-,-*%
%TO.N,GND_MCU*%
X121487500Y-137755000D03*
%TD*%
D22*
%TO.P,C15,1,1*%
%TO.N,AC2*%
X100087500Y-83355000D03*
%TO.P,C15,2,2*%
%TO.N,CHASSIS*%
X100087500Y-80355000D03*
%TD*%
D14*
%TO.P,C1,+,+*%
%TO.N,+24V_INV*%
X77987500Y-140105000D03*
%TO.P,C1,-,-*%
%TO.N,GND_INV*%
X77987500Y-131205000D03*
%TD*%
D23*
%TO.P,D7,A,A*%
%TO.N,+5V_INV*%
X168337500Y-95880001D03*
%TO.P,D7,K,K*%
%TO.N,Net-(D7-PadK)*%
X168337500Y-97380001D03*
%TD*%
D24*
%TO.P,BR1,1,DC+*%
%TO.N,Net-(BR1-DC+)*%
X104837500Y-95705000D03*
%TO.P,BR1,2,AC1*%
%TO.N,AC2*%
X94837500Y-95705000D03*
%TO.P,BR1,3,AC2*%
%TO.N,AC1*%
X87337500Y-95705000D03*
%TO.P,BR1,4,DC-*%
%TO.N,PGND*%
X79837500Y-95705000D03*
%TD*%
D25*
%TO.P,FT1,1,1*%
%TO.N,AC1*%
X90337500Y-109155000D03*
%TO.P,FT1,2,2*%
%TO.N,Net-(MD1-ACN)*%
X85337500Y-109155000D03*
%TO.P,FT1,3,3*%
%TO.N,AC2*%
X90337500Y-102355000D03*
%TO.P,FT1,4,4*%
%TO.N,Net-(MD1-ACL)*%
X85337500Y-102355000D03*
%TD*%
D11*
%TO.P,FT2,1,1*%
%TO.N,Net-(C11-Pad1)*%
X88337500Y-76355000D03*
%TO.P,FT2,2,2*%
%TO.N,AC1*%
X88337500Y-83355000D03*
%TO.P,FT2,3,3*%
%TO.N,Net-(C8-Pad1)*%
X96337500Y-76355000D03*
%TO.P,FT2,4,4*%
%TO.N,AC2*%
X96337500Y-83355000D03*
%TD*%
D22*
%TO.P,C13,1,1*%
%TO.N,AC1*%
X84587500Y-83355000D03*
%TO.P,C13,2,2*%
%TO.N,CHASSIS*%
X84587500Y-80355000D03*
%TD*%
D11*
%TO.P,C8,1,1*%
%TO.N,Net-(C8-Pad1)*%
X99837500Y-63905000D03*
%TO.P,C8,2,2*%
%TO.N,Net-(C11-Pad1)*%
X84837500Y-63905000D03*
%TD*%
D26*
%TO.P,C10,+,+*%
%TO.N,+16V_INV*%
X81737500Y-124205000D03*
%TO.P,C10,-,-*%
%TO.N,GND_INV*%
X74637500Y-124205000D03*
%TD*%
D13*
%TO.P,J2,1,1*%
%TO.N,Net-(C11-Pad1)*%
X82337500Y-56695000D03*
X82337500Y-51615000D03*
%TD*%
D25*
%TO.P,FT4,1,1*%
%TO.N,AC2*%
X94237500Y-102355000D03*
%TO.P,FT4,2,2*%
%TO.N,Net-(MD2-ACL)*%
X99237500Y-102355000D03*
%TO.P,FT4,3,3*%
%TO.N,AC1*%
X94237500Y-109155000D03*
%TO.P,FT4,4,4*%
%TO.N,Net-(MD2-ACN)*%
X99237500Y-109155000D03*
%TD*%
D27*
%TO.P,C16,+,+*%
%TO.N,VDC*%
X147637500Y-76204999D03*
D18*
%TO.P,C16,-,-*%
%TO.N,PGND*%
X147637500Y-86204999D03*
%TD*%
D28*
%TO.P,M1,1,1*%
%TO.N,Net-(C8-Pad1)*%
X94837500Y-71955000D03*
%TO.P,M1,2,2*%
%TO.N,Net-(C11-Pad1)*%
X89837500Y-70455000D03*
%TD*%
D17*
%TO.P,RL2,1,COIL1*%
%TO.N,+12V_MCU*%
X113237499Y-80705000D03*
%TO.P,RL2,2,COIL2*%
%TO.N,Net-(RL2-COIL2)*%
X123437501Y-80705000D03*
D18*
%TO.P,RL2,3,COM*%
%TO.N,Net-(RL2-NC)*%
X118337500Y-83404999D03*
%TO.P,RL2,4,COM*%
X109437500Y-68005000D03*
%TO.P,RL2,5,NC*%
X127237500Y-57905000D03*
%TO.P,RL2,6,NO*%
%TO.N,VDC*%
X127237500Y-65505000D03*
%TD*%
D28*
%TO.P,M3,1,1*%
%TO.N,Net-(G1-Pad2)*%
X86587500Y-57405000D03*
%TO.P,M3,2,2*%
%TO.N,Net-(C11-Pad1)*%
X88087500Y-52405000D03*
%TD*%
D11*
%TO.P,C14,1,1*%
%TO.N,AC2*%
X99837500Y-89605000D03*
%TO.P,C14,2,2*%
%TO.N,AC1*%
X84837500Y-89605000D03*
%TD*%
D29*
%TO.P,R15,1,1*%
%TO.N,Net-(D7-PadK)*%
X168337500Y-98605002D03*
%TO.P,R15,2,2*%
%TO.N,GND_INV*%
X168337500Y-100055000D03*
%TD*%
%TO.P,FT3,1,1*%
%TO.N,GND_INV*%
X166737500Y-100055000D03*
%TO.P,FT3,2,2*%
%TO.N,PGND*%
X166737500Y-98605002D03*
%TD*%
D28*
%TO.P,M2,1,1*%
%TO.N,Net-(G1-Pad2)*%
X96587500Y-57405000D03*
%TO.P,M2,2,2*%
%TO.N,Net-(C8-Pad1)*%
X98087500Y-52405000D03*
%TD*%
D22*
%TO.P,C11,1,1*%
%TO.N,Net-(C11-Pad1)*%
X86537500Y-71705000D03*
%TO.P,C11,2,2*%
%TO.N,CHASSIS*%
X86537500Y-68705000D03*
%TD*%
%TO.P,C9,1,1*%
%TO.N,Net-(C8-Pad1)*%
X98137500Y-71705000D03*
%TO.P,C9,2,2*%
%TO.N,CHASSIS*%
X98137500Y-68705000D03*
%TD*%
D30*
%TO.N,VDC*%
X157437837Y-72204999D03*
X152437837Y-77204999D03*
X142437837Y-77204999D03*
X142437837Y-72204999D03*
X162437837Y-62204999D03*
X159937837Y-74704999D03*
X137437837Y-67204999D03*
X134937837Y-64704999D03*
X139937837Y-69704999D03*
X159937837Y-64704999D03*
X157437837Y-67204999D03*
X142437837Y-67204999D03*
X149937837Y-69704999D03*
X132437837Y-72204999D03*
X144937837Y-74704999D03*
X147437837Y-67204999D03*
X134937837Y-69704999D03*
X144937837Y-64704999D03*
X162437837Y-67204999D03*
X132437837Y-67204999D03*
X157437837Y-77204999D03*
X159937837Y-69704999D03*
X152437837Y-67204999D03*
X164937837Y-64704999D03*
X129937837Y-64704999D03*
X139937837Y-64704999D03*
X149937837Y-64704999D03*
X164937837Y-69704999D03*
X154937837Y-64704999D03*
X152437837Y-72204999D03*
X154937837Y-69704999D03*
X144937837Y-69704999D03*
X147437837Y-72204999D03*
X134937837Y-74704999D03*
X137437837Y-72204999D03*
X139937837Y-74704999D03*
X162437837Y-72204999D03*
X137437837Y-77204999D03*
X129937837Y-69704999D03*
X154937837Y-74704999D03*
%TO.N,Net-(RL2-NC)*%
X139137500Y-54155000D03*
X134137500Y-91655000D03*
X124137500Y-61655000D03*
X130137500Y-109655000D03*
X131637500Y-76655000D03*
X144137500Y-59155000D03*
X149137500Y-54155000D03*
X131637500Y-94155000D03*
X124137500Y-54155000D03*
X116637500Y-89155000D03*
X129137500Y-74155000D03*
X116637500Y-94155000D03*
X124137500Y-74155000D03*
X119137500Y-56655000D03*
X134137500Y-101655000D03*
X111637500Y-71655000D03*
X129137500Y-54155000D03*
X116637500Y-76655000D03*
X134137500Y-96655000D03*
X134137500Y-59155000D03*
X144137500Y-54155000D03*
X114137500Y-69155000D03*
X116637500Y-59155000D03*
X126637500Y-94155000D03*
X146637500Y-56655000D03*
X119137500Y-86655000D03*
X151637500Y-56655000D03*
X134137500Y-54155000D03*
X109137500Y-74155000D03*
X111637500Y-64155000D03*
X129137500Y-96655000D03*
X124137500Y-86655000D03*
X149137500Y-59155000D03*
X154137500Y-59155000D03*
X121637500Y-89155000D03*
X124137500Y-56655000D03*
X114137500Y-74155000D03*
X114137500Y-61655000D03*
X136637500Y-56655000D03*
X119137500Y-91655000D03*
X126637500Y-71655000D03*
X131637500Y-56655000D03*
X119137500Y-69155000D03*
X133637500Y-109655000D03*
X126637500Y-76655000D03*
X134137500Y-81655000D03*
X111637500Y-76655000D03*
X129137500Y-91655000D03*
X154137500Y-54155000D03*
X124137500Y-69155000D03*
X126637500Y-89155000D03*
X131637500Y-99155000D03*
X116637500Y-71655000D03*
X119137500Y-74155000D03*
X121637500Y-94155000D03*
X134137500Y-86655000D03*
X121637500Y-76655000D03*
X139137500Y-59155000D03*
X116637500Y-66655000D03*
X126637500Y-84155000D03*
X141637500Y-56655000D03*
X119137500Y-61655000D03*
X121637500Y-71655000D03*
X131637500Y-89155000D03*
X121637500Y-59155000D03*
X124137500Y-91655000D03*
X126137500Y-109655000D03*
X129137500Y-86655000D03*
X121637500Y-66655000D03*
X127137500Y-101655000D03*
X129137500Y-79155000D03*
X131637500Y-84155000D03*
X130637500Y-101655000D03*
%TO.N,PGND*%
X117337500Y-119655000D03*
X142337500Y-114655000D03*
X132337500Y-124655000D03*
X137337500Y-124655000D03*
X74837500Y-117155000D03*
X114837500Y-122155000D03*
X82337500Y-119655000D03*
X137337500Y-94655000D03*
X157337500Y-89655000D03*
X94837500Y-127155000D03*
X107337500Y-124655000D03*
X129837500Y-122155000D03*
X79837500Y-117155000D03*
X104837500Y-127155000D03*
X134837500Y-127155000D03*
X117337500Y-124655000D03*
X147337500Y-119655000D03*
X154837500Y-87155000D03*
X142337500Y-94655000D03*
X92337500Y-124655000D03*
X139837500Y-117155000D03*
X97337500Y-119655000D03*
X94837500Y-122155000D03*
X149837500Y-112155000D03*
X152337500Y-114655000D03*
X144837500Y-122155000D03*
X124837500Y-127155000D03*
X139837500Y-92155000D03*
X74837500Y-97155000D03*
X144837500Y-117155000D03*
X99837500Y-122155000D03*
X147337500Y-114655000D03*
X114837500Y-127155000D03*
X162337500Y-84655000D03*
X137337500Y-84655000D03*
X139837500Y-122155000D03*
X102337500Y-124655000D03*
X137337500Y-89655000D03*
X102337500Y-119655000D03*
X165310263Y-82627763D03*
X137337500Y-114655000D03*
X165237500Y-87155000D03*
X112337500Y-124655000D03*
X162337500Y-79655000D03*
X74837500Y-107155000D03*
X99837500Y-127155000D03*
X164837500Y-77155000D03*
X74837500Y-102155000D03*
X134837500Y-122155000D03*
X139837500Y-112155000D03*
X122337500Y-124655000D03*
X127337500Y-119655000D03*
X139837500Y-127155000D03*
X77337500Y-119655000D03*
X112337500Y-119655000D03*
X142337500Y-89655000D03*
X77337500Y-114655000D03*
X157337500Y-94655000D03*
X154837500Y-92155000D03*
X159837500Y-92155000D03*
X149837500Y-92155000D03*
X157337500Y-84655000D03*
X109837500Y-127155000D03*
X119837500Y-127155000D03*
X142337500Y-124655000D03*
X142337500Y-84655000D03*
X119837500Y-122155000D03*
X142337500Y-119655000D03*
X167337500Y-84655000D03*
X134837500Y-117155000D03*
X144837500Y-92155000D03*
X74837500Y-112155000D03*
X152337500Y-89655000D03*
X84837500Y-117155000D03*
X89837500Y-122155000D03*
X152337500Y-84655000D03*
X147337500Y-94655000D03*
X154837500Y-112155000D03*
X149837500Y-117155000D03*
X162337500Y-94655000D03*
X159837500Y-82155000D03*
X152337500Y-94655000D03*
X87337500Y-119655000D03*
X132337500Y-119655000D03*
X144837500Y-112155000D03*
X147337500Y-89655000D03*
X159837500Y-87155000D03*
X162337500Y-89655000D03*
X92337500Y-119655000D03*
X139837500Y-87155000D03*
X137337500Y-119655000D03*
X97337500Y-124655000D03*
%TO.N,Net-(BR1-DC+)*%
X105587500Y-98105000D03*
X112087500Y-110605000D03*
X107587500Y-96105000D03*
X108087500Y-112605000D03*
X112087500Y-112605000D03*
X108587500Y-97105000D03*
X110587500Y-99105000D03*
X111087500Y-111605000D03*
X106587500Y-99105000D03*
X109587500Y-100105000D03*
X108587500Y-99105000D03*
X109087500Y-111605000D03*
X110587500Y-101105000D03*
X107587500Y-100105000D03*
X110587500Y-97105000D03*
X111087500Y-109605000D03*
X109587500Y-98105000D03*
X107587500Y-98105000D03*
X106587500Y-95105000D03*
X110087500Y-110605000D03*
X109087500Y-109605000D03*
X108587500Y-101105000D03*
X106587500Y-97105000D03*
X107587500Y-94105000D03*
X109587500Y-96105000D03*
X108087500Y-110605000D03*
X108587500Y-95105000D03*
X110087500Y-112605000D03*
%TO.N,GND_INV*%
X76787500Y-146305000D03*
X100637500Y-138455000D03*
X83137500Y-135955000D03*
X166237500Y-113474999D03*
X80637500Y-128455000D03*
X75637500Y-128455000D03*
X162937500Y-111135000D03*
X85637500Y-128455000D03*
X147237500Y-124474999D03*
X78137500Y-125955000D03*
X147237500Y-127974999D03*
X88137500Y-130955000D03*
X100637500Y-133455000D03*
X73137500Y-130955000D03*
X98137500Y-135955000D03*
X86787500Y-146305000D03*
X83137500Y-140955000D03*
X88137500Y-140955000D03*
X80637500Y-125955000D03*
X73537500Y-141805000D03*
X90637500Y-133455000D03*
X98137500Y-140955000D03*
X143737500Y-127974999D03*
X75637500Y-125955000D03*
X80637500Y-138455000D03*
X81787500Y-146305000D03*
X95637500Y-138455000D03*
X93137500Y-135955000D03*
X95637500Y-133455000D03*
X163737500Y-113474999D03*
X163687500Y-104085000D03*
X73887500Y-137504998D03*
X103137500Y-135955000D03*
X88137500Y-135955000D03*
X83137500Y-125955000D03*
X96787500Y-146305000D03*
X85637500Y-138455000D03*
X85637500Y-133455000D03*
X103137500Y-140955000D03*
X90637500Y-138455000D03*
X105637500Y-133455000D03*
X91787500Y-146305000D03*
X161237500Y-113474999D03*
X73887500Y-134404998D03*
X80637500Y-133455000D03*
X168737500Y-113474999D03*
X73137500Y-125955000D03*
X83137500Y-130955000D03*
X158737500Y-113474999D03*
%TO.N,+24V_INV*%
X73087500Y-140204998D03*
X74687500Y-140204998D03*
X73887500Y-140204998D03*
%TO.N,+16V_INV*%
X79237500Y-124205000D03*
X78487500Y-124955000D03*
X78487500Y-123455000D03*
%TO.N,Net-(C11-Pad1)*%
X78337500Y-58855000D03*
X80837500Y-76355000D03*
X83312500Y-68880000D03*
X78337500Y-63855000D03*
X88337500Y-73855000D03*
X83337500Y-73855000D03*
X78337500Y-73855000D03*
X80837500Y-61355000D03*
X78337500Y-53855000D03*
X78337500Y-68855000D03*
X80837500Y-71355000D03*
X85837500Y-76355000D03*
X80837500Y-66355000D03*
%TO.N,Net-(C8-Pad1)*%
X98837500Y-73855000D03*
X98837500Y-76355000D03*
X101337500Y-73855000D03*
X103837500Y-71355000D03*
X101337500Y-76355000D03*
X101337500Y-71355000D03*
X103837500Y-73855000D03*
%TO.N,CHASSIS*%
X110737500Y-59205000D03*
X108237500Y-61705000D03*
X93337500Y-67205000D03*
X130837500Y-50355000D03*
X150837500Y-50355000D03*
X96337500Y-67205000D03*
X83337500Y-80355000D03*
X89337500Y-67205000D03*
X94337500Y-67205000D03*
X140837500Y-50355000D03*
X135837500Y-50355000D03*
X88337500Y-67205000D03*
X125837500Y-50355000D03*
X155837500Y-50355000D03*
X145837500Y-50355000D03*
X87337500Y-67205000D03*
X115737500Y-54205000D03*
X166587500Y-55614999D03*
X101337500Y-80355000D03*
X91337500Y-67205000D03*
X85837500Y-80355000D03*
X92337500Y-67205000D03*
X165587500Y-55614999D03*
X160327501Y-50355000D03*
X166587500Y-56614999D03*
X113237500Y-56705000D03*
X118237500Y-51705000D03*
X90337500Y-67205000D03*
X98837500Y-80355000D03*
X162827501Y-52855000D03*
X97337500Y-67205000D03*
X95337500Y-67205000D03*
X120837500Y-50355000D03*
%TO.N,GND_MCU*%
X125037500Y-136305000D03*
X156237500Y-118474999D03*
X161887500Y-126025000D03*
X107537500Y-146305000D03*
X128787500Y-146305000D03*
X157437500Y-129225000D03*
X156237500Y-123474999D03*
X115037500Y-133805000D03*
X107537500Y-141305000D03*
X147487500Y-132974999D03*
X155037500Y-136305000D03*
X160037500Y-146305000D03*
X163737500Y-116224999D03*
X152537500Y-138805000D03*
X112537500Y-141305000D03*
X165087500Y-126025000D03*
X140037500Y-141305000D03*
X168737500Y-116224999D03*
X159887500Y-126775000D03*
X120037500Y-133805000D03*
X151237500Y-123474999D03*
X163487500Y-128825000D03*
X165037500Y-146305000D03*
X152487500Y-132974999D03*
X165087500Y-127025000D03*
X145037500Y-146305000D03*
X134187500Y-137755002D03*
X155037500Y-141305000D03*
X158737500Y-116224999D03*
X130037500Y-136305000D03*
X157537500Y-143805000D03*
X134187500Y-140505002D03*
X126287500Y-143805000D03*
X165087500Y-125025000D03*
X163687500Y-135875000D03*
X107537500Y-136305000D03*
X115037500Y-138805000D03*
X157387500Y-126775000D03*
X165037500Y-141305000D03*
X145037500Y-136305000D03*
X153737500Y-120974999D03*
X137837500Y-136955002D03*
X117537500Y-136305000D03*
X140037500Y-136305000D03*
X160037500Y-141305000D03*
X110037500Y-133805000D03*
X166187500Y-128825000D03*
X145037500Y-141305000D03*
X158687500Y-135875000D03*
X155937500Y-127975000D03*
X166237500Y-116224999D03*
X155037500Y-146305000D03*
X150037500Y-146305000D03*
X150037500Y-136305000D03*
X121487500Y-141305000D03*
X163537500Y-120400001D03*
X112537500Y-136305000D03*
X134187500Y-136555002D03*
X156187500Y-133375000D03*
X142537500Y-138805000D03*
X161237500Y-116224999D03*
X134187500Y-138955002D03*
X163737500Y-123474999D03*
X128787500Y-141305000D03*
X147537500Y-138805000D03*
X112537500Y-146305000D03*
%TO.N,+12V_MCU*%
X159787500Y-120400001D03*
X119337500Y-114155000D03*
X123987500Y-146605000D03*
X123987500Y-145105000D03*
X119337500Y-115155000D03*
X122987500Y-145855000D03*
X160787500Y-120400001D03*
%TO.N,Net-(RL1-COIL1)*%
X120337500Y-115155000D03*
X159137500Y-119369999D03*
%TO.N,Net-(RL2-COIL2)*%
X159037500Y-121400001D03*
X118337500Y-115155000D03*
%TD*%
D31*
%TO.N,AC1*%
X87337500Y-95705000D02*
X87837500Y-96205000D01*
D32*
X84837500Y-93205000D02*
X87337500Y-95705000D01*
X84837500Y-89605000D02*
X84837500Y-83605000D01*
X88337500Y-83355000D02*
X84587500Y-83355000D01*
X84837500Y-83605000D02*
X84587500Y-83355000D01*
X84837500Y-89605000D02*
X84837500Y-93205000D01*
D31*
X87837500Y-96205000D02*
X87837500Y-105826573D01*
X88423287Y-107240787D02*
X90337500Y-109155000D01*
D32*
X90337500Y-109155000D02*
X94237500Y-109155000D01*
D31*
X87837500Y-105826573D02*
G75*
G03*
X88423273Y-107240801I2000000J-27D01*
G01*
D32*
%TO.N,PGND*%
X165237500Y-96464075D02*
X165237500Y-95654999D01*
X164237502Y-94655000D02*
X162337500Y-94655000D01*
D33*
X166737500Y-98605002D02*
X166550000Y-98605002D01*
D32*
X165237500Y-95654998D02*
X164237502Y-94655000D01*
X166550000Y-98605002D02*
X165823286Y-97878288D01*
X165237500Y-95654999D02*
X165237500Y-95180001D01*
X165823287Y-81389214D02*
X168737500Y-78475001D01*
X168737500Y-73395000D02*
X168737500Y-78475001D01*
X165237500Y-95654999D02*
X165237500Y-95654998D01*
X165237500Y-95180001D02*
X165237500Y-87155000D01*
X165237500Y-87155000D02*
X165237500Y-82803428D01*
D33*
X165237500Y-95255000D02*
X165237500Y-95180001D01*
D32*
X165237500Y-82803428D02*
G75*
G03*
X165310267Y-82627764I-1369800J670328D01*
G01*
X165823286Y-97878288D02*
G75*
G02*
X165237518Y-96464075I1414214J1414188D01*
G01*
X165310263Y-82627763D02*
G75*
G02*
X165823294Y-81389222I1522037J95063D01*
G01*
%TO.N,AC2*%
X91787500Y-102355000D02*
X90337500Y-102355000D01*
D31*
X91912500Y-102230000D02*
X92287500Y-101855000D01*
X92287500Y-101855000D02*
X92662500Y-102230000D01*
X92662500Y-102230000D02*
X91912500Y-102230000D01*
D32*
X92787500Y-102355000D02*
X94237500Y-102355000D01*
D31*
X92662500Y-102230000D02*
X92787500Y-102355000D01*
D33*
X100087500Y-83355000D02*
X96337500Y-83355000D01*
D31*
X92287500Y-100405000D02*
X92287500Y-101855000D01*
D33*
X99837500Y-90705000D02*
X99837500Y-89605000D01*
D31*
X94387500Y-95705000D02*
X92873286Y-97219214D01*
D32*
X92287500Y-102355000D02*
X92787500Y-102355000D01*
D31*
X91787500Y-102355000D02*
X91912500Y-102230000D01*
D32*
X92287500Y-102355000D02*
X91787500Y-102355000D01*
D31*
X92287500Y-98633427D02*
X92287500Y-100405000D01*
D33*
X94837500Y-95705000D02*
X99837500Y-90705000D01*
D31*
X94837500Y-95705000D02*
X94387500Y-95705000D01*
X92287500Y-101855000D02*
X92287500Y-102355000D01*
D33*
X99837500Y-89605000D02*
X99837500Y-83605000D01*
X99837500Y-83605000D02*
X100087500Y-83355000D01*
D31*
X92287500Y-98633427D02*
G75*
G02*
X92873272Y-97219200I2000000J27D01*
G01*
D33*
%TO.N,+24V_INV*%
X73087500Y-140204998D02*
X74687500Y-140204998D01*
X86637500Y-144555000D02*
X80487500Y-144555000D01*
X77887502Y-140204998D02*
X77987500Y-140105000D01*
X80487500Y-144555000D02*
X77987500Y-142055000D01*
X77987500Y-142055000D02*
X77987500Y-140105000D01*
X74687500Y-140204998D02*
X77887502Y-140204998D01*
%TO.N,+16V_INV*%
X81737500Y-124205000D02*
X79237500Y-124205000D01*
X79237500Y-124205000D02*
X78487500Y-124955000D01*
X78487500Y-123455000D02*
X79237500Y-124205000D01*
D31*
%TO.N,Net-(MD1-ACL)*%
X91837500Y-115155000D02*
X90923286Y-114240786D01*
X78923287Y-102219213D02*
X80387500Y-100755000D01*
X81401713Y-101769213D02*
X80387500Y-100755000D01*
X80001713Y-113069213D02*
X78923286Y-111990786D01*
X78337500Y-110576573D02*
X78337500Y-103633427D01*
X85337500Y-102355000D02*
X82815927Y-102355000D01*
X89509073Y-113655000D02*
X81415927Y-113655000D01*
X89509073Y-113655000D02*
G75*
G02*
X90923300Y-114240772I27J-2000000D01*
G01*
X81415927Y-113655000D02*
G75*
G02*
X80001699Y-113069227I-27J2000000D01*
G01*
X78337500Y-103633427D02*
G75*
G02*
X78923273Y-102219199I2000000J27D01*
G01*
X81401713Y-101769213D02*
G75*
G03*
X82815927Y-102354981I1414187J1414213D01*
G01*
X78337500Y-110576573D02*
G75*
G03*
X78923272Y-111990800I2000000J-27D01*
G01*
%TO.N,Net-(MD1-ACN)*%
X96837500Y-115155000D02*
X94373286Y-112690786D01*
X81151713Y-111519213D02*
X80387500Y-110755000D01*
X92959073Y-112105000D02*
X82565927Y-112105000D01*
X85337500Y-109155000D02*
X82815927Y-109155000D01*
X81401713Y-109740787D02*
X80387500Y-110755000D01*
X92959073Y-112105000D02*
G75*
G02*
X94373300Y-112690772I27J-2000000D01*
G01*
X81401713Y-109740787D02*
G75*
G02*
X82815927Y-109155019I1414187J-1414213D01*
G01*
X82565927Y-112105000D02*
G75*
G02*
X81151699Y-111519227I-27J2000000D01*
G01*
D33*
%TO.N,Net-(C11-Pad1)*%
X82337500Y-56695000D02*
X82337500Y-63905000D01*
X83312500Y-68880000D02*
X86137500Y-71705000D01*
X82337500Y-56695000D02*
X82337500Y-51615000D01*
X88337500Y-73505000D02*
X86537500Y-71705000D01*
X82337500Y-63905000D02*
X84837500Y-63905000D01*
X88337500Y-76355000D02*
X88337500Y-73855000D01*
X88087500Y-52405000D02*
X87297500Y-51615000D01*
X87297500Y-51615000D02*
X82337500Y-51615000D01*
X88587500Y-71705000D02*
X86537500Y-71705000D01*
X82337500Y-63905000D02*
X82337500Y-67905000D01*
X89837500Y-70455000D02*
X88587500Y-71705000D01*
X86137500Y-71705000D02*
X86537500Y-71705000D01*
X82337500Y-67905000D02*
X83312500Y-68880000D01*
X88337500Y-73855000D02*
X88337500Y-73505000D01*
%TO.N,Net-(C8-Pad1)*%
X96337500Y-73505000D02*
X98137500Y-71705000D01*
X102337500Y-56695000D02*
X102337500Y-63905000D01*
X98137500Y-71705000D02*
X98087500Y-71705000D01*
X98137500Y-71705000D02*
X98537500Y-71705000D01*
X98877500Y-51615000D02*
X102337500Y-51615000D01*
X102337500Y-67905000D02*
X99662500Y-70580000D01*
X98087500Y-71705000D02*
X97837500Y-71955000D01*
X102337500Y-56695000D02*
X102337500Y-51615000D01*
X102337500Y-67905000D02*
X102337500Y-63905000D01*
X97837500Y-71955000D02*
X94837500Y-71955000D01*
X102337500Y-63905000D02*
X99837500Y-63905000D01*
X98087500Y-52405000D02*
X98877500Y-51615000D01*
X102337500Y-56695000D02*
X102337500Y-67905000D01*
X96337500Y-76355000D02*
X96337500Y-73505000D01*
X98537500Y-71705000D02*
X99662500Y-70580000D01*
D34*
%TO.N,CHASSIS*%
X119587500Y-50355000D02*
X120837500Y-50355000D01*
D32*
X95337500Y-80355000D02*
X98237500Y-80355000D01*
X92337500Y-67205000D02*
X92337500Y-77355000D01*
D34*
X118237500Y-51705000D02*
X119587500Y-50355000D01*
D35*
X98837500Y-80355000D02*
X101337500Y-80355000D01*
D33*
X92337500Y-62355000D02*
X92337500Y-67205000D01*
D32*
X98237500Y-80355000D02*
X100037500Y-80355000D01*
D33*
X92337500Y-62355000D02*
X92337500Y-62905000D01*
X92137500Y-62905000D02*
X86537500Y-68505000D01*
D35*
X85837500Y-80355000D02*
X83337500Y-80355000D01*
D33*
X86537500Y-68505000D02*
X86537500Y-68705000D01*
X98137500Y-68705000D02*
X92337500Y-62905000D01*
D34*
X120837500Y-50355000D02*
X160327501Y-50355000D01*
D32*
X87087500Y-80355000D02*
X84587500Y-80355000D01*
X89337500Y-80355000D02*
X87087500Y-80355000D01*
X92337500Y-77355000D02*
X92337500Y-79085864D01*
D34*
X160327501Y-50355000D02*
X166587500Y-56614999D01*
X108237500Y-61705000D02*
X118237500Y-51705000D01*
D32*
X100037500Y-80355000D02*
X100087500Y-80355000D01*
D33*
X92337500Y-56695000D02*
X92337500Y-62355000D01*
D34*
X168737500Y-55614999D02*
X168737500Y-58155000D01*
D33*
X92337500Y-62905000D02*
X92137500Y-62905000D01*
D32*
X91987500Y-79055000D02*
G75*
G02*
X93401714Y-79640786I0J-2000000D01*
G01*
X92337500Y-77355000D02*
G75*
G02*
X89337500Y-80355000I-3000000J0D01*
G01*
X95337500Y-80355000D02*
G75*
G02*
X92337500Y-77355000I0J3000000D01*
G01*
X91273286Y-79640787D02*
G75*
G02*
X92687500Y-79055000I1414214J-1414213D01*
G01*
D33*
%TO.N,+5V_INV*%
X169877500Y-109084999D02*
X168737500Y-110224999D01*
X169877500Y-97420001D02*
X169877500Y-109084999D01*
X168337500Y-95880001D02*
X169877500Y-97420001D01*
%TO.N,+24V_MCU*%
X140137500Y-144555000D02*
X132844597Y-144555000D01*
X132844597Y-144555000D02*
X132386785Y-144097188D01*
D32*
%TO.N,Net-(MD2-ACN)*%
X104287500Y-110755000D02*
X107301714Y-107740786D01*
D31*
X99237500Y-109155000D02*
X101859073Y-109155000D01*
D32*
X150923286Y-106569213D02*
X155437500Y-102054999D01*
X108715927Y-107155000D02*
X149509072Y-107155000D01*
D31*
X103273287Y-109740787D02*
X104287500Y-110755000D01*
D32*
X149509072Y-107155000D02*
G75*
G03*
X150923300Y-106569227I28J2000000D01*
G01*
D31*
X103273287Y-109740787D02*
G75*
G03*
X101859073Y-109155019I-1414187J-1414213D01*
G01*
D32*
X108715927Y-107155000D02*
G75*
G03*
X107301700Y-107740772I-27J-2000000D01*
G01*
%TO.N,Net-(MD2-ACL)*%
X108715927Y-104355000D02*
X144509072Y-104355000D01*
X104287500Y-100755000D02*
X107301714Y-103769214D01*
X108715927Y-104355000D02*
X144509072Y-104355000D01*
X104287500Y-100755000D02*
X107301714Y-103769214D01*
D31*
X103273287Y-101769213D02*
X104287500Y-100755000D01*
D32*
X145923286Y-103769213D02*
X147637500Y-102054999D01*
D31*
X99237500Y-102355000D02*
X101859073Y-102355000D01*
D32*
X145923286Y-103769213D02*
X147637500Y-102054999D01*
X144509072Y-104355000D02*
G75*
G03*
X145923300Y-103769227I28J2000000D01*
G01*
X108715927Y-104355000D02*
G75*
G02*
X107301700Y-103769228I-27J2000000D01*
G01*
X144509072Y-104355000D02*
G75*
G03*
X145923300Y-103769227I28J2000000D01*
G01*
X108715927Y-104355000D02*
G75*
G02*
X107301700Y-103769228I-27J2000000D01*
G01*
D31*
X103273287Y-101769213D02*
G75*
G02*
X101859073Y-102354981I-1414187J1414213D01*
G01*
%TO.N,+12V_MCU*%
X154300501Y-127859787D02*
X154300501Y-123362403D01*
X119337500Y-115155000D02*
X119337500Y-116764598D01*
D33*
X123687500Y-144855000D02*
X121487500Y-144855000D01*
D31*
X159507501Y-120400001D02*
X159787500Y-120400001D01*
D33*
X122987500Y-145855000D02*
X122487500Y-145855000D01*
X122487500Y-145855000D02*
X121487500Y-144855000D01*
X113957501Y-144855000D02*
X113607501Y-144505000D01*
D31*
X154593394Y-122655296D02*
X156555796Y-120692894D01*
D33*
X123987500Y-146605000D02*
X123737500Y-146605000D01*
X121487500Y-144855000D02*
X113957501Y-144855000D01*
D32*
X160787500Y-120400001D02*
X159787500Y-120400001D01*
D31*
X152307394Y-130267108D02*
X154007608Y-128566894D01*
D33*
X123937500Y-145105000D02*
X123687500Y-144855000D01*
D31*
X133132903Y-130560001D02*
X151600287Y-130560001D01*
X119630393Y-117471705D02*
X132425796Y-130267108D01*
D33*
X123737500Y-146605000D02*
X122987500Y-145855000D01*
D32*
X119337500Y-115155000D02*
X119337500Y-114155000D01*
D33*
X123987500Y-145105000D02*
X123937500Y-145105000D01*
D31*
X157262903Y-120400001D02*
X159507501Y-120400001D01*
X154300501Y-123362403D02*
G75*
G02*
X154593393Y-122655295I999999J3D01*
G01*
X156555796Y-120692894D02*
G75*
G02*
X157262903Y-120400003I707104J-707106D01*
G01*
X151600287Y-130560001D02*
G75*
G03*
X152307400Y-130267114I13J1000001D01*
G01*
X154007608Y-128566894D02*
G75*
G03*
X154300492Y-127859787I-707108J707094D01*
G01*
X119337500Y-116764598D02*
G75*
G03*
X119630392Y-117471706I1000000J-2D01*
G01*
X132425796Y-130267108D02*
G75*
G03*
X133132903Y-130559999I707104J707108D01*
G01*
D33*
%TO.N,Net-(RL1-COIL1)*%
X132576984Y-129902108D02*
X119995393Y-117320517D01*
X156404608Y-120327894D02*
X154212394Y-122520108D01*
X158058284Y-120035001D02*
X157111715Y-120035001D01*
X159137500Y-119369999D02*
X158765391Y-119742108D01*
X119995393Y-115497107D02*
X120337500Y-115155000D01*
X151449099Y-130195001D02*
X133284091Y-130195001D01*
X119702500Y-116613410D02*
X119702500Y-116204214D01*
X153919501Y-123227215D02*
X153919501Y-127724599D01*
X153626608Y-128431706D02*
X152156206Y-129902108D01*
X153919501Y-123227215D02*
G75*
G02*
X154212387Y-122520101I999999J15D01*
G01*
X132576984Y-129902108D02*
G75*
G03*
X133284091Y-130195007I707116J707108D01*
G01*
X153919501Y-127724599D02*
G75*
G02*
X153626608Y-128431706I-1000001J-1D01*
G01*
X151449099Y-130195001D02*
G75*
G03*
X152156206Y-129902108I1J1000001D01*
G01*
X119995393Y-115497107D02*
G75*
G03*
X119702510Y-116204214I707107J-707093D01*
G01*
X158058284Y-120035001D02*
G75*
G03*
X158765399Y-119742116I16J1000001D01*
G01*
X157111715Y-120035001D02*
G75*
G03*
X156404601Y-120327887I-15J-999999D01*
G01*
X119995393Y-117320517D02*
G75*
G02*
X119702493Y-116613410I707107J707117D01*
G01*
%TO.N,Net-(RL2-COIL2)*%
X154665501Y-128010975D02*
X154665501Y-123513591D01*
X132997715Y-130941001D02*
X151735475Y-130941001D01*
X158695393Y-121057894D02*
X159037500Y-121400001D01*
X154958394Y-122806484D02*
X156706984Y-121057894D01*
X119265393Y-117622893D02*
X132290608Y-130648108D01*
X118972500Y-116204214D02*
X118972500Y-116915786D01*
X152442582Y-130648108D02*
X154372608Y-128718082D01*
X157414091Y-120765001D02*
X157988286Y-120765001D01*
X118337500Y-115155000D02*
X118679607Y-115497107D01*
X118972500Y-116204214D02*
G75*
G03*
X118679614Y-115497100I-1000000J14D01*
G01*
X154665501Y-128010975D02*
G75*
G02*
X154372620Y-128718094I-1000001J-25D01*
G01*
X152442582Y-130648108D02*
G75*
G02*
X151735475Y-130940983I-707082J707108D01*
G01*
X132290608Y-130648108D02*
G75*
G03*
X132997715Y-130940990I707092J707108D01*
G01*
X157414091Y-120765001D02*
G75*
G03*
X156706989Y-121057899I9J-999999D01*
G01*
X119265393Y-117622893D02*
G75*
G02*
X118972510Y-116915786I707107J707093D01*
G01*
X154665501Y-123513591D02*
G75*
G02*
X154958399Y-122806489I999999J-9D01*
G01*
X158695393Y-121057894D02*
G75*
G03*
X157988286Y-120765010I-707093J-707106D01*
G01*
%TO.N,Net-(D7-PadK)*%
X168337500Y-98605002D02*
X168337500Y-97380001D01*
%TD*%
%TA.AperFunction,Conductor*%
%TO.N,+16V_INV*%
G36*
X83709280Y-123223482D02*
G01*
X83736300Y-123270282D01*
X83737500Y-123284000D01*
X83737500Y-125126000D01*
X83719018Y-125176780D01*
X83672218Y-125203800D01*
X83658500Y-125205000D01*
X79753217Y-125205000D01*
X79753207Y-125204998D01*
X79737498Y-125204998D01*
X78420222Y-125204998D01*
X78369442Y-125186516D01*
X78364361Y-125181859D01*
X78260639Y-125078137D01*
X78237801Y-125029161D01*
X78237500Y-125022276D01*
X78237500Y-123387720D01*
X78255982Y-123336940D01*
X78260639Y-123331859D01*
X78364359Y-123228139D01*
X78413335Y-123205301D01*
X78420220Y-123205000D01*
X83658500Y-123205000D01*
X83709280Y-123223482D01*
G37*
%TD.AperFunction*%
%TD*%
%TA.AperFunction,Conductor*%
%TO.N,+24V_MCU*%
G36*
X139614558Y-142423482D02*
G01*
X139619639Y-142428139D01*
X141275361Y-144083861D01*
X141298199Y-144132837D01*
X141298500Y-144139722D01*
X141298500Y-144963278D01*
X141280018Y-145014058D01*
X141275361Y-145019139D01*
X139512639Y-146781861D01*
X139463663Y-146804699D01*
X139456778Y-146805000D01*
X130566500Y-146805000D01*
X130515720Y-146786518D01*
X130488700Y-146739718D01*
X130487500Y-146726000D01*
X130487500Y-142484000D01*
X130505982Y-142433220D01*
X130552782Y-142406200D01*
X130566500Y-142405000D01*
X139563778Y-142405000D01*
X139614558Y-142423482D01*
G37*
%TD.AperFunction*%
%TD*%
%TA.AperFunction,Conductor*%
%TO.N,CHASSIS*%
G36*
X93780539Y-50384685D02*
G01*
X93826294Y-50437489D01*
X93837500Y-50489000D01*
X93837500Y-62955000D01*
X98951181Y-68068681D01*
X98984666Y-68130004D01*
X98987500Y-68156362D01*
X98987500Y-69031000D01*
X98967815Y-69098039D01*
X98915011Y-69143794D01*
X98863500Y-69155000D01*
X97338862Y-69155000D01*
X97271823Y-69135315D01*
X97251181Y-69118681D01*
X96237500Y-68105000D01*
X93337500Y-68105000D01*
X93337499Y-68105000D01*
X92425181Y-69017319D01*
X92363858Y-69050804D01*
X92294166Y-69045820D01*
X92249819Y-69017319D01*
X91337500Y-68105000D01*
X88437500Y-68105000D01*
X88437499Y-68105000D01*
X87423819Y-69118681D01*
X87362496Y-69152166D01*
X87336138Y-69155000D01*
X85811500Y-69155000D01*
X85744461Y-69135315D01*
X85698706Y-69082511D01*
X85687500Y-69031000D01*
X85687500Y-68156362D01*
X85707185Y-68089323D01*
X85723819Y-68068681D01*
X90837500Y-62955000D01*
X90837500Y-50489000D01*
X90857185Y-50421961D01*
X90909989Y-50376206D01*
X90961500Y-50365000D01*
X93713500Y-50365000D01*
X93780539Y-50384685D01*
G37*
%TD.AperFunction*%
%TD*%
%TA.AperFunction,Conductor*%
%TO.N,Net-(BR1-DC+)*%
G36*
X112580539Y-109204026D02*
G01*
X112626294Y-109256830D01*
X112637500Y-109308341D01*
X112637500Y-116353638D01*
X112617815Y-116420677D01*
X112601181Y-116441319D01*
X111623819Y-117418681D01*
X111562496Y-117452166D01*
X111536138Y-117455000D01*
X109438862Y-117455000D01*
X109371823Y-117435315D01*
X109351181Y-117418681D01*
X107023819Y-115091319D01*
X106990334Y-115029996D01*
X106987500Y-115003638D01*
X106987500Y-110706362D01*
X107007185Y-110639323D01*
X107023819Y-110618681D01*
X108421840Y-109220660D01*
X108483163Y-109187175D01*
X108509521Y-109184341D01*
X112513500Y-109184341D01*
X112580539Y-109204026D01*
G37*
%TD.AperFunction*%
%TD*%
%TA.AperFunction,Conductor*%
%TO.N,AC2*%
G36*
X100553177Y-82274685D02*
G01*
X100573819Y-82291319D01*
X101101181Y-82818681D01*
X101134666Y-82880004D01*
X101137500Y-82906362D01*
X101137500Y-92453638D01*
X101117815Y-92520677D01*
X101101181Y-92541319D01*
X96323819Y-97318681D01*
X96262496Y-97352166D01*
X96236138Y-97355000D01*
X92861500Y-97355000D01*
X92794461Y-97335315D01*
X92748706Y-97282511D01*
X92737500Y-97231000D01*
X92737500Y-85456362D01*
X92757185Y-85389323D01*
X92773819Y-85368681D01*
X95851181Y-82291319D01*
X95912504Y-82257834D01*
X95938862Y-82255000D01*
X100486138Y-82255000D01*
X100553177Y-82274685D01*
G37*
%TD.AperFunction*%
%TD*%
%TA.AperFunction,Conductor*%
%TO.N,PGND*%
G36*
X169273175Y-72334683D02*
G01*
X169293817Y-72351317D01*
X170000681Y-73058181D01*
X170034166Y-73119504D01*
X170037000Y-73145862D01*
X170037000Y-83744138D01*
X170017315Y-83811177D01*
X170000681Y-83831819D01*
X165228313Y-88604187D01*
X165228313Y-95030999D01*
X165208628Y-95098038D01*
X165155824Y-95143793D01*
X165104313Y-95154999D01*
X137088863Y-95154999D01*
X137021824Y-95135314D01*
X137001182Y-95118680D01*
X136323820Y-94441318D01*
X136290335Y-94379995D01*
X136287501Y-94353637D01*
X136287501Y-84956361D01*
X136307186Y-84889322D01*
X136323820Y-84868680D01*
X138501182Y-82691318D01*
X138562505Y-82657833D01*
X138588863Y-82654999D01*
X157877501Y-82654999D01*
X157887501Y-82654999D01*
X157887501Y-82644999D01*
X168181183Y-72351317D01*
X168242506Y-72317832D01*
X168268864Y-72314998D01*
X169206136Y-72314998D01*
X169273175Y-72334683D01*
G37*
%TD.AperFunction*%
%TD*%
%TA.AperFunction,Conductor*%
%TO.N,PGND*%
G36*
X154773836Y-110604026D02*
G01*
X154794478Y-110620660D01*
X155221840Y-111048022D01*
X155255325Y-111109345D01*
X155258159Y-111135703D01*
X155258159Y-112132979D01*
X155238474Y-112200018D01*
X155221840Y-112220660D01*
X139019819Y-128422681D01*
X138958496Y-128456166D01*
X138932138Y-128459000D01*
X133734180Y-128459000D01*
X133667141Y-128439315D01*
X133646499Y-128422681D01*
X126794478Y-121570660D01*
X126760993Y-121509337D01*
X126758159Y-121482979D01*
X126758159Y-118185703D01*
X126777844Y-118118664D01*
X126794478Y-118098022D01*
X127771840Y-117120660D01*
X127833163Y-117087175D01*
X127859521Y-117084341D01*
X129758159Y-117084341D01*
X136221840Y-110620660D01*
X136283163Y-110587175D01*
X136309521Y-110584341D01*
X154706797Y-110584341D01*
X154773836Y-110604026D01*
G37*
%TD.AperFunction*%
%TD*%
%TA.AperFunction,Conductor*%
%TO.N,AC1*%
G36*
X88803177Y-82274685D02*
G01*
X88823819Y-82291319D01*
X89401181Y-82868681D01*
X89434666Y-82930004D01*
X89437500Y-82956362D01*
X89437500Y-97503638D01*
X89417815Y-97570677D01*
X89401181Y-97591319D01*
X87900181Y-99092319D01*
X87838858Y-99125804D01*
X87769166Y-99120820D01*
X87724819Y-99092319D01*
X81223819Y-92591319D01*
X81190334Y-92529996D01*
X81187500Y-92503638D01*
X81187500Y-85256362D01*
X81207185Y-85189323D01*
X81223819Y-85168681D01*
X84101181Y-82291319D01*
X84162504Y-82257834D01*
X84188862Y-82255000D01*
X88736138Y-82255000D01*
X88803177Y-82274685D01*
G37*
%TD.AperFunction*%
%TD*%
%TA.AperFunction,Conductor*%
%TO.N,+12V_MCU*%
G36*
X122545558Y-142873482D02*
G01*
X122550639Y-142878139D01*
X124234361Y-144561861D01*
X124257199Y-144610837D01*
X124257500Y-144617722D01*
X124257500Y-146711278D01*
X124239018Y-146762058D01*
X124234361Y-146767139D01*
X124170139Y-146831361D01*
X124121163Y-146854199D01*
X124114278Y-146854500D01*
X120463722Y-146854500D01*
X120412942Y-146836018D01*
X120407861Y-146831361D01*
X118923502Y-145347001D01*
X118923500Y-145347000D01*
X118923499Y-145347000D01*
X113241222Y-145347000D01*
X113190442Y-145328518D01*
X113185361Y-145323861D01*
X112723639Y-144862139D01*
X112700801Y-144813163D01*
X112700500Y-144806278D01*
X112700500Y-144236722D01*
X112718982Y-144185942D01*
X112723639Y-144180861D01*
X113312361Y-143592139D01*
X113361337Y-143569301D01*
X113368222Y-143569000D01*
X119773499Y-143569000D01*
X119773500Y-143569000D01*
X120464361Y-142878139D01*
X120513337Y-142855301D01*
X120520222Y-142855000D01*
X122494778Y-142855000D01*
X122545558Y-142873482D01*
G37*
%TD.AperFunction*%
%TD*%
%TA.AperFunction,Conductor*%
%TO.N,PGND*%
G36*
X80537186Y-94104026D02*
G01*
X80557828Y-94120660D01*
X81385190Y-94948022D01*
X81418675Y-95009345D01*
X81421509Y-95035703D01*
X81421509Y-96282979D01*
X81401824Y-96350018D01*
X81385190Y-96370660D01*
X76871509Y-100884340D01*
X76871509Y-100884341D01*
X76871509Y-111984341D01*
X80071509Y-115184341D01*
X88370147Y-115184341D01*
X88437186Y-115204026D01*
X88457828Y-115220660D01*
X90821509Y-117584341D01*
X107270147Y-117584341D01*
X107337186Y-117604026D01*
X107357828Y-117620660D01*
X108721509Y-118984341D01*
X112271509Y-118984341D01*
X114135190Y-117120660D01*
X114196513Y-117087175D01*
X114222871Y-117084341D01*
X116270147Y-117084341D01*
X116337186Y-117104026D01*
X116357828Y-117120660D01*
X126135190Y-126898022D01*
X126168675Y-126959345D01*
X126171509Y-126985703D01*
X126171509Y-128282979D01*
X126151824Y-128350018D01*
X126135190Y-128370660D01*
X125707828Y-128798022D01*
X125646505Y-128831507D01*
X125620147Y-128834341D01*
X92222871Y-128834341D01*
X92155832Y-128814656D01*
X92135190Y-128798022D01*
X86092166Y-122754998D01*
X108331890Y-122754998D01*
X108331890Y-122755001D01*
X108352304Y-123040433D01*
X108413128Y-123320037D01*
X108413130Y-123320043D01*
X108413131Y-123320046D01*
X108513133Y-123588161D01*
X108513135Y-123588166D01*
X108650270Y-123839309D01*
X108650275Y-123839317D01*
X108821754Y-124068387D01*
X108821770Y-124068405D01*
X109024094Y-124270729D01*
X109024112Y-124270745D01*
X109253182Y-124442224D01*
X109253190Y-124442229D01*
X109504333Y-124579364D01*
X109504332Y-124579364D01*
X109504336Y-124579365D01*
X109504339Y-124579367D01*
X109772454Y-124679369D01*
X109772460Y-124679370D01*
X109772462Y-124679371D01*
X110052066Y-124740195D01*
X110052068Y-124740195D01*
X110052072Y-124740196D01*
X110305720Y-124758337D01*
X110337499Y-124760610D01*
X110337500Y-124760610D01*
X110337501Y-124760610D01*
X110366095Y-124758564D01*
X110622928Y-124740196D01*
X110902546Y-124679369D01*
X111170661Y-124579367D01*
X111421815Y-124442226D01*
X111650895Y-124270739D01*
X111853239Y-124068395D01*
X112024726Y-123839315D01*
X112161867Y-123588161D01*
X112261869Y-123320046D01*
X112322696Y-123040428D01*
X112343110Y-122755000D01*
X112322696Y-122469572D01*
X112261869Y-122189954D01*
X112161867Y-121921839D01*
X112024726Y-121670685D01*
X112024724Y-121670682D01*
X111853245Y-121441612D01*
X111853229Y-121441594D01*
X111650905Y-121239270D01*
X111650887Y-121239254D01*
X111421817Y-121067775D01*
X111421809Y-121067770D01*
X111170666Y-120930635D01*
X111170667Y-120930635D01*
X111063415Y-120890632D01*
X110902546Y-120830631D01*
X110902543Y-120830630D01*
X110902537Y-120830628D01*
X110622933Y-120769804D01*
X110337501Y-120749390D01*
X110337499Y-120749390D01*
X110052066Y-120769804D01*
X109772462Y-120830628D01*
X109504333Y-120930635D01*
X109253190Y-121067770D01*
X109253182Y-121067775D01*
X109024112Y-121239254D01*
X109024094Y-121239270D01*
X108821770Y-121441594D01*
X108821754Y-121441612D01*
X108650275Y-121670682D01*
X108650270Y-121670690D01*
X108513135Y-121921833D01*
X108413128Y-122189962D01*
X108352304Y-122469566D01*
X108331890Y-122754998D01*
X86092166Y-122754998D01*
X84171509Y-120834341D01*
X74622871Y-120834341D01*
X74555832Y-120814656D01*
X74535190Y-120798022D01*
X72674319Y-118937151D01*
X72640834Y-118875828D01*
X72638000Y-118849470D01*
X72638000Y-96719212D01*
X72657685Y-96652173D01*
X72674319Y-96631531D01*
X75185190Y-94120660D01*
X75246513Y-94087175D01*
X75272871Y-94084341D01*
X80470147Y-94084341D01*
X80537186Y-94104026D01*
G37*
%TD.AperFunction*%
%TD*%
%TA.AperFunction,Conductor*%
%TO.N,+24V_INV*%
G36*
X79059280Y-137923482D02*
G01*
X79086300Y-137970282D01*
X79087500Y-137984000D01*
X79087500Y-141755000D01*
X79087501Y-141755002D01*
X80887497Y-143554998D01*
X80887499Y-143554999D01*
X80887500Y-143555000D01*
X87054778Y-143555000D01*
X87105558Y-143573482D01*
X87110639Y-143578139D01*
X87614361Y-144081861D01*
X87637199Y-144130837D01*
X87637500Y-144137722D01*
X87637500Y-144972278D01*
X87619018Y-145023058D01*
X87614361Y-145028139D01*
X87110639Y-145531861D01*
X87061663Y-145554699D01*
X87054778Y-145555000D01*
X80170222Y-145555000D01*
X80119442Y-145536518D01*
X80114361Y-145531861D01*
X75087502Y-140505001D01*
X75087500Y-140505000D01*
X75087499Y-140505000D01*
X72970222Y-140505000D01*
X72919442Y-140486518D01*
X72914361Y-140481861D01*
X72810639Y-140378139D01*
X72787801Y-140329163D01*
X72787500Y-140322278D01*
X72787500Y-140087722D01*
X72805982Y-140036942D01*
X72810639Y-140031861D01*
X72914361Y-139928139D01*
X72963337Y-139905301D01*
X72970222Y-139905000D01*
X74887499Y-139905000D01*
X74887500Y-139905000D01*
X76864361Y-137928139D01*
X76913337Y-137905301D01*
X76920222Y-137905000D01*
X79008500Y-137905000D01*
X79059280Y-137923482D01*
G37*
%TD.AperFunction*%
%TD*%
%TA.AperFunction,Conductor*%
%TO.N,Net-(C8-Pad1)*%
G36*
X103853177Y-50084685D02*
G01*
X103873819Y-50101319D01*
X105901181Y-52128681D01*
X105934666Y-52190004D01*
X105937500Y-52216362D01*
X105937500Y-74503638D01*
X105917815Y-74570677D01*
X105901181Y-74591319D01*
X103073819Y-77418681D01*
X103012496Y-77452166D01*
X102986138Y-77455000D01*
X95938862Y-77455000D01*
X95871823Y-77435315D01*
X95851181Y-77418681D01*
X93923819Y-75491319D01*
X93890334Y-75429996D01*
X93887500Y-75403638D01*
X93887500Y-71656362D01*
X93907185Y-71589323D01*
X93923819Y-71568681D01*
X94451181Y-71041319D01*
X94512504Y-71007834D01*
X94538862Y-71005000D01*
X99087500Y-71005000D01*
X100437500Y-69655000D01*
X100437500Y-67505000D01*
X98773819Y-65841319D01*
X98740334Y-65779996D01*
X98737500Y-65753638D01*
X98737500Y-54355000D01*
X97173819Y-52791319D01*
X97140334Y-52729996D01*
X97137500Y-52703638D01*
X97137500Y-52056362D01*
X97157185Y-51989323D01*
X97173819Y-51968681D01*
X99041181Y-50101319D01*
X99102504Y-50067834D01*
X99128862Y-50065000D01*
X103786138Y-50065000D01*
X103853177Y-50084685D01*
G37*
%TD.AperFunction*%
%TD*%
%TA.AperFunction,Conductor*%
%TO.N,Net-(BR1-DC+)*%
G36*
X108503177Y-93824685D02*
G01*
X108523819Y-93841319D01*
X110951181Y-96268681D01*
X110984666Y-96330004D01*
X110987500Y-96356362D01*
X110987500Y-100855000D01*
X112205160Y-102072660D01*
X112238645Y-102133983D01*
X112233661Y-102203675D01*
X112191789Y-102259608D01*
X112126325Y-102284025D01*
X112117479Y-102284341D01*
X109168203Y-102284341D01*
X109101164Y-102264656D01*
X109080522Y-102248022D01*
X103273819Y-96441319D01*
X103240334Y-96379996D01*
X103237500Y-96353638D01*
X103237500Y-95056362D01*
X103257185Y-94989323D01*
X103273819Y-94968681D01*
X104401181Y-93841319D01*
X104462504Y-93807834D01*
X104488862Y-93805000D01*
X108436138Y-93805000D01*
X108503177Y-93824685D01*
G37*
%TD.AperFunction*%
%TD*%
%TA.AperFunction,Conductor*%
%TO.N,Net-(C11-Pad1)*%
G36*
X87103177Y-50084685D02*
G01*
X87123819Y-50101319D01*
X89001181Y-51978681D01*
X89034666Y-52040004D01*
X89037500Y-52066362D01*
X89037500Y-52713638D01*
X89017815Y-52780677D01*
X89001181Y-52801319D01*
X88473819Y-53328681D01*
X88412496Y-53362166D01*
X88386138Y-53365000D01*
X86637499Y-53365000D01*
X83837500Y-56164999D01*
X83837500Y-61165000D01*
X85951181Y-63278681D01*
X85984666Y-63340004D01*
X85987500Y-63366362D01*
X85987500Y-64413638D01*
X85967815Y-64480677D01*
X85951181Y-64501319D01*
X84287500Y-66164999D01*
X84287500Y-66165000D01*
X84287500Y-69665000D01*
X85637500Y-71015000D01*
X87937500Y-71015000D01*
X89401181Y-69551319D01*
X89462504Y-69517834D01*
X89488862Y-69515000D01*
X90186138Y-69515000D01*
X90253177Y-69534685D01*
X90273819Y-69551319D01*
X90751181Y-70028681D01*
X90784666Y-70090004D01*
X90787500Y-70116362D01*
X90787500Y-75413638D01*
X90767815Y-75480677D01*
X90751181Y-75501319D01*
X88823819Y-77428681D01*
X88762496Y-77462166D01*
X88736138Y-77465000D01*
X81038862Y-77465000D01*
X80971823Y-77445315D01*
X80951181Y-77428681D01*
X76673819Y-73151319D01*
X76640334Y-73089996D01*
X76637500Y-73063638D01*
X76637500Y-53416362D01*
X76657185Y-53349323D01*
X76673819Y-53328681D01*
X79901181Y-50101319D01*
X79962504Y-50067834D01*
X79988862Y-50065000D01*
X87036138Y-50065000D01*
X87103177Y-50084685D01*
G37*
%TD.AperFunction*%
%TD*%
%TA.AperFunction,Conductor*%
%TO.N,GND_MCU*%
G36*
X170008780Y-115773482D02*
G01*
X170035800Y-115820282D01*
X170037000Y-115834000D01*
X170037000Y-143516060D01*
X170018518Y-143566840D01*
X169971718Y-143593860D01*
X169918500Y-143584476D01*
X169895325Y-143564152D01*
X169877065Y-143540355D01*
X169783146Y-143417958D01*
X169783143Y-143417955D01*
X169783137Y-143417948D01*
X169574551Y-143209362D01*
X169574544Y-143209356D01*
X169574542Y-143209354D01*
X169340494Y-143029762D01*
X169085007Y-142882257D01*
X169085002Y-142882254D01*
X168812460Y-142769364D01*
X168812444Y-142769358D01*
X168527493Y-142693006D01*
X168235009Y-142654500D01*
X168235006Y-142654500D01*
X167939994Y-142654500D01*
X167939991Y-142654500D01*
X167647506Y-142693006D01*
X167362555Y-142769358D01*
X167362539Y-142769364D01*
X167089997Y-142882254D01*
X166834510Y-143029759D01*
X166600455Y-143209356D01*
X166600448Y-143209362D01*
X166391862Y-143417948D01*
X166391856Y-143417955D01*
X166212259Y-143652010D01*
X166064754Y-143907497D01*
X165951864Y-144180039D01*
X165951858Y-144180055D01*
X165875506Y-144465006D01*
X165837000Y-144757490D01*
X165837000Y-145052509D01*
X165875506Y-145344993D01*
X165951858Y-145629944D01*
X165951864Y-145629960D01*
X166064754Y-145902502D01*
X166064757Y-145902507D01*
X166212262Y-146157994D01*
X166307943Y-146282687D01*
X166391856Y-146392044D01*
X166391862Y-146392051D01*
X166600448Y-146600637D01*
X166600455Y-146600643D01*
X166600458Y-146600646D01*
X166746653Y-146712826D01*
X166775688Y-146758401D01*
X166768635Y-146811978D01*
X166728793Y-146848486D01*
X166698561Y-146854500D01*
X139864774Y-146854500D01*
X139813994Y-146836018D01*
X139786974Y-146789218D01*
X139796358Y-146736000D01*
X139808913Y-146719639D01*
X141392355Y-145136197D01*
X141392387Y-145136165D01*
X141397367Y-145130964D01*
X141402024Y-145125883D01*
X141435538Y-145070661D01*
X141454020Y-145019881D01*
X141464000Y-144963278D01*
X141464000Y-144555000D01*
X161772530Y-144555000D01*
X161792366Y-144769065D01*
X161851197Y-144975834D01*
X161947019Y-145168271D01*
X162060636Y-145318725D01*
X162456858Y-144922503D01*
X162457381Y-144923408D01*
X162569092Y-145035119D01*
X162569995Y-145035640D01*
X162175563Y-145430072D01*
X162235445Y-145484662D01*
X162235452Y-145484667D01*
X162418226Y-145597837D01*
X162418230Y-145597839D01*
X162618688Y-145675497D01*
X162830010Y-145715000D01*
X163044989Y-145715000D01*
X163256311Y-145675497D01*
X163456769Y-145597839D01*
X163456773Y-145597837D01*
X163639547Y-145484668D01*
X163639550Y-145484665D01*
X163699435Y-145430072D01*
X163305004Y-145035640D01*
X163305908Y-145035119D01*
X163417619Y-144923408D01*
X163418140Y-144922504D01*
X163814362Y-145318726D01*
X163814363Y-145318726D01*
X163927971Y-145168285D01*
X163927980Y-145168271D01*
X164023802Y-144975834D01*
X164082633Y-144769065D01*
X164102469Y-144555000D01*
X164082633Y-144340934D01*
X164023802Y-144134165D01*
X163927980Y-143941728D01*
X163927971Y-143941714D01*
X163814362Y-143791272D01*
X163418140Y-144187494D01*
X163417619Y-144186592D01*
X163305908Y-144074881D01*
X163305003Y-144074359D01*
X163699436Y-143679927D01*
X163699435Y-143679926D01*
X163639554Y-143625337D01*
X163639547Y-143625332D01*
X163456773Y-143512162D01*
X163456769Y-143512160D01*
X163256311Y-143434502D01*
X163044990Y-143395000D01*
X162830010Y-143395000D01*
X162618688Y-143434502D01*
X162418230Y-143512160D01*
X162418226Y-143512162D01*
X162235453Y-143625330D01*
X162235444Y-143625337D01*
X162175563Y-143679925D01*
X162175562Y-143679926D01*
X162569995Y-144074359D01*
X162569092Y-144074881D01*
X162457381Y-144186592D01*
X162456859Y-144187495D01*
X162060636Y-143791272D01*
X162060635Y-143791272D01*
X161947023Y-143941720D01*
X161851197Y-144134165D01*
X161792366Y-144340934D01*
X161772530Y-144555000D01*
X141464000Y-144555000D01*
X141464000Y-144139722D01*
X141463842Y-144132494D01*
X141463541Y-144125609D01*
X141448193Y-144062893D01*
X141444512Y-144055000D01*
X141430580Y-144025122D01*
X141425355Y-144013917D01*
X141425352Y-144013914D01*
X141425352Y-144013912D01*
X141392391Y-143966839D01*
X141392382Y-143966829D01*
X139736697Y-142311144D01*
X139731466Y-142306135D01*
X139726381Y-142301474D01*
X139671166Y-142267964D01*
X139620382Y-142249480D01*
X139563782Y-142239500D01*
X139563778Y-142239500D01*
X130566500Y-142239500D01*
X130564336Y-142239594D01*
X130552061Y-142240130D01*
X130538364Y-142241328D01*
X130534130Y-142242171D01*
X130534045Y-142241744D01*
X130516146Y-142244500D01*
X130471694Y-142244500D01*
X130424876Y-142253812D01*
X130371785Y-142289285D01*
X130336312Y-142342376D01*
X130327000Y-142389194D01*
X130327000Y-142448730D01*
X130325800Y-142462447D01*
X130322000Y-142483994D01*
X130322000Y-146725996D01*
X130322630Y-146740438D01*
X130323828Y-146754135D01*
X130324671Y-146758370D01*
X130322765Y-146758748D01*
X130320723Y-146805720D01*
X130284221Y-146845568D01*
X130247731Y-146854500D01*
X124491895Y-146854500D01*
X124441115Y-146836018D01*
X124414095Y-146789218D01*
X124414095Y-146761782D01*
X124414697Y-146758370D01*
X124423000Y-146711278D01*
X124423000Y-144617722D01*
X124422842Y-144610494D01*
X124422541Y-144603609D01*
X124407193Y-144540893D01*
X124384355Y-144491917D01*
X124384352Y-144491914D01*
X124384352Y-144491912D01*
X124351391Y-144444839D01*
X124351382Y-144444829D01*
X122667697Y-142761144D01*
X122662466Y-142756135D01*
X122657381Y-142751474D01*
X122602166Y-142717964D01*
X122551382Y-142699480D01*
X122494782Y-142689500D01*
X122494778Y-142689500D01*
X120520222Y-142689500D01*
X120520220Y-142689500D01*
X120513014Y-142689657D01*
X120506106Y-142689959D01*
X120496804Y-142692236D01*
X120478026Y-142694500D01*
X120471694Y-142694500D01*
X120424876Y-142703812D01*
X120371782Y-142739288D01*
X120366285Y-142744786D01*
X120365801Y-142744302D01*
X120353744Y-142756624D01*
X120347336Y-142761111D01*
X120347329Y-142761117D01*
X119728087Y-143380361D01*
X119679111Y-143403199D01*
X119672226Y-143403500D01*
X113368220Y-143403500D01*
X113361014Y-143403657D01*
X113354108Y-143403959D01*
X113291391Y-143419307D01*
X113291388Y-143419308D01*
X113242412Y-143442147D01*
X113195339Y-143475108D01*
X113195329Y-143475117D01*
X112606644Y-144063802D01*
X112601635Y-144069033D01*
X112596974Y-144074118D01*
X112563464Y-144129333D01*
X112544980Y-144180117D01*
X112535000Y-144236717D01*
X112535000Y-144806279D01*
X112535157Y-144813485D01*
X112535459Y-144820391D01*
X112550807Y-144883108D01*
X112550808Y-144883111D01*
X112573647Y-144932087D01*
X112606608Y-144979160D01*
X112606617Y-144979170D01*
X113068302Y-145440855D01*
X113073533Y-145445864D01*
X113078618Y-145450525D01*
X113133833Y-145484035D01*
X113133835Y-145484035D01*
X113133839Y-145484038D01*
X113184619Y-145502520D01*
X113241222Y-145512500D01*
X118822227Y-145512500D01*
X118873007Y-145530982D01*
X118878088Y-145535639D01*
X120062087Y-146719639D01*
X120084925Y-146768615D01*
X120070939Y-146820813D01*
X120026673Y-146851808D01*
X120006226Y-146854500D01*
X106929500Y-146854500D01*
X106878720Y-146836018D01*
X106851700Y-146789218D01*
X106850500Y-146775500D01*
X106850500Y-144505000D01*
X110102854Y-144505000D01*
X110121389Y-144693195D01*
X110121390Y-144693199D01*
X110176280Y-144874148D01*
X110176282Y-144874151D01*
X110265428Y-145040931D01*
X110334393Y-145124965D01*
X110334394Y-145124966D01*
X110696664Y-144762696D01*
X110707409Y-144781306D01*
X110791193Y-144865090D01*
X110809801Y-144875833D01*
X110447531Y-145238103D01*
X110531568Y-145307070D01*
X110698347Y-145396216D01*
X110698350Y-145396218D01*
X110879299Y-145451108D01*
X110879303Y-145451109D01*
X111067499Y-145469644D01*
X111255694Y-145451109D01*
X111255698Y-145451108D01*
X111436647Y-145396218D01*
X111436650Y-145396216D01*
X111603429Y-145307070D01*
X111687464Y-145238104D01*
X111687465Y-145238103D01*
X111325196Y-144875833D01*
X111343805Y-144865090D01*
X111427589Y-144781306D01*
X111438332Y-144762696D01*
X111800602Y-145124966D01*
X111800603Y-145124965D01*
X111869569Y-145040930D01*
X111958715Y-144874151D01*
X111958717Y-144874148D01*
X112013607Y-144693199D01*
X112013608Y-144693195D01*
X112032143Y-144505000D01*
X112013608Y-144316804D01*
X112013607Y-144316800D01*
X111958717Y-144135851D01*
X111958715Y-144135848D01*
X111869569Y-143969069D01*
X111800602Y-143885032D01*
X111438332Y-144247302D01*
X111427589Y-144228694D01*
X111343805Y-144144910D01*
X111325195Y-144134165D01*
X111687465Y-143771895D01*
X111687464Y-143771894D01*
X111603430Y-143702929D01*
X111436650Y-143613783D01*
X111436647Y-143613781D01*
X111255698Y-143558891D01*
X111255694Y-143558890D01*
X111067499Y-143540355D01*
X110879303Y-143558890D01*
X110879299Y-143558891D01*
X110698350Y-143613781D01*
X110698347Y-143613783D01*
X110531567Y-143702929D01*
X110447532Y-143771894D01*
X110447532Y-143771896D01*
X110809802Y-144134166D01*
X110791193Y-144144910D01*
X110707409Y-144228694D01*
X110696665Y-144247303D01*
X110334395Y-143885033D01*
X110334393Y-143885033D01*
X110265428Y-143969068D01*
X110176282Y-144135848D01*
X110176280Y-144135851D01*
X110121390Y-144316800D01*
X110121389Y-144316804D01*
X110102854Y-144505000D01*
X106850500Y-144505000D01*
X106850500Y-144473005D01*
X106848514Y-144468211D01*
X106842499Y-144437981D01*
X106842499Y-140705000D01*
X167672371Y-140705000D01*
X167692837Y-140912798D01*
X167692838Y-140912802D01*
X167753446Y-141112601D01*
X167753448Y-141112604D01*
X167851880Y-141296756D01*
X167933343Y-141396019D01*
X168330063Y-140999298D01*
X168337401Y-141012007D01*
X168430493Y-141105099D01*
X168443199Y-141112435D01*
X168046479Y-141509155D01*
X168145743Y-141590619D01*
X168329895Y-141689051D01*
X168329898Y-141689053D01*
X168529697Y-141749661D01*
X168529701Y-141749662D01*
X168737500Y-141770128D01*
X168945298Y-141749662D01*
X168945302Y-141749661D01*
X169145101Y-141689053D01*
X169145104Y-141689051D01*
X169329260Y-141590617D01*
X169428518Y-141509157D01*
X169428519Y-141509155D01*
X169031799Y-141112435D01*
X169044507Y-141105099D01*
X169137599Y-141012007D01*
X169144935Y-140999299D01*
X169541655Y-141396019D01*
X169541657Y-141396018D01*
X169623117Y-141296760D01*
X169721551Y-141112604D01*
X169721553Y-141112601D01*
X169782161Y-140912802D01*
X169782162Y-140912798D01*
X169802628Y-140705000D01*
X169782162Y-140497201D01*
X169782161Y-140497197D01*
X169721553Y-140297398D01*
X169721551Y-140297395D01*
X169623119Y-140113243D01*
X169541655Y-140013979D01*
X169144935Y-140410699D01*
X169137599Y-140397993D01*
X169044507Y-140304901D01*
X169031798Y-140297563D01*
X169428519Y-139900843D01*
X169329256Y-139819380D01*
X169145104Y-139720948D01*
X169145101Y-139720946D01*
X168945302Y-139660338D01*
X168945298Y-139660337D01*
X168737500Y-139639871D01*
X168529701Y-139660337D01*
X168529697Y-139660338D01*
X168329898Y-139720946D01*
X168329895Y-139720948D01*
X168145742Y-139819380D01*
X168046480Y-139900842D01*
X168046479Y-139900843D01*
X168443200Y-140297564D01*
X168430493Y-140304901D01*
X168337401Y-140397993D01*
X168330064Y-140410700D01*
X167933343Y-140013979D01*
X167933342Y-140013980D01*
X167851880Y-140113242D01*
X167753448Y-140297395D01*
X167753446Y-140297398D01*
X167692838Y-140497197D01*
X167692837Y-140497201D01*
X167672371Y-140705000D01*
X106842499Y-140705000D01*
X106842499Y-138067491D01*
X107837000Y-138067491D01*
X107837000Y-138362510D01*
X107875506Y-138654994D01*
X107951858Y-138939945D01*
X107951864Y-138939961D01*
X108064754Y-139212503D01*
X108064757Y-139212508D01*
X108212262Y-139467995D01*
X108344148Y-139639871D01*
X108391856Y-139702045D01*
X108391862Y-139702052D01*
X108600448Y-139910638D01*
X108600455Y-139910644D01*
X108600458Y-139910647D01*
X108834506Y-140090239D01*
X109089993Y-140237744D01*
X109089994Y-140237744D01*
X109089997Y-140237746D01*
X109093206Y-140239075D01*
X109362548Y-140350640D01*
X109362553Y-140350641D01*
X109362555Y-140350642D01*
X109647506Y-140426994D01*
X109939991Y-140465501D01*
X109939994Y-140465501D01*
X110235009Y-140465501D01*
X110527493Y-140426994D01*
X110635727Y-140397993D01*
X110812452Y-140350640D01*
X111085007Y-140237744D01*
X111340494Y-140090239D01*
X111574542Y-139910647D01*
X111783146Y-139702043D01*
X111962738Y-139467995D01*
X112110243Y-139212508D01*
X112186612Y-139028136D01*
X120327500Y-139028136D01*
X120327500Y-139770756D01*
X120336782Y-139817427D01*
X120336783Y-139817429D01*
X120372146Y-139870353D01*
X120425071Y-139905717D01*
X120471739Y-139914999D01*
X122503256Y-139914999D01*
X122549927Y-139905717D01*
X122549929Y-139905716D01*
X122602853Y-139870353D01*
X122638217Y-139817428D01*
X122647499Y-139770760D01*
X122647499Y-139028136D01*
X122647497Y-139028132D01*
X121487501Y-137868136D01*
X121487499Y-137868136D01*
X120327501Y-139028132D01*
X120327500Y-139028136D01*
X112186612Y-139028136D01*
X112223139Y-138939953D01*
X112260140Y-138801863D01*
X120327500Y-138801863D01*
X121374363Y-137755001D01*
X121374363Y-137754999D01*
X121374362Y-137754998D01*
X121600636Y-137754998D01*
X121600636Y-137755001D01*
X122647498Y-138801863D01*
X122647499Y-138801863D01*
X122647499Y-138165000D01*
X167671869Y-138165000D01*
X167692345Y-138372898D01*
X167752981Y-138572790D01*
X167752984Y-138572796D01*
X167752985Y-138572799D01*
X167752986Y-138572800D01*
X167851460Y-138757034D01*
X167983984Y-138918515D01*
X168145465Y-139051039D01*
X168145467Y-139051040D01*
X168329701Y-139149515D01*
X168329706Y-139149516D01*
X168329709Y-139149518D01*
X168529601Y-139210154D01*
X168529603Y-139210154D01*
X168529606Y-139210155D01*
X168737500Y-139230631D01*
X168945394Y-139210155D01*
X168945396Y-139210154D01*
X168945398Y-139210154D01*
X169145290Y-139149518D01*
X169145291Y-139149517D01*
X169145299Y-139149515D01*
X169329533Y-139051040D01*
X169491015Y-138918515D01*
X169623540Y-138757033D01*
X169722015Y-138572799D01*
X169782655Y-138372894D01*
X169803131Y-138165000D01*
X169782655Y-137957106D01*
X169782654Y-137957103D01*
X169782654Y-137957101D01*
X169722018Y-137757209D01*
X169722016Y-137757206D01*
X169722015Y-137757201D01*
X169623540Y-137572967D01*
X169623539Y-137572965D01*
X169491015Y-137411484D01*
X169329534Y-137278960D01*
X169231059Y-137226324D01*
X169145299Y-137180485D01*
X169145296Y-137180484D01*
X169145290Y-137180481D01*
X168945398Y-137119845D01*
X168737500Y-137099369D01*
X168529601Y-137119845D01*
X168329709Y-137180481D01*
X168329699Y-137180486D01*
X168145465Y-137278960D01*
X167983984Y-137411484D01*
X167851460Y-137572965D01*
X167752986Y-137757199D01*
X167752981Y-137757209D01*
X167692345Y-137957101D01*
X167671869Y-138165000D01*
X122647499Y-138165000D01*
X122647499Y-137078136D01*
X130327500Y-137078136D01*
X130327500Y-137920756D01*
X130336782Y-137967427D01*
X130336783Y-137967429D01*
X130372146Y-138020353D01*
X130425071Y-138055717D01*
X130471739Y-138064999D01*
X132703256Y-138064999D01*
X132749927Y-138055717D01*
X132749929Y-138055716D01*
X132802853Y-138020353D01*
X132838217Y-137967428D01*
X132847499Y-137920760D01*
X132847499Y-137078135D01*
X132847497Y-137078131D01*
X131587501Y-135818135D01*
X131587499Y-135818135D01*
X130327501Y-137078132D01*
X130327500Y-137078136D01*
X122647499Y-137078136D01*
X122647499Y-136851863D01*
X130327500Y-136851863D01*
X131474363Y-135705001D01*
X131474363Y-135704999D01*
X131474362Y-135704998D01*
X131700636Y-135704998D01*
X131700636Y-135705000D01*
X132847498Y-136851862D01*
X132847499Y-136851862D01*
X132847499Y-135625000D01*
X167671869Y-135625000D01*
X167692345Y-135832898D01*
X167752981Y-136032790D01*
X167752984Y-136032796D01*
X167752985Y-136032799D01*
X167777875Y-136079365D01*
X167851460Y-136217034D01*
X167983984Y-136378515D01*
X168145465Y-136511039D01*
X168145467Y-136511040D01*
X168329701Y-136609515D01*
X168329706Y-136609516D01*
X168329709Y-136609518D01*
X168529601Y-136670154D01*
X168529603Y-136670154D01*
X168529606Y-136670155D01*
X168737500Y-136690631D01*
X168945394Y-136670155D01*
X168945396Y-136670154D01*
X168945398Y-136670154D01*
X169145290Y-136609518D01*
X169145291Y-136609517D01*
X169145299Y-136609515D01*
X169329533Y-136511040D01*
X169491015Y-136378515D01*
X169623540Y-136217033D01*
X169722015Y-136032799D01*
X169736737Y-135984269D01*
X169782654Y-135832898D01*
X169782654Y-135832896D01*
X169782655Y-135832894D01*
X169803131Y-135625000D01*
X169782655Y-135417106D01*
X169782654Y-135417103D01*
X169782654Y-135417101D01*
X169722018Y-135217209D01*
X169722016Y-135217206D01*
X169722015Y-135217201D01*
X169623540Y-135032967D01*
X169623539Y-135032965D01*
X169491015Y-134871484D01*
X169329534Y-134738960D01*
X169231059Y-134686324D01*
X169145299Y-134640485D01*
X169145296Y-134640484D01*
X169145290Y-134640481D01*
X168945398Y-134579845D01*
X168737500Y-134559369D01*
X168529601Y-134579845D01*
X168329709Y-134640481D01*
X168329699Y-134640486D01*
X168145465Y-134738960D01*
X167983984Y-134871484D01*
X167851460Y-135032965D01*
X167752986Y-135217199D01*
X167752981Y-135217209D01*
X167692345Y-135417101D01*
X167671869Y-135625000D01*
X132847499Y-135625000D01*
X132847499Y-134558135D01*
X132847498Y-134558135D01*
X131700636Y-135704998D01*
X131474362Y-135704998D01*
X130327500Y-134558136D01*
X130327500Y-136851863D01*
X122647499Y-136851863D01*
X122647499Y-136708135D01*
X122647498Y-136708135D01*
X121600636Y-137754998D01*
X121374362Y-137754998D01*
X120327500Y-136708136D01*
X120327500Y-138801863D01*
X112260140Y-138801863D01*
X112299493Y-138654994D01*
X112310314Y-138572799D01*
X112338000Y-138362510D01*
X112338000Y-138067491D01*
X112299493Y-137775007D01*
X112223141Y-137490056D01*
X112223140Y-137490054D01*
X112223139Y-137490049D01*
X112110243Y-137217494D01*
X111962738Y-136962007D01*
X111783146Y-136727959D01*
X111783143Y-136727956D01*
X111783137Y-136727949D01*
X111574551Y-136519363D01*
X111574544Y-136519357D01*
X111574542Y-136519355D01*
X111340494Y-136339763D01*
X111298849Y-136315719D01*
X111085002Y-136192255D01*
X110812460Y-136079365D01*
X110812444Y-136079359D01*
X110527493Y-136003007D01*
X110235009Y-135964501D01*
X110235006Y-135964501D01*
X109939994Y-135964501D01*
X109939991Y-135964501D01*
X109647506Y-136003007D01*
X109362555Y-136079359D01*
X109362539Y-136079365D01*
X109089997Y-136192255D01*
X108834510Y-136339760D01*
X108600455Y-136519357D01*
X108600448Y-136519363D01*
X108391862Y-136727949D01*
X108391856Y-136727956D01*
X108212259Y-136962011D01*
X108064754Y-137217498D01*
X107951864Y-137490040D01*
X107951858Y-137490056D01*
X107875506Y-137775007D01*
X107837000Y-138067491D01*
X106842499Y-138067491D01*
X106842499Y-136315719D01*
X106860981Y-136264940D01*
X106865627Y-136259870D01*
X107386258Y-135739239D01*
X120327500Y-135739239D01*
X120327500Y-136481863D01*
X120327501Y-136481867D01*
X121487498Y-137641864D01*
X121487500Y-137641864D01*
X122647497Y-136481866D01*
X122647499Y-136481862D01*
X122647499Y-135739243D01*
X122638217Y-135692572D01*
X122638216Y-135692570D01*
X122602853Y-135639646D01*
X122549928Y-135604282D01*
X122503260Y-135595000D01*
X120471743Y-135595000D01*
X120425072Y-135604282D01*
X120425070Y-135604283D01*
X120372146Y-135639646D01*
X120336782Y-135692571D01*
X120327500Y-135739239D01*
X107386258Y-135739239D01*
X109772669Y-133352828D01*
X109821642Y-133329992D01*
X109844948Y-133331416D01*
X109972364Y-133358500D01*
X109972368Y-133358500D01*
X130257244Y-133358500D01*
X130308024Y-133376982D01*
X130335044Y-133423782D01*
X130334726Y-133452912D01*
X130327500Y-133489239D01*
X130327500Y-134331863D01*
X130327501Y-134331867D01*
X131587498Y-135591864D01*
X131587500Y-135591864D01*
X132847497Y-134331866D01*
X132847499Y-134331862D01*
X132847499Y-133489243D01*
X132840273Y-133452909D01*
X132848496Y-133399499D01*
X132889126Y-133363870D01*
X132917756Y-133358500D01*
X145280553Y-133358500D01*
X145280581Y-133358498D01*
X145319632Y-133358498D01*
X145319636Y-133358498D01*
X145484230Y-133323512D01*
X145637954Y-133255070D01*
X145637960Y-133255066D01*
X145774079Y-133156169D01*
X145774085Y-133156164D01*
X145774088Y-133156162D01*
X145838161Y-133085001D01*
X167672371Y-133085001D01*
X167692837Y-133292799D01*
X167692838Y-133292803D01*
X167753446Y-133492602D01*
X167753448Y-133492605D01*
X167851880Y-133676757D01*
X167933343Y-133776020D01*
X168330063Y-133379299D01*
X168337401Y-133392008D01*
X168430493Y-133485100D01*
X168443199Y-133492436D01*
X168046479Y-133889156D01*
X168145743Y-133970620D01*
X168329895Y-134069052D01*
X168329898Y-134069054D01*
X168529697Y-134129662D01*
X168529701Y-134129663D01*
X168737500Y-134150129D01*
X168945298Y-134129663D01*
X168945302Y-134129662D01*
X169145101Y-134069054D01*
X169145104Y-134069052D01*
X169329260Y-133970618D01*
X169428518Y-133889158D01*
X169428519Y-133889156D01*
X169031799Y-133492436D01*
X169044507Y-133485100D01*
X169137599Y-133392008D01*
X169144935Y-133379300D01*
X169541655Y-133776020D01*
X169541657Y-133776019D01*
X169623117Y-133676761D01*
X169721551Y-133492605D01*
X169721553Y-133492602D01*
X169782161Y-133292803D01*
X169782162Y-133292799D01*
X169802628Y-133085001D01*
X169782162Y-132877202D01*
X169782161Y-132877198D01*
X169721553Y-132677399D01*
X169721551Y-132677396D01*
X169623119Y-132493244D01*
X169541655Y-132393980D01*
X169144935Y-132790700D01*
X169137599Y-132777994D01*
X169044507Y-132684902D01*
X169031798Y-132677564D01*
X169428519Y-132280844D01*
X169329256Y-132199381D01*
X169145104Y-132100949D01*
X169145101Y-132100947D01*
X168945302Y-132040339D01*
X168945298Y-132040338D01*
X168737500Y-132019872D01*
X168529701Y-132040338D01*
X168529697Y-132040339D01*
X168329898Y-132100947D01*
X168329895Y-132100949D01*
X168145742Y-132199381D01*
X168046480Y-132280843D01*
X168046479Y-132280844D01*
X168443200Y-132677565D01*
X168430493Y-132684902D01*
X168337401Y-132777994D01*
X168330064Y-132790701D01*
X167933343Y-132393980D01*
X167933342Y-132393981D01*
X167851880Y-132493243D01*
X167753448Y-132677396D01*
X167753446Y-132677399D01*
X167692838Y-132877198D01*
X167692837Y-132877202D01*
X167672371Y-133085001D01*
X145838161Y-133085001D01*
X145886683Y-133031112D01*
X145925198Y-132964401D01*
X145937827Y-132947970D01*
X147686842Y-131204550D01*
X147735855Y-131181791D01*
X147742614Y-131181501D01*
X151791382Y-131181501D01*
X151791540Y-131181484D01*
X151833098Y-131181486D01*
X152025953Y-131150945D01*
X152211655Y-131090611D01*
X152385633Y-131001970D01*
X152543603Y-130887203D01*
X152571219Y-130859586D01*
X152571227Y-130859581D01*
X152578813Y-130851994D01*
X152578815Y-130851994D01*
X152627631Y-130803177D01*
X152642625Y-130788185D01*
X152642625Y-130788184D01*
X152653731Y-130777079D01*
X152653735Y-130777073D01*
X152885809Y-130544999D01*
X167672371Y-130544999D01*
X167692837Y-130752797D01*
X167692838Y-130752801D01*
X167753446Y-130952600D01*
X167753448Y-130952603D01*
X167851880Y-131136755D01*
X167933343Y-131236018D01*
X168330063Y-130839297D01*
X168337401Y-130852006D01*
X168430493Y-130945098D01*
X168443199Y-130952434D01*
X168046479Y-131349154D01*
X168145743Y-131430618D01*
X168329895Y-131529050D01*
X168329898Y-131529052D01*
X168529697Y-131589660D01*
X168529701Y-131589661D01*
X168737500Y-131610127D01*
X168945298Y-131589661D01*
X168945302Y-131589660D01*
X169145101Y-131529052D01*
X169145104Y-131529050D01*
X169329260Y-131430616D01*
X169428518Y-131349156D01*
X169428519Y-131349154D01*
X169031799Y-130952434D01*
X169044507Y-130945098D01*
X169137599Y-130852006D01*
X169144935Y-130839298D01*
X169541655Y-131236018D01*
X169541657Y-131236017D01*
X169623117Y-131136759D01*
X169721551Y-130952603D01*
X169721553Y-130952600D01*
X169782161Y-130752801D01*
X169782162Y-130752797D01*
X169802628Y-130544999D01*
X169782162Y-130337200D01*
X169782161Y-130337196D01*
X169721553Y-130137397D01*
X169721551Y-130137394D01*
X169623119Y-129953242D01*
X169541655Y-129853978D01*
X169144935Y-130250698D01*
X169137599Y-130237992D01*
X169044507Y-130144900D01*
X169031798Y-130137562D01*
X169428519Y-129740842D01*
X169329256Y-129659379D01*
X169145104Y-129560947D01*
X169145101Y-129560945D01*
X168945302Y-129500337D01*
X168945298Y-129500336D01*
X168737500Y-129479870D01*
X168529701Y-129500336D01*
X168529697Y-129500337D01*
X168329898Y-129560945D01*
X168329895Y-129560947D01*
X168145742Y-129659379D01*
X168046480Y-129740841D01*
X168046479Y-129740842D01*
X168443200Y-130137563D01*
X168430493Y-130144900D01*
X168337401Y-130237992D01*
X168330064Y-130250699D01*
X167933343Y-129853978D01*
X167933342Y-129853979D01*
X167851880Y-129953241D01*
X167753448Y-130137394D01*
X167753446Y-130137397D01*
X167692838Y-130337196D01*
X167692837Y-130337200D01*
X167672371Y-130544999D01*
X152885809Y-130544999D01*
X154501573Y-128929235D01*
X154501579Y-128929231D01*
X154512684Y-128918125D01*
X154512685Y-128918125D01*
X154519516Y-128911292D01*
X154519564Y-128911270D01*
X154542682Y-128888150D01*
X154542683Y-128888151D01*
X154611717Y-128819114D01*
X154726485Y-128661143D01*
X154815128Y-128487162D01*
X154875463Y-128301457D01*
X154906004Y-128108599D01*
X154906001Y-128010969D01*
X154906001Y-128005000D01*
X167671869Y-128005000D01*
X167692345Y-128212898D01*
X167752981Y-128412790D01*
X167752984Y-128412796D01*
X167752985Y-128412799D01*
X167752986Y-128412800D01*
X167851460Y-128597034D01*
X167983984Y-128758515D01*
X168145465Y-128891039D01*
X168145467Y-128891040D01*
X168329701Y-128989515D01*
X168329706Y-128989516D01*
X168329709Y-128989518D01*
X168529601Y-129050154D01*
X168529603Y-129050154D01*
X168529606Y-129050155D01*
X168737500Y-129070631D01*
X168945394Y-129050155D01*
X168945396Y-129050154D01*
X168945398Y-129050154D01*
X169145290Y-128989518D01*
X169145291Y-128989517D01*
X169145299Y-128989515D01*
X169329533Y-128891040D01*
X169491015Y-128758515D01*
X169623540Y-128597033D01*
X169722015Y-128412799D01*
X169752665Y-128311761D01*
X169782654Y-128212898D01*
X169782654Y-128212896D01*
X169782655Y-128212894D01*
X169803131Y-128005000D01*
X169782655Y-127797106D01*
X169782654Y-127797103D01*
X169782654Y-127797101D01*
X169722018Y-127597209D01*
X169722016Y-127597206D01*
X169722015Y-127597201D01*
X169623540Y-127412967D01*
X169623539Y-127412965D01*
X169491015Y-127251484D01*
X169329534Y-127118960D01*
X169231059Y-127066324D01*
X169145299Y-127020485D01*
X169145296Y-127020484D01*
X169145290Y-127020481D01*
X168945398Y-126959845D01*
X168737500Y-126939369D01*
X168529601Y-126959845D01*
X168329709Y-127020481D01*
X168329699Y-127020486D01*
X168145465Y-127118960D01*
X167983984Y-127251484D01*
X167851460Y-127412965D01*
X167752986Y-127597199D01*
X167752981Y-127597209D01*
X167692345Y-127797101D01*
X167671869Y-128005000D01*
X154906001Y-128005000D01*
X154906001Y-127999184D01*
X154906001Y-125465000D01*
X167671869Y-125465000D01*
X167692345Y-125672898D01*
X167752981Y-125872790D01*
X167752984Y-125872796D01*
X167752985Y-125872799D01*
X167752986Y-125872800D01*
X167851460Y-126057034D01*
X167983984Y-126218515D01*
X168145465Y-126351039D01*
X168145467Y-126351040D01*
X168329701Y-126449515D01*
X168329706Y-126449516D01*
X168329709Y-126449518D01*
X168529601Y-126510154D01*
X168529603Y-126510154D01*
X168529606Y-126510155D01*
X168737500Y-126530631D01*
X168945394Y-126510155D01*
X168945396Y-126510154D01*
X168945398Y-126510154D01*
X169145290Y-126449518D01*
X169145291Y-126449517D01*
X169145299Y-126449515D01*
X169329533Y-126351040D01*
X169491015Y-126218515D01*
X169623540Y-126057033D01*
X169722015Y-125872799D01*
X169782655Y-125672894D01*
X169803131Y-125465000D01*
X169782655Y-125257106D01*
X169782654Y-125257103D01*
X169782654Y-125257101D01*
X169722018Y-125057209D01*
X169722016Y-125057206D01*
X169722015Y-125057201D01*
X169623540Y-124872967D01*
X169623539Y-124872965D01*
X169491015Y-124711484D01*
X169329534Y-124578960D01*
X169231059Y-124526324D01*
X169145299Y-124480485D01*
X169145296Y-124480484D01*
X169145290Y-124480481D01*
X168945398Y-124419845D01*
X168737500Y-124399369D01*
X168529601Y-124419845D01*
X168329709Y-124480481D01*
X168329699Y-124480486D01*
X168145465Y-124578960D01*
X167983984Y-124711484D01*
X167851460Y-124872965D01*
X167752986Y-125057199D01*
X167752981Y-125057209D01*
X167692345Y-125257101D01*
X167671869Y-125465000D01*
X154906001Y-125465000D01*
X154906001Y-123517465D01*
X154906382Y-123509721D01*
X154919833Y-123373168D01*
X154922854Y-123357979D01*
X154932437Y-123326390D01*
X154961559Y-123230389D01*
X154967483Y-123216088D01*
X154971074Y-123209370D01*
X155030341Y-123098490D01*
X155038931Y-123085634D01*
X155126054Y-122979476D01*
X155131240Y-122973755D01*
X155691585Y-122413410D01*
X167677500Y-122413410D01*
X167677500Y-122845000D01*
X168241298Y-122845000D01*
X168237500Y-122859174D01*
X168237500Y-122990826D01*
X168241298Y-123005000D01*
X167677500Y-123005000D01*
X167677500Y-123436589D01*
X167680222Y-123471182D01*
X167680223Y-123471186D01*
X167723218Y-123619183D01*
X167723219Y-123619186D01*
X167801674Y-123751843D01*
X167801679Y-123751850D01*
X167910649Y-123860820D01*
X167910656Y-123860825D01*
X168043313Y-123939280D01*
X168043316Y-123939281D01*
X168191313Y-123982276D01*
X168191317Y-123982277D01*
X168225910Y-123985000D01*
X168657500Y-123985000D01*
X168657500Y-123421202D01*
X168671674Y-123425000D01*
X168803326Y-123425000D01*
X168817500Y-123421202D01*
X168817500Y-123985000D01*
X169249090Y-123985000D01*
X169283682Y-123982277D01*
X169283686Y-123982276D01*
X169431683Y-123939281D01*
X169431686Y-123939280D01*
X169564343Y-123860825D01*
X169564350Y-123860820D01*
X169673320Y-123751850D01*
X169673325Y-123751843D01*
X169751780Y-123619186D01*
X169751781Y-123619183D01*
X169794776Y-123471186D01*
X169794777Y-123471182D01*
X169797500Y-123436589D01*
X169797500Y-123005000D01*
X169233702Y-123005000D01*
X169237500Y-122990826D01*
X169237500Y-122859174D01*
X169233702Y-122845000D01*
X169797500Y-122845000D01*
X169797500Y-122413410D01*
X169794777Y-122378817D01*
X169794776Y-122378813D01*
X169751781Y-122230816D01*
X169751780Y-122230813D01*
X169673325Y-122098156D01*
X169673320Y-122098149D01*
X169564350Y-121989179D01*
X169564343Y-121989174D01*
X169431686Y-121910719D01*
X169431683Y-121910718D01*
X169283686Y-121867723D01*
X169283682Y-121867722D01*
X169249090Y-121865000D01*
X168817500Y-121865000D01*
X168817500Y-122428797D01*
X168803326Y-122425000D01*
X168671674Y-122425000D01*
X168657500Y-122428797D01*
X168657500Y-121865000D01*
X168225910Y-121865000D01*
X168191317Y-121867722D01*
X168191313Y-121867723D01*
X168043316Y-121910718D01*
X168043313Y-121910719D01*
X167910656Y-121989174D01*
X167910649Y-121989179D01*
X167801679Y-122098149D01*
X167801674Y-122098156D01*
X167723219Y-122230813D01*
X167723218Y-122230816D01*
X167680223Y-122378813D01*
X167680222Y-122378817D01*
X167677500Y-122413410D01*
X155691585Y-122413410D01*
X156835946Y-121269048D01*
X156835950Y-121269046D01*
X156847058Y-121257938D01*
X156847059Y-121257938D01*
X156874300Y-121230695D01*
X156880021Y-121225509D01*
X156986129Y-121138428D01*
X156998995Y-121129831D01*
X157116588Y-121066975D01*
X157130880Y-121061055D01*
X157258479Y-121022347D01*
X157273656Y-121019328D01*
X157410174Y-121005880D01*
X157417918Y-121005501D01*
X157456500Y-121005501D01*
X157945883Y-121005501D01*
X157984406Y-121005501D01*
X157992147Y-121005880D01*
X158128720Y-121019330D01*
X158143903Y-121022350D01*
X158271497Y-121061053D01*
X158285800Y-121066978D01*
X158403390Y-121129829D01*
X158416264Y-121138432D01*
X158522263Y-121225421D01*
X158528008Y-121230628D01*
X158612483Y-121315103D01*
X158635321Y-121364079D01*
X158634650Y-121383318D01*
X158632009Y-121399998D01*
X158632008Y-121400003D01*
X158651853Y-121525303D01*
X158651854Y-121525307D01*
X158709448Y-121638341D01*
X158709450Y-121638344D01*
X158799156Y-121728050D01*
X158799159Y-121728052D01*
X158912193Y-121785646D01*
X158912195Y-121785646D01*
X158912196Y-121785647D01*
X158953964Y-121792262D01*
X159037498Y-121805493D01*
X159037500Y-121805493D01*
X159037502Y-121805493D01*
X159100152Y-121795570D01*
X159162804Y-121785647D01*
X159275842Y-121728051D01*
X159365550Y-121638343D01*
X159423146Y-121525305D01*
X159442992Y-121400001D01*
X159440350Y-121383321D01*
X159423146Y-121274698D01*
X159423145Y-121274694D01*
X159365551Y-121161660D01*
X159365549Y-121161657D01*
X159275843Y-121071951D01*
X159275840Y-121071949D01*
X159162806Y-121014355D01*
X159162802Y-121014354D01*
X159037502Y-120994509D01*
X159037500Y-120994509D01*
X159020819Y-120997150D01*
X158967774Y-120986839D01*
X158952602Y-120974984D01*
X158888596Y-120910978D01*
X158888585Y-120910955D01*
X158865457Y-120887827D01*
X158797991Y-120820361D01*
X158775154Y-120771387D01*
X158789140Y-120719189D01*
X158833406Y-120688193D01*
X158853853Y-120685501D01*
X159459743Y-120685501D01*
X159510523Y-120703983D01*
X159515594Y-120708630D01*
X159535447Y-120728483D01*
X159603970Y-120768045D01*
X159609759Y-120771387D01*
X159629053Y-120782526D01*
X159733457Y-120810501D01*
X159733459Y-120810501D01*
X160841541Y-120810501D01*
X160841543Y-120810501D01*
X160945947Y-120782526D01*
X161039553Y-120728483D01*
X161115982Y-120652054D01*
X161170025Y-120558448D01*
X161198000Y-120454044D01*
X161198000Y-120385000D01*
X167671869Y-120385000D01*
X167692345Y-120592898D01*
X167752981Y-120792790D01*
X167752984Y-120792796D01*
X167752985Y-120792799D01*
X167798824Y-120878559D01*
X167851460Y-120977034D01*
X167983984Y-121138515D01*
X168145465Y-121271039D01*
X168145467Y-121271040D01*
X168329701Y-121369515D01*
X168329706Y-121369516D01*
X168329709Y-121369518D01*
X168529601Y-121430154D01*
X168529603Y-121430154D01*
X168529606Y-121430155D01*
X168737500Y-121450631D01*
X168945394Y-121430155D01*
X168945396Y-121430154D01*
X168945398Y-121430154D01*
X169145290Y-121369518D01*
X169145291Y-121369517D01*
X169145299Y-121369515D01*
X169329533Y-121271040D01*
X169491015Y-121138515D01*
X169623540Y-120977033D01*
X169722015Y-120792799D01*
X169725132Y-120782526D01*
X169782654Y-120592898D01*
X169782654Y-120592896D01*
X169782655Y-120592894D01*
X169803131Y-120385000D01*
X169782655Y-120177106D01*
X169782654Y-120177103D01*
X169782654Y-120177101D01*
X169722018Y-119977209D01*
X169722016Y-119977206D01*
X169722015Y-119977201D01*
X169623540Y-119792967D01*
X169623539Y-119792965D01*
X169491015Y-119631484D01*
X169329534Y-119498960D01*
X169193846Y-119426434D01*
X169145299Y-119400485D01*
X169145296Y-119400484D01*
X169145290Y-119400481D01*
X168945398Y-119339845D01*
X168737500Y-119319369D01*
X168529601Y-119339845D01*
X168329709Y-119400481D01*
X168329699Y-119400486D01*
X168145465Y-119498960D01*
X167983984Y-119631484D01*
X167851460Y-119792965D01*
X167752986Y-119977199D01*
X167752981Y-119977209D01*
X167692345Y-120177101D01*
X167671869Y-120385000D01*
X161198000Y-120385000D01*
X161198000Y-120345958D01*
X161170025Y-120241554D01*
X161115982Y-120147948D01*
X161115981Y-120147947D01*
X161115980Y-120147945D01*
X161039555Y-120071520D01*
X160945948Y-120017476D01*
X160945946Y-120017475D01*
X160841543Y-119989501D01*
X159733457Y-119989501D01*
X159733456Y-119989501D01*
X159629053Y-120017475D01*
X159629051Y-120017476D01*
X159535446Y-120071519D01*
X159525526Y-120081440D01*
X159515604Y-120091361D01*
X159466630Y-120114200D01*
X159459743Y-120114501D01*
X158923836Y-120114501D01*
X158873056Y-120096019D01*
X158846036Y-120049219D01*
X158855420Y-119996001D01*
X158867969Y-119979645D01*
X158894027Y-119953587D01*
X158894036Y-119953581D01*
X158901622Y-119945994D01*
X158901624Y-119945994D01*
X159052602Y-119795013D01*
X159101576Y-119772177D01*
X159120818Y-119772848D01*
X159137500Y-119775491D01*
X159137500Y-119775490D01*
X159137501Y-119775491D01*
X159137502Y-119775491D01*
X159200152Y-119765568D01*
X159262804Y-119755645D01*
X159375842Y-119698049D01*
X159465550Y-119608341D01*
X159523146Y-119495303D01*
X159534054Y-119426434D01*
X159542992Y-119370001D01*
X159542992Y-119369996D01*
X159523146Y-119244696D01*
X159523145Y-119244692D01*
X159465551Y-119131658D01*
X159465549Y-119131655D01*
X159375843Y-119041949D01*
X159375840Y-119041947D01*
X159262806Y-118984353D01*
X159262802Y-118984352D01*
X159137502Y-118964507D01*
X159137498Y-118964507D01*
X159012197Y-118984352D01*
X159012193Y-118984353D01*
X158899159Y-119041947D01*
X158899156Y-119041949D01*
X158809450Y-119131655D01*
X158809448Y-119131658D01*
X158751854Y-119244692D01*
X158751853Y-119244696D01*
X158732008Y-119369996D01*
X158732008Y-119370001D01*
X158734649Y-119386676D01*
X158724338Y-119439722D01*
X158712483Y-119454896D01*
X158598077Y-119569301D01*
X158592333Y-119574507D01*
X158486254Y-119661563D01*
X158473376Y-119670167D01*
X158355800Y-119733010D01*
X158341492Y-119738937D01*
X158213901Y-119777639D01*
X158198712Y-119780660D01*
X158062030Y-119794120D01*
X158054288Y-119794500D01*
X158009520Y-119794500D01*
X158009508Y-119794501D01*
X157056392Y-119794501D01*
X157056287Y-119794510D01*
X157014090Y-119794510D01*
X157014089Y-119794510D01*
X156949804Y-119804691D01*
X156821233Y-119825053D01*
X156821230Y-119825054D01*
X156635531Y-119885389D01*
X156461561Y-119974028D01*
X156461554Y-119974032D01*
X156303586Y-120088799D01*
X156268380Y-120124003D01*
X156268378Y-120124006D01*
X156268376Y-120124008D01*
X156244439Y-120147945D01*
X156234551Y-120157833D01*
X156204564Y-120187819D01*
X156204563Y-120187820D01*
X154066743Y-122325638D01*
X154066720Y-122325648D01*
X153973295Y-122419075D01*
X153973287Y-122419084D01*
X153858523Y-122577048D01*
X153858522Y-122577050D01*
X153769877Y-122751030D01*
X153709543Y-122936727D01*
X153709542Y-122936732D01*
X153678999Y-123129589D01*
X153678999Y-123129594D01*
X153679001Y-123205000D01*
X153679001Y-127720714D01*
X153678621Y-127728457D01*
X153665170Y-127865030D01*
X153662148Y-127880220D01*
X153623447Y-128007800D01*
X153617521Y-128022107D01*
X153554671Y-128139692D01*
X153546067Y-128152569D01*
X153459010Y-128258647D01*
X153453803Y-128264391D01*
X151988896Y-129729298D01*
X151983152Y-129734505D01*
X151877069Y-129821566D01*
X151864192Y-129830170D01*
X151746608Y-129893019D01*
X151732301Y-129898945D01*
X151604718Y-129937647D01*
X151589528Y-129940669D01*
X151489170Y-129950553D01*
X151452945Y-129954121D01*
X151445206Y-129954501D01*
X149132057Y-129954501D01*
X149081277Y-129936019D01*
X149054257Y-129889219D01*
X149063641Y-129836001D01*
X149076285Y-129819550D01*
X149283498Y-129613000D01*
X149283498Y-129275146D01*
X149301980Y-129224366D01*
X149309626Y-129216447D01*
X149381661Y-129151588D01*
X149440481Y-129070631D01*
X149480565Y-129015460D01*
X149480565Y-129015458D01*
X149480569Y-129015454D01*
X149549011Y-128861731D01*
X149583997Y-128697137D01*
X149583998Y-128613001D01*
X149583998Y-128565407D01*
X149583998Y-124452393D01*
X149602480Y-124401613D01*
X149607179Y-124396488D01*
X156170460Y-117845000D01*
X167671869Y-117845000D01*
X167692345Y-118052898D01*
X167752981Y-118252790D01*
X167752984Y-118252796D01*
X167752985Y-118252799D01*
X167752986Y-118252800D01*
X167851460Y-118437034D01*
X167983984Y-118598515D01*
X168145465Y-118731039D01*
X168145467Y-118731040D01*
X168329701Y-118829515D01*
X168329706Y-118829516D01*
X168329709Y-118829518D01*
X168529601Y-118890154D01*
X168529603Y-118890154D01*
X168529606Y-118890155D01*
X168737500Y-118910631D01*
X168945394Y-118890155D01*
X168945396Y-118890154D01*
X168945398Y-118890154D01*
X169145290Y-118829518D01*
X169145291Y-118829517D01*
X169145299Y-118829515D01*
X169329533Y-118731040D01*
X169491015Y-118598515D01*
X169623540Y-118437033D01*
X169722015Y-118252799D01*
X169776849Y-118072036D01*
X169782654Y-118052898D01*
X169782654Y-118052896D01*
X169782655Y-118052894D01*
X169803131Y-117845000D01*
X169782655Y-117637106D01*
X169782654Y-117637103D01*
X169782654Y-117637101D01*
X169722018Y-117437209D01*
X169722016Y-117437206D01*
X169722015Y-117437201D01*
X169623540Y-117252967D01*
X169623539Y-117252965D01*
X169491015Y-117091484D01*
X169329534Y-116958960D01*
X169226817Y-116904057D01*
X169145299Y-116860485D01*
X169145296Y-116860484D01*
X169145290Y-116860481D01*
X168945398Y-116799845D01*
X168737500Y-116779369D01*
X168529601Y-116799845D01*
X168329709Y-116860481D01*
X168329699Y-116860486D01*
X168145465Y-116958960D01*
X167983984Y-117091484D01*
X167851460Y-117252965D01*
X167752986Y-117437199D01*
X167752981Y-117437209D01*
X167692345Y-117637101D01*
X167671869Y-117845000D01*
X156170460Y-117845000D01*
X158241094Y-115778087D01*
X158290090Y-115755294D01*
X158296905Y-115755000D01*
X169958000Y-115755000D01*
X170008780Y-115773482D01*
G37*
%TD.AperFunction*%
%TD*%
%TA.AperFunction,Conductor*%
%TO.N,Net-(RL2-NC)*%
G36*
X134480539Y-109204026D02*
G01*
X134526294Y-109256830D01*
X134537500Y-109308341D01*
X134537500Y-109903638D01*
X134517815Y-109970677D01*
X134501181Y-109991319D01*
X129023819Y-115468681D01*
X128962496Y-115502166D01*
X128936138Y-115505000D01*
X127338862Y-115505000D01*
X127271823Y-115485315D01*
X127251181Y-115468681D01*
X125473819Y-113691319D01*
X125440334Y-113629996D01*
X125437500Y-113603638D01*
X125437500Y-109308341D01*
X125457185Y-109241302D01*
X125509989Y-109195547D01*
X125561500Y-109184341D01*
X134413500Y-109184341D01*
X134480539Y-109204026D01*
G37*
%TD.AperFunction*%
%TA.AperFunction,Conductor*%
G36*
X154053177Y-52674685D02*
G01*
X154073819Y-52691319D01*
X158001181Y-56618681D01*
X158034666Y-56680004D01*
X158037500Y-56706362D01*
X158037500Y-60303638D01*
X158017815Y-60370677D01*
X158001181Y-60391319D01*
X157173819Y-61218681D01*
X157112496Y-61252166D01*
X157086138Y-61255000D01*
X126487499Y-61255000D01*
X123687500Y-64054999D01*
X123687500Y-67255000D01*
X134501181Y-78068681D01*
X134534666Y-78130004D01*
X134537500Y-78156362D01*
X134537500Y-102160341D01*
X134517815Y-102227380D01*
X134465011Y-102273135D01*
X134413500Y-102284341D01*
X126157521Y-102284341D01*
X126090482Y-102264656D01*
X126044727Y-102211852D01*
X126034783Y-102142694D01*
X126063808Y-102079138D01*
X126069840Y-102072660D01*
X127087500Y-101055000D01*
X127087500Y-98805000D01*
X124487500Y-96205000D01*
X122547181Y-96205000D01*
X122535740Y-96204471D01*
X122487501Y-96200001D01*
X122487499Y-96200001D01*
X122439260Y-96204471D01*
X122427819Y-96205000D01*
X121987499Y-96205000D01*
X121187500Y-97004999D01*
X121187500Y-98003638D01*
X121167815Y-98070677D01*
X121151181Y-98091319D01*
X120073819Y-99168681D01*
X120012496Y-99202166D01*
X119986138Y-99205000D01*
X118488862Y-99205000D01*
X118421823Y-99185315D01*
X118401181Y-99168681D01*
X117323819Y-98091319D01*
X117290334Y-98029996D01*
X117287500Y-98003638D01*
X117287500Y-96955000D01*
X115923819Y-95591319D01*
X115890334Y-95529996D01*
X115887500Y-95503638D01*
X115887500Y-84806362D01*
X115907185Y-84739323D01*
X115923819Y-84718681D01*
X116387500Y-84255000D01*
X116387500Y-82656362D01*
X116407185Y-82589323D01*
X116423819Y-82568681D01*
X117501181Y-81491319D01*
X117562504Y-81457834D01*
X117588862Y-81455000D01*
X119086138Y-81455000D01*
X119153177Y-81474685D01*
X119173819Y-81491319D01*
X120251181Y-82568681D01*
X120284666Y-82630004D01*
X120287500Y-82656362D01*
X120287500Y-83805000D01*
X120887500Y-84405000D01*
X121246181Y-84405000D01*
X121280115Y-84409733D01*
X121393644Y-84442036D01*
X121569536Y-84458334D01*
X121587499Y-84459999D01*
X121587500Y-84459999D01*
X121587501Y-84459999D01*
X121603940Y-84458475D01*
X121781356Y-84442036D01*
X121894884Y-84409733D01*
X121928819Y-84405000D01*
X123537500Y-84405000D01*
X126137500Y-81805000D01*
X126137500Y-79505000D01*
X123837500Y-77205000D01*
X110388862Y-77205000D01*
X110321823Y-77185315D01*
X110301181Y-77168681D01*
X107573819Y-74441319D01*
X107540334Y-74379996D01*
X107537500Y-74353638D01*
X107537500Y-65556362D01*
X107557185Y-65489323D01*
X107573819Y-65468681D01*
X120351181Y-52691319D01*
X120412504Y-52657834D01*
X120438862Y-52655000D01*
X153986138Y-52655000D01*
X154053177Y-52674685D01*
G37*
%TD.AperFunction*%
%TD*%
%TA.AperFunction,Conductor*%
%TO.N,GND_INV*%
G36*
X83605558Y-122473482D02*
G01*
X83610639Y-122478139D01*
X91537497Y-130404998D01*
X91537499Y-130404999D01*
X91537500Y-130405000D01*
X91537501Y-130405000D01*
X129605516Y-130405000D01*
X129656296Y-130423482D01*
X129661399Y-130428160D01*
X130185634Y-130952798D01*
X130761906Y-131529514D01*
X130854983Y-131622662D01*
X130877802Y-131671647D01*
X130863796Y-131723839D01*
X130819517Y-131754818D01*
X130799100Y-131757502D01*
X110089225Y-131757502D01*
X110089220Y-131757500D01*
X110056500Y-131757500D01*
X109972364Y-131757500D01*
X109898717Y-131773154D01*
X109807770Y-131792485D01*
X109807765Y-131792487D01*
X109654049Y-131860926D01*
X109654039Y-131860931D01*
X109517919Y-131959828D01*
X109517910Y-131959836D01*
X109493669Y-131986759D01*
X109453055Y-132031864D01*
X109405345Y-132057233D01*
X109394350Y-132058002D01*
X108934498Y-132058002D01*
X108934497Y-132058002D01*
X108934495Y-132058003D01*
X105142502Y-135849996D01*
X105142501Y-135850000D01*
X105142501Y-146775500D01*
X105124019Y-146826280D01*
X105077219Y-146853300D01*
X105063501Y-146854500D01*
X75976439Y-146854500D01*
X75925659Y-146836018D01*
X75898639Y-146789218D01*
X75908023Y-146736000D01*
X75928344Y-146712827D01*
X76074542Y-146600646D01*
X76283146Y-146392042D01*
X76462738Y-146157994D01*
X76610243Y-145902507D01*
X76723139Y-145629952D01*
X76799493Y-145344993D01*
X76820233Y-145187462D01*
X76838000Y-145052509D01*
X76838000Y-144757490D01*
X76799493Y-144465006D01*
X76723141Y-144180055D01*
X76723140Y-144180053D01*
X76723139Y-144180048D01*
X76646858Y-143995889D01*
X76610245Y-143907497D01*
X76530762Y-143769827D01*
X76462738Y-143652006D01*
X76283146Y-143417958D01*
X76283143Y-143417955D01*
X76283137Y-143417948D01*
X76074551Y-143209362D01*
X76074544Y-143209356D01*
X76074542Y-143209354D01*
X75840494Y-143029762D01*
X75585007Y-142882257D01*
X75585002Y-142882254D01*
X75312460Y-142769364D01*
X75312444Y-142769358D01*
X75027493Y-142693006D01*
X74735009Y-142654500D01*
X74735006Y-142654500D01*
X74439994Y-142654500D01*
X74439991Y-142654500D01*
X74147506Y-142693006D01*
X73862555Y-142769358D01*
X73862539Y-142769364D01*
X73589997Y-142882254D01*
X73334510Y-143029759D01*
X73100455Y-143209356D01*
X73100448Y-143209362D01*
X72891862Y-143417948D01*
X72891856Y-143417955D01*
X72779675Y-143564152D01*
X72734098Y-143593187D01*
X72680522Y-143586134D01*
X72644013Y-143546292D01*
X72638000Y-143516060D01*
X72638000Y-140630275D01*
X72656482Y-140579495D01*
X72703282Y-140552475D01*
X72756500Y-140561859D01*
X72772861Y-140574414D01*
X72797302Y-140598855D01*
X72802533Y-140603864D01*
X72807618Y-140608525D01*
X72862833Y-140642035D01*
X72862835Y-140642035D01*
X72862839Y-140642038D01*
X72913619Y-140660520D01*
X72970222Y-140670500D01*
X74986227Y-140670500D01*
X75037007Y-140688982D01*
X75042088Y-140693639D01*
X79997302Y-145648855D01*
X79997325Y-145648877D01*
X79997335Y-145648887D01*
X80002533Y-145653864D01*
X80007618Y-145658525D01*
X80062833Y-145692035D01*
X80062835Y-145692035D01*
X80062839Y-145692038D01*
X80113619Y-145710520D01*
X80170222Y-145720500D01*
X80170226Y-145720500D01*
X87054780Y-145720500D01*
X87055406Y-145720486D01*
X87062006Y-145720342D01*
X87068891Y-145720041D01*
X87131607Y-145704693D01*
X87180583Y-145681855D01*
X87213901Y-145658525D01*
X87227660Y-145648891D01*
X87227662Y-145648888D01*
X87227665Y-145648887D01*
X87731387Y-145145165D01*
X87736367Y-145139964D01*
X87741024Y-145134883D01*
X87774538Y-145079661D01*
X87793020Y-145028881D01*
X87803000Y-144972278D01*
X87803000Y-144555000D01*
X100872530Y-144555000D01*
X100892366Y-144769065D01*
X100951197Y-144975834D01*
X101047019Y-145168271D01*
X101160636Y-145318725D01*
X101556858Y-144922503D01*
X101557381Y-144923408D01*
X101669092Y-145035119D01*
X101669995Y-145035640D01*
X101275563Y-145430072D01*
X101335445Y-145484662D01*
X101335452Y-145484667D01*
X101518226Y-145597837D01*
X101518230Y-145597839D01*
X101718688Y-145675497D01*
X101930010Y-145715000D01*
X102144989Y-145715000D01*
X102356311Y-145675497D01*
X102556769Y-145597839D01*
X102556773Y-145597837D01*
X102739547Y-145484668D01*
X102739550Y-145484665D01*
X102799435Y-145430072D01*
X102405004Y-145035640D01*
X102405908Y-145035119D01*
X102517619Y-144923408D01*
X102518140Y-144922504D01*
X102914362Y-145318726D01*
X102914363Y-145318726D01*
X103027971Y-145168285D01*
X103027980Y-145168271D01*
X103123802Y-144975834D01*
X103182633Y-144769065D01*
X103202469Y-144555000D01*
X103182633Y-144340934D01*
X103123802Y-144134165D01*
X103027980Y-143941728D01*
X103027971Y-143941714D01*
X102914362Y-143791272D01*
X102518140Y-144187494D01*
X102517619Y-144186592D01*
X102405908Y-144074881D01*
X102405003Y-144074359D01*
X102799436Y-143679927D01*
X102799435Y-143679926D01*
X102739554Y-143625337D01*
X102739547Y-143625332D01*
X102556773Y-143512162D01*
X102556769Y-143512160D01*
X102356311Y-143434502D01*
X102144990Y-143395000D01*
X101930010Y-143395000D01*
X101718688Y-143434502D01*
X101518230Y-143512160D01*
X101518226Y-143512162D01*
X101335453Y-143625330D01*
X101335444Y-143625337D01*
X101275563Y-143679925D01*
X101275562Y-143679926D01*
X101669995Y-144074359D01*
X101669092Y-144074881D01*
X101557381Y-144186592D01*
X101556859Y-144187495D01*
X101160636Y-143791272D01*
X101160635Y-143791272D01*
X101047023Y-143941720D01*
X100951197Y-144134165D01*
X100892366Y-144340934D01*
X100872530Y-144555000D01*
X87803000Y-144555000D01*
X87803000Y-144137722D01*
X87802842Y-144130494D01*
X87802541Y-144123609D01*
X87787193Y-144060893D01*
X87764355Y-144011917D01*
X87764352Y-144011914D01*
X87764352Y-144011912D01*
X87731391Y-143964839D01*
X87731382Y-143964829D01*
X87227697Y-143461144D01*
X87222466Y-143456135D01*
X87217381Y-143451474D01*
X87162166Y-143417964D01*
X87162141Y-143417955D01*
X87145349Y-143411843D01*
X87111382Y-143399480D01*
X87054782Y-143389500D01*
X87054778Y-143389500D01*
X80988773Y-143389500D01*
X80937993Y-143371018D01*
X80932912Y-143366361D01*
X79276139Y-141709588D01*
X79253301Y-141660612D01*
X79253000Y-141653727D01*
X79253000Y-137984003D01*
X79252369Y-137969561D01*
X79251171Y-137955864D01*
X79250330Y-137951636D01*
X79250754Y-137951551D01*
X79248000Y-137933647D01*
X79248000Y-137889194D01*
X79238687Y-137842376D01*
X79203214Y-137789285D01*
X79163484Y-137762740D01*
X79150124Y-137753813D01*
X79150123Y-137753812D01*
X79103306Y-137744500D01*
X79043769Y-137744500D01*
X79030053Y-137743300D01*
X79024347Y-137742294D01*
X79008503Y-137739500D01*
X79008500Y-137739500D01*
X76920222Y-137739500D01*
X76920220Y-137739500D01*
X76913014Y-137739657D01*
X76906106Y-137739959D01*
X76896804Y-137742236D01*
X76878026Y-137744500D01*
X76871694Y-137744500D01*
X76824876Y-137753812D01*
X76771782Y-137789288D01*
X76766285Y-137794786D01*
X76765801Y-137794302D01*
X76753744Y-137806624D01*
X76747336Y-137811111D01*
X76747329Y-137811117D01*
X74842087Y-139716361D01*
X74793111Y-139739199D01*
X74786226Y-139739500D01*
X72970220Y-139739500D01*
X72963014Y-139739657D01*
X72956108Y-139739959D01*
X72893391Y-139755307D01*
X72893388Y-139755308D01*
X72844412Y-139778147D01*
X72797339Y-139811108D01*
X72797329Y-139811117D01*
X72772861Y-139835586D01*
X72723885Y-139858424D01*
X72671687Y-139844438D01*
X72640692Y-139800172D01*
X72638000Y-139779725D01*
X72638000Y-132578136D01*
X76727500Y-132578136D01*
X76727500Y-133420756D01*
X76736782Y-133467427D01*
X76736783Y-133467429D01*
X76772146Y-133520353D01*
X76825071Y-133555717D01*
X76871739Y-133564999D01*
X79103256Y-133564999D01*
X79149927Y-133555717D01*
X79149929Y-133555716D01*
X79202853Y-133520353D01*
X79238217Y-133467428D01*
X79247499Y-133420760D01*
X79247499Y-132578135D01*
X79247497Y-132578131D01*
X77987501Y-131318135D01*
X77987499Y-131318135D01*
X76727501Y-132578132D01*
X76727500Y-132578136D01*
X72638000Y-132578136D01*
X72638000Y-132351863D01*
X76727500Y-132351863D01*
X77874363Y-131205001D01*
X77874363Y-131204999D01*
X77874362Y-131204998D01*
X78100636Y-131204998D01*
X78100636Y-131205000D01*
X79247498Y-132351862D01*
X79247499Y-132351862D01*
X79247499Y-130058135D01*
X79247498Y-130058135D01*
X78100636Y-131204998D01*
X77874362Y-131204998D01*
X76727500Y-130058136D01*
X76727500Y-132351863D01*
X72638000Y-132351863D01*
X72638000Y-128989239D01*
X76727500Y-128989239D01*
X76727500Y-129831863D01*
X76727501Y-129831867D01*
X77987498Y-131091864D01*
X77987500Y-131091864D01*
X79247497Y-129831866D01*
X79247499Y-129831862D01*
X79247499Y-128989243D01*
X79238217Y-128942572D01*
X79238216Y-128942570D01*
X79202853Y-128889646D01*
X79149928Y-128854282D01*
X79103260Y-128845000D01*
X76871743Y-128845000D01*
X76825072Y-128854282D01*
X76825070Y-128854283D01*
X76772146Y-128889646D01*
X76736782Y-128942571D01*
X76727500Y-128989239D01*
X72638000Y-128989239D01*
X72638000Y-125443999D01*
X72656482Y-125393219D01*
X72703282Y-125366199D01*
X72717000Y-125364999D01*
X73364364Y-125364999D01*
X73364366Y-125364998D01*
X73590636Y-125364998D01*
X73590637Y-125364999D01*
X75684363Y-125364999D01*
X75684363Y-125364998D01*
X74637501Y-124318136D01*
X74637499Y-124318136D01*
X73590636Y-125364998D01*
X73364366Y-125364998D01*
X73364367Y-125364997D01*
X74524364Y-124205001D01*
X74524364Y-124204999D01*
X74524363Y-124204998D01*
X74750636Y-124204998D01*
X74750636Y-124205001D01*
X75910632Y-125364997D01*
X75910636Y-125364999D01*
X76653256Y-125364999D01*
X76699927Y-125355717D01*
X76699929Y-125355716D01*
X76752853Y-125320353D01*
X76788217Y-125267428D01*
X76797499Y-125220760D01*
X76797499Y-123387715D01*
X78072000Y-123387715D01*
X78072000Y-125022277D01*
X78072157Y-125029483D01*
X78072459Y-125036389D01*
X78087807Y-125099106D01*
X78087808Y-125099109D01*
X78110647Y-125148085D01*
X78143608Y-125195158D01*
X78143617Y-125195168D01*
X78247302Y-125298853D01*
X78252533Y-125303862D01*
X78257618Y-125308523D01*
X78312833Y-125342033D01*
X78312835Y-125342033D01*
X78312839Y-125342036D01*
X78363619Y-125360518D01*
X78420222Y-125370498D01*
X79751208Y-125370498D01*
X79751288Y-125370500D01*
X79753217Y-125370500D01*
X83658497Y-125370500D01*
X83658500Y-125370500D01*
X83672922Y-125369870D01*
X83672928Y-125369869D01*
X83672938Y-125369869D01*
X83686635Y-125368671D01*
X83690870Y-125367829D01*
X83690954Y-125368255D01*
X83708854Y-125365500D01*
X83753306Y-125365500D01*
X83800124Y-125356187D01*
X83853214Y-125320714D01*
X83888687Y-125267624D01*
X83898000Y-125220806D01*
X83898000Y-125161269D01*
X83899200Y-125147551D01*
X83902999Y-125126003D01*
X83903000Y-125126000D01*
X83903000Y-123284000D01*
X83902370Y-123269578D01*
X83902369Y-123269561D01*
X83901171Y-123255864D01*
X83900330Y-123251636D01*
X83900754Y-123251551D01*
X83898000Y-123233647D01*
X83898000Y-123189194D01*
X83888687Y-123142376D01*
X83853214Y-123089285D01*
X83802360Y-123055307D01*
X83800124Y-123053813D01*
X83800123Y-123053812D01*
X83753306Y-123044500D01*
X83693769Y-123044500D01*
X83680053Y-123043300D01*
X83674347Y-123042294D01*
X83658503Y-123039500D01*
X83658500Y-123039500D01*
X78420220Y-123039500D01*
X78420218Y-123039500D01*
X78413012Y-123039657D01*
X78406106Y-123039959D01*
X78343389Y-123055307D01*
X78343386Y-123055308D01*
X78294410Y-123078147D01*
X78247337Y-123111108D01*
X78247327Y-123111117D01*
X78143644Y-123214800D01*
X78138635Y-123220031D01*
X78133974Y-123225116D01*
X78100464Y-123280331D01*
X78081980Y-123331115D01*
X78072000Y-123387715D01*
X76797499Y-123387715D01*
X76797499Y-123189243D01*
X76788217Y-123142572D01*
X76788216Y-123142570D01*
X76752853Y-123089646D01*
X76699928Y-123054282D01*
X76653261Y-123045000D01*
X75910636Y-123045000D01*
X75910632Y-123045001D01*
X74750636Y-124204998D01*
X74524363Y-124204998D01*
X73364366Y-123045001D01*
X73364363Y-123045000D01*
X73590635Y-123045000D01*
X74637499Y-124091864D01*
X74637501Y-124091864D01*
X75684364Y-123045000D01*
X73590635Y-123045000D01*
X73364363Y-123045000D01*
X72717000Y-123045000D01*
X72666220Y-123026518D01*
X72639200Y-122979718D01*
X72638000Y-122966000D01*
X72638000Y-122534000D01*
X72656482Y-122483220D01*
X72703282Y-122456200D01*
X72717000Y-122455000D01*
X83554778Y-122455000D01*
X83605558Y-122473482D01*
G37*
%TD.AperFunction*%
%TA.AperFunction,Conductor*%
G36*
X169855558Y-94673482D02*
G01*
X169860639Y-94678139D01*
X170013861Y-94831361D01*
X170036699Y-94880337D01*
X170037000Y-94887222D01*
X170037000Y-97048660D01*
X170018518Y-97099440D01*
X169971718Y-97126460D01*
X169918500Y-97117076D01*
X169902139Y-97104521D01*
X168921139Y-96123521D01*
X168898301Y-96074545D01*
X168898000Y-96067660D01*
X168898000Y-95464195D01*
X168888687Y-95417377D01*
X168853214Y-95364286D01*
X168813484Y-95337741D01*
X168800124Y-95328814D01*
X168800123Y-95328813D01*
X168753306Y-95319501D01*
X167921694Y-95319501D01*
X167874876Y-95328813D01*
X167821785Y-95364286D01*
X167786312Y-95417377D01*
X167777000Y-95464195D01*
X167777000Y-96295806D01*
X167786312Y-96342624D01*
X167821785Y-96395715D01*
X167848331Y-96413451D01*
X167874876Y-96431188D01*
X167921694Y-96440501D01*
X168525159Y-96440501D01*
X168575939Y-96458983D01*
X168581020Y-96463640D01*
X168802020Y-96684640D01*
X168824858Y-96733616D01*
X168810872Y-96785814D01*
X168766606Y-96816809D01*
X168746159Y-96819501D01*
X167921694Y-96819501D01*
X167874876Y-96828813D01*
X167821785Y-96864286D01*
X167786312Y-96917377D01*
X167777000Y-96964195D01*
X167777000Y-97795806D01*
X167786312Y-97842624D01*
X167821785Y-97895715D01*
X167848331Y-97913451D01*
X167874876Y-97931188D01*
X167921694Y-97940501D01*
X168018000Y-97940501D01*
X168068780Y-97958983D01*
X168095800Y-98005783D01*
X168097000Y-98019501D01*
X168097000Y-98040502D01*
X168078518Y-98091282D01*
X168031718Y-98118302D01*
X168018000Y-98119502D01*
X167821694Y-98119502D01*
X167774876Y-98128814D01*
X167721785Y-98164287D01*
X167686312Y-98217378D01*
X167677000Y-98264196D01*
X167677000Y-98945807D01*
X167686312Y-98992625D01*
X167721785Y-99045716D01*
X167728760Y-99050376D01*
X167774876Y-99081189D01*
X167821694Y-99090502D01*
X168853306Y-99090502D01*
X168900124Y-99081189D01*
X168953214Y-99045716D01*
X168988687Y-98992626D01*
X168998000Y-98945808D01*
X168998000Y-98264196D01*
X168988687Y-98217378D01*
X168970177Y-98189675D01*
X168953214Y-98164287D01*
X168913484Y-98137742D01*
X168900124Y-98128815D01*
X168900123Y-98128814D01*
X168853306Y-98119502D01*
X168657000Y-98119502D01*
X168606220Y-98101020D01*
X168579200Y-98054220D01*
X168578000Y-98040502D01*
X168578000Y-98019501D01*
X168596482Y-97968721D01*
X168643282Y-97941701D01*
X168657000Y-97940501D01*
X168753306Y-97940501D01*
X168800124Y-97931188D01*
X168853214Y-97895715D01*
X168888687Y-97842625D01*
X168898000Y-97795807D01*
X168898000Y-96971342D01*
X168916482Y-96920562D01*
X168963282Y-96893542D01*
X169016500Y-96902926D01*
X169032861Y-96915481D01*
X169613861Y-97496481D01*
X169636699Y-97545457D01*
X169637000Y-97552342D01*
X169637000Y-101573641D01*
X169618518Y-101624421D01*
X169571718Y-101651441D01*
X169518500Y-101642057D01*
X169517785Y-101641639D01*
X169431686Y-101590719D01*
X169431683Y-101590718D01*
X169283686Y-101547723D01*
X169283682Y-101547722D01*
X169249090Y-101545000D01*
X168817500Y-101545000D01*
X168817500Y-102108797D01*
X168803326Y-102105000D01*
X168671674Y-102105000D01*
X168657500Y-102108797D01*
X168657500Y-101545000D01*
X168225910Y-101545000D01*
X168191317Y-101547722D01*
X168191313Y-101547723D01*
X168043316Y-101590718D01*
X168043313Y-101590719D01*
X167910656Y-101669174D01*
X167910649Y-101669179D01*
X167801679Y-101778149D01*
X167801674Y-101778156D01*
X167723219Y-101910813D01*
X167723218Y-101910816D01*
X167680223Y-102058813D01*
X167680222Y-102058817D01*
X167677500Y-102093410D01*
X167677500Y-102525000D01*
X168241298Y-102525000D01*
X168237500Y-102539174D01*
X168237500Y-102670826D01*
X168241298Y-102685000D01*
X167677500Y-102685000D01*
X167677500Y-103116589D01*
X167680222Y-103151182D01*
X167680223Y-103151186D01*
X167723218Y-103299183D01*
X167723219Y-103299186D01*
X167801674Y-103431843D01*
X167801679Y-103431850D01*
X167910649Y-103540820D01*
X167910656Y-103540825D01*
X168043313Y-103619280D01*
X168043316Y-103619281D01*
X168191313Y-103662276D01*
X168191317Y-103662277D01*
X168225910Y-103665000D01*
X168657500Y-103665000D01*
X168657500Y-103101202D01*
X168671674Y-103105000D01*
X168803326Y-103105000D01*
X168817500Y-103101202D01*
X168817500Y-103665000D01*
X169249090Y-103665000D01*
X169283682Y-103662277D01*
X169283686Y-103662276D01*
X169431683Y-103619281D01*
X169431685Y-103619280D01*
X169517785Y-103568360D01*
X169570902Y-103558419D01*
X169617982Y-103584946D01*
X169636996Y-103635530D01*
X169637000Y-103636358D01*
X169637000Y-104348577D01*
X169618518Y-104399357D01*
X169571718Y-104426377D01*
X169518500Y-104416993D01*
X169496934Y-104398697D01*
X169491014Y-104391484D01*
X169329534Y-104258960D01*
X169231059Y-104206324D01*
X169145299Y-104160485D01*
X169145296Y-104160484D01*
X169145290Y-104160481D01*
X168945398Y-104099845D01*
X168737500Y-104079369D01*
X168529601Y-104099845D01*
X168329709Y-104160481D01*
X168329699Y-104160486D01*
X168145465Y-104258960D01*
X167983984Y-104391484D01*
X167851460Y-104552965D01*
X167752986Y-104737199D01*
X167752981Y-104737209D01*
X167692345Y-104937101D01*
X167671869Y-105145000D01*
X167692345Y-105352898D01*
X167752981Y-105552790D01*
X167752984Y-105552796D01*
X167752985Y-105552799D01*
X167752986Y-105552800D01*
X167851460Y-105737034D01*
X167983984Y-105898515D01*
X168145465Y-106031039D01*
X168145467Y-106031040D01*
X168329701Y-106129515D01*
X168329706Y-106129516D01*
X168329709Y-106129518D01*
X168529601Y-106190154D01*
X168529603Y-106190154D01*
X168529606Y-106190155D01*
X168737500Y-106210631D01*
X168945394Y-106190155D01*
X168945396Y-106190154D01*
X168945398Y-106190154D01*
X169145290Y-106129518D01*
X169145291Y-106129517D01*
X169145299Y-106129515D01*
X169329533Y-106031040D01*
X169491015Y-105898515D01*
X169496932Y-105891304D01*
X169543433Y-105863777D01*
X169596751Y-105872579D01*
X169631936Y-105913594D01*
X169637000Y-105941422D01*
X169637000Y-106915687D01*
X169618518Y-106966467D01*
X169571718Y-106993487D01*
X169554125Y-106994592D01*
X169541655Y-106993979D01*
X169144935Y-107390699D01*
X169137599Y-107377993D01*
X169044507Y-107284901D01*
X169031798Y-107277563D01*
X169428519Y-106880843D01*
X169329256Y-106799380D01*
X169145104Y-106700948D01*
X169145101Y-106700946D01*
X168945302Y-106640338D01*
X168945298Y-106640337D01*
X168737500Y-106619871D01*
X168529701Y-106640337D01*
X168529697Y-106640338D01*
X168329898Y-106700946D01*
X168329895Y-106700948D01*
X168145742Y-106799380D01*
X168046480Y-106880842D01*
X168046479Y-106880843D01*
X168443200Y-107277564D01*
X168430493Y-107284901D01*
X168337401Y-107377993D01*
X168330064Y-107390700D01*
X167933343Y-106993979D01*
X167933342Y-106993980D01*
X167851880Y-107093242D01*
X167753448Y-107277395D01*
X167753446Y-107277398D01*
X167692838Y-107477197D01*
X167692837Y-107477201D01*
X167672371Y-107685000D01*
X167692837Y-107892798D01*
X167692838Y-107892802D01*
X167753446Y-108092601D01*
X167753448Y-108092604D01*
X167851880Y-108276756D01*
X167933343Y-108376019D01*
X168330063Y-107979298D01*
X168337401Y-107992007D01*
X168430493Y-108085099D01*
X168443199Y-108092435D01*
X168046479Y-108489155D01*
X168145743Y-108570619D01*
X168329895Y-108669051D01*
X168329898Y-108669053D01*
X168529697Y-108729661D01*
X168529701Y-108729662D01*
X168737500Y-108750128D01*
X168945298Y-108729662D01*
X168945302Y-108729661D01*
X169145101Y-108669053D01*
X169145104Y-108669051D01*
X169329260Y-108570617D01*
X169428518Y-108489157D01*
X169428519Y-108489155D01*
X169031799Y-108092435D01*
X169044507Y-108085099D01*
X169137599Y-107992007D01*
X169144935Y-107979299D01*
X169541654Y-108376018D01*
X169554123Y-108375406D01*
X169605749Y-108391374D01*
X169635033Y-108436791D01*
X169637000Y-108454311D01*
X169637000Y-108952658D01*
X169618518Y-109003438D01*
X169613871Y-109008508D01*
X169470867Y-109151513D01*
X169340912Y-109281468D01*
X169291936Y-109304305D01*
X169247811Y-109295278D01*
X169234354Y-109288085D01*
X169145299Y-109240484D01*
X169145296Y-109240483D01*
X169145290Y-109240480D01*
X168945398Y-109179844D01*
X168737500Y-109159368D01*
X168529601Y-109179844D01*
X168329709Y-109240480D01*
X168329699Y-109240485D01*
X168145465Y-109338959D01*
X167983984Y-109471483D01*
X167851460Y-109632964D01*
X167752986Y-109817198D01*
X167752981Y-109817208D01*
X167692345Y-110017100D01*
X167671869Y-110224999D01*
X167692345Y-110432897D01*
X167752981Y-110632789D01*
X167752984Y-110632795D01*
X167752985Y-110632798D01*
X167752986Y-110632799D01*
X167851460Y-110817033D01*
X167983984Y-110978514D01*
X168145465Y-111111038D01*
X168145467Y-111111039D01*
X168329701Y-111209514D01*
X168329706Y-111209515D01*
X168329709Y-111209517D01*
X168529601Y-111270153D01*
X168529603Y-111270153D01*
X168529606Y-111270154D01*
X168737500Y-111290630D01*
X168945394Y-111270154D01*
X168945396Y-111270153D01*
X168945398Y-111270153D01*
X169145290Y-111209517D01*
X169145291Y-111209516D01*
X169145299Y-111209514D01*
X169329533Y-111111039D01*
X169491015Y-110978514D01*
X169623540Y-110817032D01*
X169722015Y-110632798D01*
X169739070Y-110576577D01*
X169782654Y-110432897D01*
X169782654Y-110432895D01*
X169782655Y-110432893D01*
X169803131Y-110224999D01*
X169782655Y-110017105D01*
X169782654Y-110017102D01*
X169782654Y-110017100D01*
X169722018Y-109817208D01*
X169722016Y-109817205D01*
X169722015Y-109817200D01*
X169667220Y-109714686D01*
X169659583Y-109661190D01*
X169681029Y-109621586D01*
X169902140Y-109400476D01*
X169951115Y-109377640D01*
X170003313Y-109391626D01*
X170034308Y-109435892D01*
X170037000Y-109456339D01*
X170037000Y-113926002D01*
X170018518Y-113976782D01*
X169971718Y-114003802D01*
X169958000Y-114005002D01*
X158192497Y-114005002D01*
X158154317Y-114043182D01*
X158116136Y-114081363D01*
X158067162Y-114104201D01*
X158060276Y-114104502D01*
X157808754Y-114104502D01*
X157803807Y-114104497D01*
X157769191Y-114104469D01*
X157769190Y-114104469D01*
X157769184Y-114104469D01*
X157769027Y-114104490D01*
X157768938Y-114104501D01*
X157731015Y-114114663D01*
X157730952Y-114114680D01*
X157692727Y-114124888D01*
X157692526Y-114124971D01*
X157658521Y-114144603D01*
X157658469Y-114144634D01*
X157624181Y-114164392D01*
X157623993Y-114164536D01*
X157596261Y-114192269D01*
X157596214Y-114192316D01*
X148102750Y-123669830D01*
X148102310Y-123670217D01*
X148071217Y-123701311D01*
X148071170Y-123701358D01*
X148043185Y-123729295D01*
X148043048Y-123729474D01*
X148023493Y-123763343D01*
X148023462Y-123763396D01*
X148003573Y-123797779D01*
X148003480Y-123798002D01*
X147993435Y-123835493D01*
X147993418Y-123835556D01*
X147983028Y-123874199D01*
X147983000Y-123874422D01*
X147983000Y-123913812D01*
X147982963Y-123958164D01*
X147983000Y-123958725D01*
X147983000Y-127976778D01*
X147964518Y-128027558D01*
X147959861Y-128032639D01*
X147556639Y-128435861D01*
X147507663Y-128458699D01*
X147500778Y-128459000D01*
X141274222Y-128459000D01*
X141223442Y-128440518D01*
X141196422Y-128393718D01*
X141205806Y-128340500D01*
X141218361Y-128324139D01*
X160587498Y-108955002D01*
X160587500Y-108955000D01*
X160587500Y-103987722D01*
X160605982Y-103936942D01*
X160610639Y-103931861D01*
X163137500Y-101405000D01*
X164002501Y-100539999D01*
X166365635Y-100539999D01*
X167109363Y-100539999D01*
X167965635Y-100539999D01*
X168709363Y-100539999D01*
X168709363Y-100539998D01*
X168337501Y-100168136D01*
X168337500Y-100168136D01*
X167965635Y-100539999D01*
X167109363Y-100539999D01*
X167109363Y-100539998D01*
X166737501Y-100168136D01*
X166737500Y-100168136D01*
X166365635Y-100539999D01*
X164002501Y-100539999D01*
X164487502Y-100054998D01*
X164828261Y-99714239D01*
X166077500Y-99714239D01*
X166077500Y-100395756D01*
X166086782Y-100442427D01*
X166086783Y-100442428D01*
X166122146Y-100495354D01*
X166159229Y-100520132D01*
X166159231Y-100520132D01*
X166624364Y-100055000D01*
X166624364Y-100054999D01*
X166624363Y-100054998D01*
X166850635Y-100054998D01*
X166850635Y-100055000D01*
X167315767Y-100520132D01*
X167315769Y-100520132D01*
X167352852Y-100495355D01*
X167352853Y-100495354D01*
X167388217Y-100442428D01*
X167397499Y-100395760D01*
X167397499Y-99714243D01*
X167397498Y-99714239D01*
X167677500Y-99714239D01*
X167677500Y-100395756D01*
X167686782Y-100442427D01*
X167686783Y-100442429D01*
X167722146Y-100495354D01*
X167722147Y-100495355D01*
X167759230Y-100520132D01*
X167759232Y-100520132D01*
X168224364Y-100055001D01*
X168224364Y-100054999D01*
X168224363Y-100054998D01*
X168450636Y-100054998D01*
X168450636Y-100055001D01*
X168915767Y-100520132D01*
X168915769Y-100520132D01*
X168952852Y-100495355D01*
X168952853Y-100495354D01*
X168988217Y-100442428D01*
X168997499Y-100395760D01*
X168997499Y-99714243D01*
X168988217Y-99667572D01*
X168988216Y-99667571D01*
X168952854Y-99614646D01*
X168915768Y-99589866D01*
X168915767Y-99589866D01*
X168450636Y-100054998D01*
X168224363Y-100054998D01*
X167759231Y-99589866D01*
X167759229Y-99589866D01*
X167722145Y-99614646D01*
X167686782Y-99667571D01*
X167677500Y-99714239D01*
X167397498Y-99714239D01*
X167388217Y-99667572D01*
X167388216Y-99667570D01*
X167352853Y-99614645D01*
X167352852Y-99614644D01*
X167315768Y-99589866D01*
X167315766Y-99589866D01*
X166850635Y-100054998D01*
X166624363Y-100054998D01*
X166159231Y-99589866D01*
X166159229Y-99589866D01*
X166122145Y-99614646D01*
X166086782Y-99667571D01*
X166077500Y-99714239D01*
X164828261Y-99714239D01*
X164972500Y-99570000D01*
X166365635Y-99570000D01*
X166737498Y-99941863D01*
X166737499Y-99941863D01*
X167109363Y-99570000D01*
X167965635Y-99570000D01*
X168337499Y-99941864D01*
X168337500Y-99941864D01*
X168709363Y-99570000D01*
X167965635Y-99570000D01*
X167109363Y-99570000D01*
X166365635Y-99570000D01*
X164972500Y-99570000D01*
X165897621Y-98644878D01*
X165946596Y-98622041D01*
X165998794Y-98636027D01*
X166009342Y-98644879D01*
X166053861Y-98689398D01*
X166076699Y-98738374D01*
X166077000Y-98745259D01*
X166077000Y-98945807D01*
X166086312Y-98992625D01*
X166121785Y-99045716D01*
X166128760Y-99050376D01*
X166174876Y-99081189D01*
X166221694Y-99090502D01*
X167253306Y-99090502D01*
X167300124Y-99081189D01*
X167353214Y-99045716D01*
X167388687Y-98992626D01*
X167398000Y-98945808D01*
X167398000Y-98264196D01*
X167388687Y-98217378D01*
X167370177Y-98189675D01*
X167353214Y-98164287D01*
X167313484Y-98137742D01*
X167300124Y-98128815D01*
X167300123Y-98128814D01*
X167253306Y-98119502D01*
X166677757Y-98119502D01*
X166626977Y-98101020D01*
X166621896Y-98096363D01*
X166260639Y-97735106D01*
X166237801Y-97686130D01*
X166237500Y-97679245D01*
X166237500Y-96287722D01*
X166255982Y-96236942D01*
X166260639Y-96231861D01*
X167814361Y-94678139D01*
X167863337Y-94655301D01*
X167870222Y-94655000D01*
X169804778Y-94655000D01*
X169855558Y-94673482D01*
G37*
%TD.AperFunction*%
%TD*%
%TA.AperFunction,Conductor*%
%TO.N,CHASSIS*%
G36*
X169404652Y-54734684D02*
G01*
X169423487Y-54749547D01*
X169599375Y-54918399D01*
X169634103Y-54979025D01*
X169637500Y-55007850D01*
X169637500Y-58503638D01*
X169617815Y-58570677D01*
X169601181Y-58591319D01*
X169173819Y-59018681D01*
X169112496Y-59052166D01*
X169086138Y-59055000D01*
X168388862Y-59055000D01*
X168321823Y-59035315D01*
X168301181Y-59018681D01*
X164209180Y-54926680D01*
X164175695Y-54865357D01*
X164180679Y-54795665D01*
X164222551Y-54739732D01*
X164288015Y-54715315D01*
X164296861Y-54714999D01*
X169337613Y-54714999D01*
X169404652Y-54734684D01*
G37*
%TD.AperFunction*%
%TD*%
%TA.AperFunction,Conductor*%
%TO.N,VDC*%
G36*
X163503177Y-56474685D02*
G01*
X163523819Y-56491319D01*
X170000681Y-62968181D01*
X170034166Y-63029504D01*
X170037000Y-63055862D01*
X170037000Y-69094136D01*
X170017315Y-69161175D01*
X170000681Y-69181817D01*
X169263818Y-69918680D01*
X169202495Y-69952165D01*
X169176137Y-69954999D01*
X167198744Y-69954999D01*
X157474148Y-79668729D01*
X157412806Y-79702180D01*
X157386516Y-79704999D01*
X138516371Y-79704999D01*
X138449332Y-79685314D01*
X138428449Y-79668439D01*
X125323578Y-66491277D01*
X125290262Y-66429862D01*
X125287500Y-66403837D01*
X125287500Y-64756362D01*
X125307185Y-64689323D01*
X125323819Y-64668681D01*
X127101181Y-62891319D01*
X127162504Y-62857834D01*
X127188862Y-62855000D01*
X157787500Y-62855000D01*
X161462500Y-59180000D01*
X161462500Y-57381362D01*
X161482185Y-57314323D01*
X161498819Y-57293681D01*
X162301181Y-56491319D01*
X162362504Y-56457834D01*
X162388862Y-56455000D01*
X163436138Y-56455000D01*
X163503177Y-56474685D01*
G37*
%TD.AperFunction*%
%TD*%
%TA.AperFunction,Conductor*%
%TO.N,PGND*%
G36*
X169185001Y-84647500D02*
G01*
X166837500Y-86995000D01*
X170000681Y-83831819D01*
X169185001Y-84647500D01*
G37*
%TD.AperFunction*%
%TA.AperFunction,Conductor*%
G36*
X157887501Y-82654999D02*
G01*
X157877501Y-82654999D01*
X157887501Y-82644999D01*
X157887501Y-82654999D01*
G37*
%TD.AperFunction*%
%TD*%
M02*
